<?xml version="1.0" encoding="UTF-8"?>
<svg id="Layer_2" data-name="Layer 2" xmlns="http://www.w3.org/2000/svg" viewBox="0 0 682.72 832.64">
  <defs>
    <style>
      .cls-1 {
        fill: #f0f8ff;
        stroke-width: 0px;
      }
    </style>
  </defs>
  <g id="Layer_1-2" data-name="Layer 1">
    <g>
      <g>
        <g>
          <path class="cls-1" d="m523.68,195.87c8.69,2.89,15.84,8.24,21.15,15.75,8.68,12.27,11,26.24,10.43,40.88-.63,16.14-1.34,32.29-2.11,48.42-.24,5.03-.7,10.05-1.22,15.05-.44,4.32-1.2,8.61-1.63,12.93-.31,3.12-.28,6.27-.42,9.41-.12,2.77-.34,5.54-.38,8.32-.03,2.44.33,4.9.17,7.33-.66,9.77-1.55,19.52-2.16,29.29-.89,14.02-1.33,28.07-2.47,42.07-1.34,16.29-3.19,32.54-4.9,48.8-.8,7.55-1.68,15.09-2.72,22.61-1.38,9.95-3.04,19.86-4.4,29.81-1.5,11.03-2.4,22.16-4.29,33.12-2.15,12.44-4.74,24.84-7.86,37.08-2.31,9.05-3.98,18.91-12.64,24.59-5.36,3.52-11.13,6.83-17.18,8.82-16.07,5.29-32.81,7.02-49.67,6.71-9.81-.18-19.59-1.72-29.4-1.94-10.86-.24-21.77.96-32.6.41-12.82-.65-25.6-2.31-38.35-3.88-6.79-.84-13.54-2.2-20.22-3.68-11.79-2.61-23.55-5.36-35.26-8.31-6.49-1.64-12.75-4.28-19.28-5.64-17.87-3.72-33.92-11.97-50.19-19.66-3.67-1.74-7.24-4.1-10.2-6.87-6.82-6.41-8.98-14.12-7.39-23.73,1.79-10.8,1.54-21.92,2.62-32.86,1.43-14.47,3.44-28.89,4.91-43.36,1.18-11.59,1.64-23.25,2.93-34.82,1.41-12.66,3.52-25.24,5.12-37.87,1.93-15.18,3.45-30.41,5.52-45.57,2.14-15.69,4.65-31.34,7.17-46.98,1.37-8.5,2.91-16.98,4.71-25.4,2.32-10.86,4.86-21.67,7.52-32.45,1.96-7.97,3.24-16.33,6.64-23.68,5.51-11.92,11.89-23.56,19.06-34.55,6.68-10.24,13.77-20.96,25.47-26.1,20.51-9.01,41.89-9.34,63.25-3.28,12.6,3.57,24.84,8.44,37.42,12.06,5.49,1.58,11.43,4.22,17.27,0,.79-.57,2.82.61,4.29.94,3.27.75,6.61,2.31,9.79,2.03,5.49-.5,10.87-2.15,16.3-3.33,3.26-.71,6.52-2.11,9.77-2.06,16.22.27,32.43.92,47.6,1.4,10.13,2.95,19.09,5.28,27.85,8.19Zm-252.92,275.35c.31,8.06,2.35,9.23,10.03,6.58.33,6.87.48,13.65,1.03,20.41.89,10.85,4.33,12.56,14.09,6.65.77,5.91,1.05,11.66,2.35,17.17,2.71,11.54,5.88,22.99,9.04,34.42,1.09,3.93,3.7,5.93,8.17,6.03,4.67.11,5.57-3.1,6.58-6.2,1.5-4.63,2.61-9.39,3.96-14.34.32.31.99.64,1.13,1.13,3.24,11.19,6.59,22.34,9.51,33.61.77,2.96-.15,6.31.28,9.41.32,2.31,1.35,6.28,2.39,6.39,2.55.27,6.11-.51,7.76-2.27,2.24-2.38,3.07-6.08,4.82-9.9,3.27,7.07,3.11,14.18,3.24,21.23.02,1.34-.1,2.69-.15,4.04-.12,3.38-.51,7.75,3.76,8.02,3.41.21,7.82-1.18,10.26-3.48,3.17-2.99,4.82-7.58,7.35-11.85,2.83,2.14,5.77,6.04,9.57,1.93,2.11-2.28,3.76-5.08,5.21-7.85,3.33-6.34,6.34-12.85,9.68-19.19.67-1.27,2.18-2.08,3.31-3.1.41.3.83.59,1.24.89-.56,1.55-1.23,3.08-1.65,4.67-.86,3.22-2.13,6.58,1.93,8.78,3.9,2.11,6.41-.13,8.52-2.89,8.05-10.51,14.82-21.75,19.33-34.27.93-2.58,2.12-5.07,3.62-8.63.5,1.92.72,2.71.91,3.5,1.09,4.72,4.05,5.89,8.01,3,7.76-5.68,9.95-14.58,12.92-22.96,1.11-3.13,1.49-6.52,2.63-9.64.62-1.69,1.83-3.97,3.27-4.42,8.44-2.68,10.58-9.91,12.14-17.04,1.68-7.66,2.4-15.55,3.14-23.38.3-3.16.55-5.2,4.5-5.48,4.27-.3,6.01-3.71,6.97-7.55,4.88-19.55,5.26-39.28,1.1-58.9-2.38-11.2-6.07-22.15-9.55-33.1-4.6-14.45-12.29-27.22-22.06-38.77-10.95-12.94-24.73-21.7-40.91-26.27-20.05-5.66-40.53-8.35-61.43-6.27-17.59,1.75-33.3,8.37-46.79,19.61-15.55,12.95-25.84,29.84-34.63,47.88-7,14.36-13.26,28.98-15.94,44.72-1.38,8.13-.84,16.62-.9,24.95-.03,3.3.83,6.61.99,9.92.36,7.89,2.26,9.62,9.5,8.68-.1,8.19-.52,16.18-.21,24.14Zm67.43-234.06c-2.86,7.24-1.81,14.42,2.1,20.7,3.28,5.26,7.94,9.45,15.27,8.05,8.05-1.53,12.96-5.9,14.8-13.72,1.69-7.16,1.24-14.2-3.6-19.9-2.66-3.13-6.78-5.02-10.24-7.47-8.57.07-15.15,4.26-18.34,12.33Zm106.91,1.84c-6.18-4.09-13.54-3.15-18.46,2.41-6.69,7.56-7.22,20.83-.94,28.76,3.85,4.86,8.81,7.43,15.22,5.89,6.52-1.58,10.67-5.69,12.52-12.1.34-1.16.32-2.42.47-3.64,1.27-8.83-1.06-16.19-8.8-21.32Zm45.46,380.14c5.38-2.14,10.5-4.92,15.89-7.03,4.73-1.86,5.3-4.87,3.41-9.81-11.05,5.82-21.82,11.48-32.57,17.15,4.29,4.18,8.89,1.44,13.28-.31Zm3.61-63.84c8.97-4.31,17.9-8.71,26.78-13.2,4.5-2.27,5.57-5.91,3.75-10.53-6.11,1.31-12.97,7.23-13.2,10.18-7.87,4.8-15.14,9.24-22.4,13.67,0,.36-.02.72-.03,1.08,1.71-.38,3.56-.45,5.1-1.19Zm49.02-234.52c2.65-1.68,2.92-7.12,4.28-10.84-.49-.25-.99-.49-1.48-.74-3.02,2.49-5.94,5.1-9.07,7.43-3.62,2.69-7.47,5.07-11.13,7.71-3.42,2.47-6.73,5.09-10.09,7.64.48.69.95,1.39,1.43,2.08,8.76-4.32,17.86-8.09,26.07-13.29Zm-53.29,282.16c1.3-.49,2.79-.52,4.03-1.11,5.94-2.83,11.88-5.67,17.7-8.72,3-1.57,4.7-4.03,3.58-7.7-6.96-.66-10,5.47-15.01,7.81-5.17,2.42-10.77,3.93-16.42,5.92,1.05,4.03,2.99,4.98,6.11,3.8Zm25.1-113.13c5.33-3.01,10.86-5.93,15.47-9.86,1.99-1.69,1.89-5.83,2.75-8.86-.74-.4-1.49-.8-2.23-1.19-4.41,4.29-8.82,8.58-14.22,13.83-7.13-.59-9.53,9.2-16.8,11.42.21.64.42,1.29.63,1.93,4.81-2.41,9.72-4.63,14.4-7.27Zm-.82-99.76c.87,2.59,2.87,2.65,5.44,1.07,5.52-3.4,11.05-6.78,16.59-10.15,4.76-2.89,5.16-7.8,5.44-12.94-9.07,7.27-18.13,14.54-27.47,22.02Zm-19.1,177.37c.41.78.82,1.55,1.23,2.33,8.2-3.54,16.54-6.81,24.48-10.86,1.44-.74,1.25-4.67,1.82-7.12-.56-.39-1.12-.78-1.67-1.17-8.23,6.19-17.97,10.09-25.85,16.83Zm42.75-268.92c-2.79,3.55-6.19,6.63-9.33,9.9-2.98,3.1-8.82,2.98-10.61,8.99,2.01-.36,3.26-.22,3.94-.77,8.52-6.89,17.1-13.71,25.23-21.03,1.17-1.06.07-4.64.02-7.06l-2.41-.85c-2.26,3.63-4.23,7.48-6.85,10.82Zm9.94-29.17c-4.48,2.15-8.94,3.81-10.87,8.98-.43,1.16-1.99,2-3.19,2.74-3.94,2.44-7.99,4.72-11.9,7.21-.43.27-.24,1.51-.35,2.41,16-3.09,27.44-12.23,26.3-21.34Zm-5.16,67.02c1-.59.38-3.94.5-6.01-1.5.2-3.32-.07-4.44.69-6.77,4.57-13.42,9.34-20.02,14.15-.94.69-1.47,1.95-2.19,2.94.46.57.91,1.14,1.37,1.71,8.3-4.43,16.69-8.7,24.78-13.5Zm-21.78-62.66c-.22.18.49,1.49.89,2.59,7.61-4.42,14.9-8.7,22.23-12.91,3.89-2.23,5.23-5.38,3.37-11.25-9.33,7.55-17.95,14.51-26.49,21.57Zm-11.31,192.7c9.51,1.83,16.23-4.62,23.58-8.6,1.76-.95,1.92-4.87,2.81-7.42-.65-.38-1.3-.76-1.95-1.14-8.06,5.66-16.13,11.33-24.44,17.16Zm36.12-220.64c1.04-1.32,2.01-3.12,1.98-4.68-.01-.8-2.32-1.55-3.59-2.32-5.2,9.34-15.49,12.71-22.85,19.52-.18.17-.1.63-.22,1.61,9.04-3.74,18.41-6.16,24.67-14.13Zm-4.96,141.42c-9.55,6.34-18.62,12.37-27.69,18.39.36.62.72,1.24,1.08,1.86,9.18-4.38,18.36-8.76,27.83-13.27-.46-2.62-.77-4.44-1.22-6.98Zm-48.56,195.65c1.58.72,2.72,1.72,3.36,1.46,7.4-2.92,14.84-5.81,21.99-9.29,1.48-.72,1.79-3.84,2.64-5.85-.59-.39-1.17-.78-1.76-1.16-8.45,4.78-16.91,9.56-26.23,14.84Zm21.36-74.29c4.3-2.69,8.27-5.94,12.65-8.47,4.48-2.58,4.19-6.09,3.12-11.66-4.45,4.47-8,8.13-11.66,11.68-1.41,1.36-3.03,2.51-4.6,3.7-2.34,1.77-4.72,3.48-7.08,5.22.43.74.86,1.49,1.29,2.23,2.11-.88,4.37-1.5,6.28-2.69Zm20.22-149.61c7.3-1.62,10.54-6.49,8.43-13.02-8.74,5.64-17.37,11.21-25.23,16.28,5.12-.98,10.99-1.97,16.8-3.27Zm-7.48,52.46c-4.03,2.82-8.22,5.42-11.9,9.33,2.95-1.17,5.91-2.31,8.85-3.5,3.89-1.58,7.86-2.99,11.61-4.85,3.85-1.91,6.63-4.64,4.13-10.35-4.38,3.25-8.46,6.42-12.68,9.38Zm-12.11,39.71c6.65-3.32,13.36-6.56,19.74-10.34,1.91-1.13,2.84-3.9,3.37-6.73-10.77,2.85-17.31,11.81-27.01,15.78.19.56.38,1.11.56,1.67,1.12-.11,2.39.09,3.34-.38Zm.99-18.76c-.54.36-.15,2.11-.23,4.21,4.72-2.52,8.61-4.64,12.54-6.67,2.48-1.28,4.92-2.91,7.58-3.51,4.39-.98,4.72-3.36,2.88-8.62-7.99,5.07-15.44,9.73-22.77,14.59Zm12.29,78.37c-7.62.55-12.67,7.03-10.78,14.25,10.68-3.96,12-5.74,10.78-14.25Zm-32.62,28.03c6.15-3.52,12.25-7.13,18.21-10.97.99-.64,1.18-2.51,1.75-3.81-1.43-.12-2.99-.66-4.26-.25-1.6.51-3.03,1.71-4.42,2.75-5.07,3.82-10.09,7.69-15.13,11.55.05.37.1.73.15,1.1,1.25-.1,2.73.2,3.71-.37Zm48.56-319.7c-4.87,4.02-9.1,7.5-13.32,10.99.49.49.97.98,1.46,1.48,11.18-3.09,13.17-4.85,11.87-12.46Zm-19.67,23.35c.2.54.4,1.08.6,1.63,3.13-1.02,6.29-1.96,9.38-3.1,3.6-1.33,7.21-2.68,10.65-4.36,1.31-.64,2.13-2.25,3.18-3.42-.4-.23-.8-.46-1.2-.7-7.54,3.32-15.07,6.64-22.61,9.95Zm-9.98,133.87c5.53,1.7,7.46-1.81,8.92-6.01-2.97,2-5.95,4.01-8.92,6.01Z"/>
          <path class="cls-1" d="m464.26,124.4c-16.37,5.86-29.01,17.23-41.24,29.04-1.5,1.44-2.41,3.49-3.59,5.26.36.53.72,1.06,1.08,1.59,3.08-1.19,6.67-1.73,9.15-3.69,8.23-6.48,15.7-13.96,24.16-20.09,6.72-4.88,14.49-8.3,21.73-12.48,1.35-.78,2.41-2.07,3.61-3.13,1.66-.49,3.32-.98,5.04-1.49.02.55.04,1.29.03,1.09,5.99.73,11.78,1.09,17.4,2.22,5.99,1.21,11.8,3.33,17.76,4.74,6.95,1.65,12.67,4.7,18.14,9.7,5.37,4.91,12.94,7.32,19.2,11.37,5.27,3.41,10.4,7.22,14.94,11.53,5.25,4.98,10.1,10.47,14.58,16.16,6.48,8.23,13.61,16.26,18.41,25.45,6.41,12.29,10.99,25.54,16.09,38.49,7.62,19.36,10.4,39.87,13.66,60.22,1.66,10.36,2.78,20.82,3.79,31.28.92,9.56,1.83,19.17,1.87,28.76.06,12.36-.45,24.74-1.27,37.07-.59,8.95-2.08,17.84-3.17,26.72-5.81-.69-7.64-3.04-6.88-7.22.18-.99.56-1.96.59-2.95.26-9.34.56-18.69.66-28.04.18-15.03.87-30.09.12-45.08-.64-12.85-2.81-25.64-4.66-38.41-1.52-10.55-2.96-21.17-5.5-31.5-3.8-15.47-8.02-30.88-13.07-45.97-2.96-8.86-7.06-17.6-12.15-25.42-5.77-8.86-12.99-16.84-20-24.82-9.22-10.5-20.45-18.01-34.37-20.96-8.7-1.84-17.4-3.71-26.47-5.65,2.44-6.79,7.47-5.04,11.86-4.38,4.61.7,9.14,1.85,13.71,2.8-6.3-4.65-12.21-10.22-20.65-8.73-3.32.59-6.35,2.84-9.67,3.41-8.23,1.42-16.64,1.87-24.81,3.54-10.91,2.22-22.18,3.98-32.32,8.26-8.95,3.78-16.58,10.7-24.72,16.34-.7.48-1.38,2.07-1.09,2.65.45.9,1.77,1.96,2.68,1.93,3.11-.1,6.27-.4,9.31-1.05,24.63-5.28,49.25-9.66,74.27-2.23,8.7,2.58,17.76,4.18,26.14,7.52,8.17,3.25,15.14,8.54,21.72,14.87,7.86,7.57,14.24,16.11,19.09,25.37,5.02,9.58,7.98,20.37,10.96,30.87,3.5,12.35,7.13,24.82,8.78,37.5,2.33,17.87,3.5,35.95,4.04,53.98.53,18.01-.36,36.06-.57,54.1-.29,24.98-.9,49.97-.64,74.94.2,18.82,1.68,37.62,2.35,56.44.54,14.98.9,29.97.99,44.96.07,11.34-.62,22.68-.62,34.02,0,10.41.82,20.82.65,31.21-.17,10.39-1.83,20.79-1.58,31.16.61,25.02,2.75,49.93,8.68,74.37.42,1.73.36,3.58.52,5.37-.63.35-1.27.7-1.9,1.06-2.07-2.65-5.29-5.02-6.01-8-3.44-14.32-6.47-28.75-9.11-43.24-1.43-7.82-2.06-15.82-2.54-23.78-.51-8.46-.83-16.97-.48-25.42.46-11.29,2.11-22.54,2.41-33.83.36-13.14-.25-26.3-.31-39.45-.07-16.79.15-33.58-.1-50.37-.07-4.41-1.42-8.79-2.18-13.19-.54.07-1.07.14-1.61.21-.09,1.68-.23,3.35-.25,5.03-.21,15.63-.29,31.26-.65,46.89-.25,10.56-1.02,21.11-1.33,31.68-.46,15.79-.25,31.61-1.19,47.37-.8,13.42-2.92,26.77-4.23,40.16-1.28,13.07-1.98,26.2-3.53,39.23-1.02,8.51-.46,17.47-5.28,25.26-5.47-.29-4.16-4.94-3.81-7.14,2.37-15-1.64-30.53,3.84-45.24.19-.5-.22-1.22-.35-1.84-.45-.08-.89-.17-1.34-.25-2.12,7.29-6.18,14.65-5.94,21.86.48,14.56-7,26.15-11.48,38.87-.25.72-2.25.82-3.44,1.21-.13-1.2-.62-2.5-.3-3.57.59-1.98,1.84-3.76,2.5-5.73,4.34-12.96,4.51-26.21,3.04-39.65-.32-2.94-.23-7.14,1.53-8.87,5.4-5.3,7.73-11.17,7.16-19.01.58-.31,1.7-.91,2.43-1.29-.29-2.37-.89-4.25-.68-6.04.81-7.06,1.99-14.08,2.81-21.13,1.68-14.41,3.24-28.83,4.83-43.25,1.61-14.56,3.37-29.11,4.74-43.69,2.06-21.97,4.01-43.96,5.66-65.97.67-8.91.42-17.88.58-26.83.41-22.77,1.03-45.53,1.14-68.3.07-14.27-.13-28.58-1.13-42.81-1.24-17.58-3.19-35.12-5.31-52.62-2.11-17.42-5.03-34.75-7.16-52.17-1.7-13.91-4.27-27.53-11-39.95-8.8-16.21-21.78-27.73-39.82-32.58-10.42-2.8-20.98-5.55-31.65-6.8-18.85-2.22-37.75-1.21-56.49,2.08-7.7,1.36-14.89,3.7-21.1,8.77-1.23,1-4.4,1.36-5.47.51-3.21-2.54-6.7-5.39-8.5-8.92-6.52-12.81-15.52-23.41-26.86-32.02-3.01-2.28-6.79-3.55-10.21-5.28-.3.48-.6.96-.9,1.44,1.77,1.6,3.56,3.19,5.31,4.8,9,8.3,19.05,15.69,24.24,27.35.67,1.5.87,3.2,1.29,4.81-.5.26-1.01.53-1.51.79-1.91-1.93-4.21-3.61-5.67-5.84-6.71-10.29-15.79-18.27-26.42-23.73-11.98-6.16-24.85-10.62-37.36-15.74-5.78-2.37-11.49-5.08-17.49-6.72-12.4-3.39-24.79.22-37.19,1.01-.89.06-1.73,1.02-3.89,2.38,9.75.42,17.9,1.04,26.05,1.06,10.11.03,19.66,1.41,28.54,6.85,5.54,3.4,11.52,6.36,17.66,8.47,13.51,4.65,25.81,11.03,36.05,21.79-6.11-1.76-11.79-3.25-17.39-5.03-14.12-4.48-28.54-5.41-43.18-3.79-12.83,1.43-24.66,5.59-34.81,13.67-9.61,7.66-17.34,17.04-24.66,26.93-10.67,14.41-17.78,30.53-23.65,47.16-5.14,14.55-9.23,29.51-13.1,44.47-3.63,14.05-6.73,28.26-9.38,42.53-3.58,19.26-6.59,38.64-9.67,57.99-1.94,12.17-3.79,24.37-5.27,36.6-1.96,16.19-3.41,32.45-5.28,48.65-1.5,13.04-3.77,26-4.86,39.06-1.67,19.99-4.21,39.95-3.02,60.1.74,12.37.4,24.85,1.8,37.13,1.4,12.31,1.93,24.41-.61,36.58-4.26.19-4.43.21-4.84-3.41-1.72-15.06-3.91-30.1-4.8-45.21-.72-12.28-.16-24.68.4-37,1.03-22.71,2.02-45.44,3.93-68.08,1.21-14.32,4.19-28.48,6.16-42.75,1.73-12.57,2.99-25.2,4.76-37.76,2.22-15.7,4.86-31.33,7.08-47.03.78-5.52.85-11.15,1.24-16.73-1.44.75-2.18,1.59-2.38,2.55-2.57,11.96-5.42,23.87-7.5,35.92-3.83,22.18-7.47,44.39-10.66,66.67-2.67,18.69-5.24,37.44-6.65,56.25-1.82,24.22-2.92,48.52-3.37,72.8-.26,13.87,1.28,27.78,2.23,41.66.37,5.37.45,11.01,2.2,15.99,3.14,8.9,2.64,17.94.7,26.45-2.41,10.54-6.69,20.72-10.85,30.77-3.34,8.09-7.85,15.58-16.07,20.02-4.53,2.45-8.14,2.46-9.54-.08,2.93-2.61,6.3-4.73,8.42-7.73,3.03-4.3,5.37-9.14,7.56-13.94,1.7-3.72,3-7.68,3.99-11.66,1.24-4.98,1.99-10.08,2.78-14.18-1.41-3.2-2.61-5.91-3.83-8.67-4.56,6.41-2.17,16.61-11.14,22.96,2.5-11.54,4.28-21.71,10.31-30.51.09-3.91.31-8.18.27-12.45-.1-10.08-.76-20.17-.37-30.22.49-12.33,1.9-24.62,2.77-36.94.52-7.39.54-14.83,1.17-22.21.64-7.51,1.94-14.97,2.62-22.48.71-7.87.7-15.81,1.62-23.65,1.19-10.13,3.17-20.17,4.47-30.29,1.26-9.79,1.92-19.65,3.15-29.44,1.76-13.99,3.71-27.96,5.76-41.91,1.24-8.43,2.83-16.81,4.26-25.22,2.69-15.89,5.03-31.85,8.18-47.65,2.02-10.09,5.55-19.87,7.84-29.92,2.67-11.69,4.2-23.65,7.2-35.25,3.51-13.55,8.08-26.82,12.19-40.21,5.43-17.66,15.08-33.28,25.07-48.47,5.23-7.95,13.02-14.54,20.63-20.5,5.78-4.53,12.78-8.06,19.79-10.36,11.55-3.8,23.52-4.31,35.63-1.51,5.02,1.16,10.42.73,15.64,1.02-1.26-2.2-2.77-4.01-4.66-4.59-6.14-1.88-12.36-3.58-18.65-4.84-9.63-1.93-19.09-.13-28.47,2.11-17.2,4.11-31.33,13.37-42.78,26.56-4.97,5.73-8.74,12.5-13.28,18.62-.87,1.18-2.82,1.56-3.42,1.87-1.72,2.49-3.06,4.41-4.47,6.43,1.42,1.8-1.35,9.75-3.31,11.12-2.12,1.48-3.57,4.05-4.96,6.36-.64,1.07-.41,2.65-.57,4-.38-.05-.77-.11-1.15-.16.12,1.78.24,3.57.36,5.35-.4.07-.8.14-1.19.2-.56-1.03-1.12-2.05-2.01-3.69-2.58,4.46-5.3,8.02-6.83,12.02-4.68,12.23-9.03,24.59-13.26,36.99-5.32,15.6-10.69,31.2-15.49,46.97-4.12,13.55-6.94,27.52-11.41,40.94-1.97,5.91-.84,15.21-11.46,15.19-4.1-5.36-.27-11.25.75-16.47,2.38-12.15,6.56-23.95,9.97-35.9,1.38-4.83,2.46-9.76,3.98-14.55,3.2-10.06,6.55-20.07,9.93-30.07,2.43-7.18,5.03-14.31,7.53-21.47,1.83-5.24,3.69-10.47,5.42-15.74,1.61-4.89,2.75-9.96,4.69-14.72,2.75-6.77,6.04-13.32,9.1-19.97,3.35-7.3,6.51-14.68,10.1-21.86,2.69-5.38,5.78-10.58,8.93-15.71,3.13-5.12,6.08-10.47,9.97-14.97,5.38-6.23,11.21-12.21,17.52-17.48,6.66-5.56,13.55-11.48,21.38-14.79,7.53-3.18,14.08-9.04,22.99-9.3,3.01-.09,5.85-3.09,8.95-3.57,11.34-1.75,22.72-3.66,34.15-4.22,8.78-.43,17.67,1.84,26.48,1.6,20.61-.56,36.72,8.17,50.49,22.55,1.24,1.29,2.81,2.25,4.54,3.61,3.85-7.42,8.55-12.69,16.71-13.23-2.16,6.39-7.1,10.04-12.41,12.99-2.65,1.47-3.42,2.56-2.04,5.19,1.69,3.2,3.62,1.85,5.56.4,7.3-5.46,14.49-11.08,21.92-16.35,2.21-1.57,5.11-2.18,7.69-3.23.48.74.96,1.49,1.44,2.23-2.6,2.91-4.98,6.06-7.84,8.67-4.66,4.25-9.74,8.04-14.43,12.26-1.51,1.36-2.35,3.45-3.5,5.2.41.46.81.92,1.22,1.39,2.2-1.07,4.63-1.83,6.56-3.26,8.9-6.59,17.47-13.66,26.54-19.99,7.33-5.12,15.54-7.33,24.21-3.09.81.4.85,2.38,1.24,3.63-5.02,1.07-10.25,1.58-15.04,3.3Zm-120.83-3.93c21.02,7.5,39.36,19.15,52.24,38.03,3.16,4.64,5.99,9.51,9.27,14.06.75,1.05,2.75,1.19,4.18,1.75.3-1.33,1.24-2.92.81-3.95-8.83-21.37-23.47-37.31-44.11-48.03-16.85-8.75-34.75-12.29-53.47-12.85-.81-.02-1.62.14-2.44.21-.03.55-.06,1.1-.09,1.65,11.22,2.99,22.71,5.24,33.62,9.13Zm22.21-4.93c15.44,7.31,28.79,17.04,38.05,31.75,1.42,2.25,2.72,5.34,6.74,2.52-10.5-21.73-27.64-34.75-51.82-39,2.33,1.6,4.51,3.54,7.03,4.73Zm136.63,15.55c-9.25-3.88-43.87,5.52-47.49,13.37,16.33-4.6,31.39-8.84,47.49-13.37Zm-301.17,181.34c4.92-19.19,9.83-38.38,14.75-57.57-.45-.11-.91-.21-1.36-.32-5.35,19.07-12.68,37.66-13.39,57.89Zm386.56-53.96c-.69.12-1.38.25-2.07.37,1.41,9.27,2.83,18.54,4.24,27.8.97-.16,1.94-.33,2.9-.49-1.69-9.23-3.38-18.46-5.07-27.69Zm4.14,45.58c3.24-8.79,2.1-14.96-1.92-14.78.58,4.46,1.15,8.88,1.92,14.78Z"/>
          <path class="cls-1" d="m527.68,752.31c2.97-3.23,6.3-6.2,8.8-9.76,2.99-4.26,6-8.77,7.65-13.63,1.99-5.86,4.35-12.52,3.33-18.26-1.57-8.83,2.38-15.81,4.47-23.43,1.91-7,5.68-13.57,7.07-20.63,2.9-14.82,5.03-29.82,6.97-44.8.99-7.62.57-15.42,1.38-23.08.95-8.89,2.89-17.69,3.81-26.58,1.18-11.47,1.69-23.01,2.64-34.51,1.31-15.87,2.9-31.71,4.11-47.59.52-6.79.35-13.62.61-20.43.25-6.7.92-13.4.93-20.1,0-25.36-.11-50.72-.34-76.07-.09-9.7-.42-19.41-1-29.1-.63-10.55-1.64-21.08-2.57-31.61-.13-1.49-.76-2.93-2.44-4.41-.22,3.14-.53,6.28-.66,9.42-1.12,27.5-2.16,55.01-3.3,82.52-.76,18.21-1.31,36.44-2.59,54.62-1.07,15.28-3.07,30.49-4.61,45.74-1.85,18.27-3.48,36.56-5.53,54.81-1.55,13.84-3.86,27.6-5.35,41.44-1.58,14.67-2.14,29.46-4,44.08-2.02,15.92-5.03,31.71-7.59,47.55-1.31,8.14-2.71,16.26-3.77,24.43-.19,1.45,1.47,3.05,1.7,4.66.38,2.56,1.14,5.56.22,7.74-3.2,7.62-7.06,14.96-10.64,22.42-.49,1.01-.76,2.13-1.13,3.2.6.45,1.21.9,1.81,1.35Z"/>
          <path class="cls-1" d="m84.48,707.6c8.34,4.41,14.37.65,19.68-2.92,16.52-11.1,23.55-28.62,29.29-46.53,3.55-11.08,6.46-22.52,8.07-34.02,1.68-11.95,1.24-24.19,2.12-36.27.89-12.21,2.45-24.37,3.39-36.57.89-11.64,1.13-23.32,2.07-34.95.7-8.74,2.12-17.43,3.11-26.16,1.48-13.18,2.92-26.37,4.26-39.56.85-8.31,1.52-16.64,2.18-24.97.07-.93-.44-1.9-1.1-4.54-1.81,2.7-3.47,4.13-3.77,5.81-2.86,15.94-5.48,31.92-8.21,47.88-1.05,6.12-2.35,12.19-3.28,18.33-2.8,18.58-5.57,37.17-8.15,55.78-1.62,11.66-3.55,23.35-4.03,35.08-.21,5.04.03,10.25-.19,15.37-.28,6.58-.28,13.27-1.52,19.7-2.5,13.05-5.31,26.08-8.82,38.9-4.01,14.64-9.24,28.95-19.72,40.42-2.56,2.8-6.63,4.24-10.02,6.27-1.4.84-2.86,1.59-5.35,2.97Z"/>
          <path class="cls-1" d="m264.53,677.11c-1.86,15.21-3.37,30.47-5.7,45.6-1.34,8.69-3.87,17.22-6.21,25.73-.65,2.36-3.24,4.28-3.62,6.61-.56,3.45-1.15,7.94.56,10.38,1.46,2.09,6.3,3.01,9.37,2.57,8.83-1.28,14.56-7.01,17.79-15.17,3.41-8.6,4.52-17.55,5.02-26.81.57-10.68,3.06-21.25,4.16-31.92,1.68-16.36,3.02-32.77,4.19-49.17.39-5.44-1.68-6.71-9.49-7.33-4.87-.39-8.13,1.92-8.95,6.22-2.12,11.11-4.28,22.22-6.43,33.33-.22,0-.45-.02-.67-.03Z"/>
          <path class="cls-1" d="m398.98,681.35c-2.79,22.82-5.81,45.62-8.21,68.48-.7,6.67-.09,13.59.76,20.29,1.02,8.09,13.08,14.55,20.37,11.45,3.55-1.51,4.66-5.91,3.31-9.61-.95-2.6-.89-5.68-.81-8.54.19-7.28.39-14.58,1.08-21.82.57-6.01,2.1-11.92,2.77-17.92.92-8.23,1.63-16.5,2.05-24.78.61-12.02,1.05-24.06,1.26-36.09.14-8-1.57-8.44-9.5-7.84-6.77.51-8.84,3.29-9.33,9.51-.45,5.69-2.11,11.28-3.24,16.92l-.5-.05Z"/>
          <path class="cls-1" d="m34.25,628.04c3.29.96,6.52,2.25,9.87,2.82,10.91,1.87,20.79-1.37,30.46-6.17,20.46-10.14,28.33-29.84,37.41-48.64,2.73-5.65,5.59-11.34,7.38-17.31,3.08-10.24,5.97-20.6,7.85-31.11,2.7-15.11,4.75-30.37,6.45-45.63,1.14-10.22,1.18-20.56,1.7-30.85.18-3.66.47-7.31.41-10.97-.02-1.52-.83-3.03-1.57-5.54-1.29,1.9-2.13,2.65-2.36,3.55-2.78,10.72-7.07,20.95-8.13,32.24-1.17,12.53-3.7,24.95-5.99,37.35-2.21,11.94-4.44,23.9-7.43,35.66-4.11,16.18-9.2,32.09-18.55,46.18-5.26,7.92-10.1,16.38-16.65,23.12-9.4,9.67-21.69,13.84-35.39,12.99-1.02-.06-2.05-.24-3.06-.16-.66.05-1.3.45-1.95.69-.15.59-.29,1.19-.44,1.78Z"/>
          <path class="cls-1" d="m447.94,163.36c6.25-.75,12.57-1.15,18.74-2.32,16.21-3.06,32.07-1.52,47.76,3,8.9,2.57,17.86,5.01,26.61,8.04,14.82,5.13,26.04,15.28,35.09,27.65,8.59,11.74,14.98,24.49,19.13,38.8,3.64,12.54,7.46,24.8,9.78,37.78,2.64,14.72,3.89,29.41,4.77,44.23.73,12.41,1.8,24.82,2.09,37.24.34,14.23-.09,28.48,0,42.73.02,3.56.77,7.12,1.18,10.68.67.05,1.34.1,2,.15.38-3.11,1.07-6.23,1.09-9.34.09-14.29.52-28.6-.17-42.86-1.15-23.57-2.34-47.18-4.92-70.62-1.66-15.07-5.43-29.95-8.99-44.74-2.32-9.65-5.23-19.29-9.16-28.38-7.7-17.77-19.46-32.87-34.77-44.66-5.59-4.3-13-6.46-19.82-8.93-10.53-3.8-21.07-7.99-31.97-10.16-8.06-1.6-16.86-1.28-25.04.04-9.77,1.58-19.23,5.1-28.8,7.88-1.65.48-3.17,1.42-4.75,2.14.05.55.09,1.1.14,1.65Z"/>
          <path class="cls-1" d="m273.58,811.17c-1.27-1.99-1.92-3.02-3.02-4.74,20.25,5.9,37.45,18.01,57.97,20.29,2.24-3.99.93-6.51-2.03-7.95-21.46-10.44-43.4-19.73-66.41-26.25-1.45-.41-3.37-.73-4.6-.13-5.94,2.91-11.31.48-16.74-1.4-9.99-3.46-19.93-7.02-29.89-10.55-2.92-1.04-5.76-2.56-8.77-3.05-5.4-.89-10.96-.82-16.33-1.79-8.21-1.49-16.33-3.52-24.48-5.32-2.04-.45-4.11-1.3-6.12-1.19-1.64.09-3.21,1.33-4.82,2.06.96,1.37,1.64,3.53,2.93,3.98,8.69,3.08,17.45,6.03,26.31,8.58,11.13,3.21,22.42,5.84,33.55,9.02,7.39,2.11,14.72,4.49,21.91,7.19,6.45,2.42,12.59,5.68,19.04,8.1,4.68,1.76,9.62,2.94,14.52,3.96,1.88.39,4-.41,6.98-.79Z"/>
          <path class="cls-1" d="m612.93,435.09c-.99,9.67-1.78,19.01,6.44,27.04,10.38,10.13,20.09,20.94,30.08,31.48,3.32,3.5,6.53,7.1,9.88,10.57,6.01,6.22,19.15,4.63,22.51-2.79,2.28-5.03-.31-9.73-3.27-12.88-7.77-8.25-16.15-15.96-24.72-23.4-8.83-7.67-18.14-14.81-27.3-22.1-3.92-3.12-8-6.05-12-9.06-.54.38-1.08.76-1.62,1.14Z"/>
          <path class="cls-1" d="m642.4,701.59c-.38-8.26-.41-16.55-1.19-24.77-2.38-24.88-5.6-49.69-7.46-74.61-1.66-22.29-1.93-44.68-2.87-67.03-.37-8.8-.64-17.62-1.5-26.37-.53-5.33-2.1-10.55-3.48-17.13-5.18,7.69-4.59,15.06-4.51,21.95.2,17.43,1.25,34.84,1.89,52.27.4,10.81.24,21.67,1.12,32.44,1.28,15.76,3.2,31.48,4.96,47.2,1.29,11.45,2.44,22.94,4.3,34.31,1.14,6.96,3.5,13.73,5.38,20.56.16.57.85.99,1.29,1.48.69-.1,1.38-.21,2.07-.31Z"/>
          <path class="cls-1" d="m404.71,811.51c-12-5.18-23.58-10.4-35.34-15.19-9.02-3.68-18.21-6.96-27.43-10.11-2.74-.94-5.85-1.26-8.76-1.11-1.56.08-3.04,1.77-4.55,2.73,1.02,1.3,1.78,3.22,3.12,3.81,8.59,3.79,17.31,7.3,26,10.88,7.82,3.23,15.64,6.45,23.49,9.63,5.99,2.42,12.06,4.63,17.99,7.18,5.32,2.29,10.76,4.5,15.65,7.54,3.94,2.46,6.81,2.53,10.22-1.93-2.77-2.49-5.74-5.16-8.7-7.82.19-.45.39-.91.58-1.36,3.84,1.56,7.77,2.95,11.51,4.73,8.14,3.89,16.11,8.18,24.34,11.86,1.77.79,4.39-.31,6.61-.53-1.1-1.88-1.73-4.54-3.37-5.49-8.96-5.21-18.05-10.22-27.33-14.84-4.45-2.21-9.37-3.53-14.15-5.03-6.52-2.05-6.94-1.77-9.89,5.06Z"/>
          <path class="cls-1" d="m95.22,779.52c7.68,1.96,15.29,4.21,23.05,5.78,6.35,1.28,13.01,2.97,19.29,2.28,9.93-1.1,18.02,3.55,26.63,6.4,13.86,4.58,27.4,10.12,41.16,15.01,2.7.96,5.83,1.16,8.72.97,1.23-.08,2.81-1.9,3.3-3.27.27-.74-1.19-2.74-2.28-3.21-4.78-2.06-9.67-3.87-14.58-5.59-20.37-7.13-40.63-14.61-61.23-20.99-4.85-1.5-10.23-3.68-16.59-.78-4.08,1.86-10.44-1.12-15.75-2.1-5.8-1.07-11.53-2.54-17.36-3.41-1.82-.27-4.3.33-5.67,1.48-2.96,2.48-2.3,4.76,1.42,6.01,2.65.89,5.39,1.52,8.1,2.24.5.13,1.04.14,1.56.2.08-.34.16-.68.24-1.01Z"/>
          <path class="cls-1" d="m167.2,735.38c9.92-3.85,14.38-11.07,16.66-19.31,3.91-14.14,8.04-28.37,9.95-42.85,1.82-13.77,1.03-27.89,1.16-41.87.04-4.9-.51-9.82-.98-14.71-.26-2.65-.93-5.26-1.42-7.89-.65-.08-1.3-.15-1.95-.23-.75,1.89-2.05,3.75-2.17,5.68-.61,9.42-.64,18.88-1.38,28.28-.94,11.9-2.09,23.8-3.71,35.63-1.2,8.83-2.95,17.63-5.07,26.28-2.24,9.13-5.17,18.1-7.93,27.1-.32,1.04-1.45,1.83-3.16,3.88Z"/>
          <path class="cls-1" d="m66.52,663.32c14.33-.5,25.53-7.61,34.24-17.55,10.41-11.88,18.82-25.52,22.97-40.98,1.63-6.06.65-12.85.63-19.3,0-.87-1.42-2.49-2.07-2.43-1.1.1-2.57,1.02-3.06,2.01-.83,1.69-1.31,3.68-1.44,5.58-.57,8.89-4.58,16.52-8.69,24.07-4.3,7.89-8.47,15.89-13.41,23.38-5.11,7.76-11.65,14.25-20.07,18.71-3.27,1.73-6.09,4.32-9.11,6.51Z"/>
          <path class="cls-1" d="m290.22,791.88c2.47,2.24,3.66,4.06,5.31,4.7,16.72,6.5,33.54,12.76,50.28,19.2,4.7,1.81,9.15,4.29,13.91,5.88,1.88.63,4.28-.32,6.44-.55-.99-2.22-1.38-5.36-3.1-6.49-5.35-3.55-10.96-6.92-16.89-9.3-13.97-5.62-28.16-10.68-42.31-15.83-2.27-.83-4.85-1.49-7.19-1.25-1.81.18-3.48,1.88-6.45,3.64Z"/>
          <path class="cls-1" d="m197.82,232.83c-.67.66-1.72,1.21-1.91,1.97-1.47,5.9-2.52,11.91-4.2,17.74-2.76,9.59-6.01,19.05-8.83,28.62-2.44,8.28-4.48,16.68-6.85,24.98-1.76,6.16-4.22,12.15-5.57,18.39-1.71,7.89-2.79,15.94-3.81,23.96-.84,6.62-1.31,13.3-1.67,19.97-.09,1.64.86,3.34,2.41,4.84,10.12-46.74,20.24-93.48,30.42-140.47Z"/>
          <path class="cls-1" d="m535.51,633.19c-6.43,34.12-12.85,68.24-19.28,102.37.28.35.57.71.85,1.06,3.82-4.03,7.64-8.06,10.59-11.17.43-5.65.5-10.44,1.2-15.14,2.81-18.89,6-37.73,8.63-56.64.83-5.98.42-12.15.43-18.23,0-.86-.8-1.73-1.24-2.6-.39.12-.79.23-1.18.35Z"/>
          <path class="cls-1" d="m515.26,648.89c-7.11,29.66-8.28,60.76-21.59,88.9.61.42,1.23.83,1.84,1.25,1.73-1.31,3.83-2.33,5.13-3.98,7.31-9.31,11.21-20.23,12.99-31.7,2.34-15.07,3.91-30.26,5.54-45.43.31-2.88-.61-5.9-.96-8.85-.98-.06-1.97-.12-2.95-.18Z"/>
          <path class="cls-1" d="m467.78,798.98c-2.89,1.32-7.73,2.11-8.27,4.06-1.21,4.46,3.79,4.62,6.72,5.45,16.32,4.67,32.11,10.66,47.28,18.3,2.31,1.17,4.82,2.14,7.35,2.59,1.23.22,3.34-.59,3.9-1.58.51-.9-.1-3.25-1.01-3.96-2.13-1.67-4.69-2.82-7.14-4.06-15.55-7.86-30.78-16.51-48.84-20.82Z"/>
          <path class="cls-1" d="m439.29,803.99c-1.3.86-3.27,2.15-5.23,3.45,1.61,1.44,2.99,3.38,4.87,4.22,11.17,5.02,22.45,9.81,33.72,14.61,4.75,2.02,9.5,4.12,14.4,5.68,1.45.46,3.44-.83,5.19-1.32-.67-1.49-.94-3.73-2.09-4.34-9.32-4.99-18.71-9.88-28.28-14.37-5.03-2.37-10.46-3.91-15.72-5.78-1.82-.65-3.68-1.16-6.87-2.15Z"/>
          <path class="cls-1" d="m212.34,626.52c-1.66,22.83-3.33,45.67-4.98,68.41,4.99-.51,6.82-2.47,8.5-11.07,3.3-16.94,3.98-33.98,1.22-51.07-.36-2.24-1.43-4.36-2.17-6.54-.85.09-1.71.18-2.56.27Z"/>
          <path class="cls-1" d="m512.82,812.54c1.97.97,3.59,1.98,5.36,2.61,9.3,3.3,18.69,6.33,27.93,9.79,5.52,2.07,10.71,5.05,16.27,6.97,1.73.6,4.2-.94,6.33-1.5-1.28-1.89-2.15-4.51-3.93-5.51-3.93-2.2-8.29-3.64-12.53-5.27-9.31-3.58-18.58-7.26-28-10.52-3.92-1.36-8.62-3.52-11.43,3.43Z"/>
          <path class="cls-1" d="m496.8,655.61c-5.94,20.67-11.88,41.33-17.92,62.37,4.32.08,6.29-4.25,8.18-7.33,9.28-15.13,12.1-32,11.95-49.48-.02-1.94-.77-3.87-1.19-5.81-.34.08-.68.17-1.03.25Z"/>
          <path class="cls-1" d="m469.12,702.86c8.97-7.3,14.81-34.82,9.27-42.59-2.75,14.26-9.4,27.02-9.27,42.59Z"/>
          <path class="cls-1" d="m49.35,775.14c7.46,5.79,16,5.65,24.9,7.93-2.24-7.67-8.35-8.63-13.35-10.72-3.81-1.59-7.78-1.73-11.55,2.79Z"/>
          <path class="cls-1" d="m296.32,385.84c4.72-15.18,11.77-29.26,22.64-41.08,7.09-7.71,13.84-15.96,21.94-22.46,5.67-4.55,13.37-6.57,20.18-9.68,1.68-.77,3.43-1.37,4.97-2.67-8.53-.88-16.4,1.41-23.88,5.03-11.19,5.42-19.56,14.34-27.11,23.84-17.48,21.99-28.23,46.81-29.94,75.15-.27,4.56-.39,9.13-.58,13.7-2.26-3.18-4.53-6.37-7.47-10.51-2.16,5.32-3.88,9.57-5.61,13.81-1.27-3.54-1.77-7.02-1.22-10.33,1.4-8.46,2.62-17.04,5.13-25.2,3.36-10.95,7.49-21.71,12-32.25,3.17-7.42,7.34-14.45,11.4-21.46,2.64-4.56,5.38-9.25,8.98-13.01,5.06-5.28,10.81-9.96,16.55-14.52,11.23-8.92,24.71-12.75,38.5-13.33,13.06-.55,26.35.78,39.32,2.71,16.73,2.49,31.99,8.94,44.89,20.49,12.41,11.11,19.98,25.21,25.56,40.44,3.8,10.38,7.59,21.02,9.25,31.87,2.1,13.74,2.09,27.81,2.84,41.74.17,3.2-.25,6.43-.42,10.19-2.09-3.68-3.78-6.66-6.38-11.23-1.78,2.67-2.76,4.15-4.3,6.48-.6-2.75-.98-3.9-1.08-5.08-.6-7.11-.51-14.34-1.81-21.31-3.07-16.47-8.64-32.14-16.37-47.09-6.46-12.5-12.14-25.43-22.77-35.18-1.55-1.43-3.47-2.46-5.21-3.67,16.45,23.67,28.66,48.8,37.06,76.15,5.36,17.43,7.79,76.06,1.27,83.3-.3-2.74-.54-5.3-.87-7.85-.9-6.91-2.07-13.79-2.71-20.72-1.53-16.56-1.93-33.28-4.53-49.65-1.71-10.75-3.95-22.07-12.77-30.35,1.69,9.44,4.38,18.63,6.24,27.99,1.87,9.43,3.28,18.99,4.2,28.56.88,9.17,1.41,18.45,1.12,27.65-.3,9.58-2.33,19.11-2.58,28.69-.25,9.46-1.67,18.39-5.79,28.15-.1-6.6.03-11.74-.41-16.83-.12-1.33-1.88-2.77-3.23-3.61-.5-.31-2.5.73-2.94,1.59-3.23,6.34-6.54,12.68-9.26,19.25-4.98,12.07-9.57,24.29-14.32,36.45-2.7-9.48,5.33-20.68-6.51-26.77-9.74,18.24-19.33,36.19-28.91,54.14l-1.42-.52c.09-1.66.09-3.33.29-4.98.9-7.65,1.7-15.32,2.84-22.94,1.69-11.31,3.75-22.57,5.46-33.89,1.86-12.35,4.63-24.7,4.94-37.1.43-17.38-.95-34.81-1.77-52.21-.23-4.88-1.17-9.73-1.78-14.59-.63,0-1.26,0-1.89,0-.48,2.09-1.4,4.19-1.37,6.27.17,13.09.71,26.19.81,39.28.11,14.17.39,28.37-.39,42.5-.49,8.78-2.94,17.45-4.31,26.19-1.32,8.39-3.07,16.79-3.4,25.23-.53,13.56-8.34,24.12-13.34,35.84-.62,1.46-1.83,2.68-2.7,3.93-2.62-10.76-5.14-21.06-7.64-31.36-.6-2.49-1.41-4.99-1.61-7.52-.32-3.9.2-7.88-.33-11.73-1.74-12.65-4.11-25.23-5.64-37.9-1.4-11.66-2.27-23.39-2.93-35.12-.48-8.53-.88-17.15-.21-25.65,1.02-12.93,3-25.78,4.57-38.66-.56-.14-1.12-.28-1.68-.41-.68,1.32-1.4,2.62-2.02,3.96-5.67,12.2-5.45,25.56-6.75,38.46-1.19,11.71-.88,23.78.49,35.49,2.2,18.71,5.21,37.38,9.04,55.83,3.27,15.76,3.99,15.61-2.82,26.03-1.24-4.72-2.22-8.52-3.24-12.31-.95-3.53-1.26-7.45-3.06-10.49-4.75-8.05-10.05-15.78-15.39-23.46-.99-1.43-3.75-3.16-4.74-2.7-1.57.73-2.95,3.07-3.31,4.94-.98,5.13-1.39,10.38-2.02,15.58-4.05-12.65-6.99-25.39-9.97-38.13-1.32-5.65-2.57-11.32-4.12-16.9-1.11-4.02-3.84-3.53-6.52-1.61-.97.69-1.55,1.93-3.12,3.95-.5-4.34-.91-7.44-1.2-10.54-.61-6.64-1.02-13.31-1.81-19.93-.15-1.24-1.58-3.14-2.59-3.26-1.13-.13-2.63,1.26-3.63,2.31-.72.75-.88,2.02-1.3,3.06-.42-.13-.84-.27-1.26-.4,1.13-4.56,2.57-9.07,3.33-13.69,1.13-6.83,1.78-13.75,2.63-20.63,3.91-13.92,7.52-27.93,11.81-41.73Zm60.7,52.99c-.09,17.66-.1,35.37,1.05,52.99,1.19,18.11,3.66,36.14,5.78,54.18,1.04,8.9,2.56,17.73,4.9,26.95.64-2.79,2.05-5.66,1.81-8.37-1.77-19.95-4.27-39.84-5.75-59.8-1.45-19.42-2.1-38.9-2.84-58.36-.27-7.19.19-14.41.31-21.62-.62-.11-1.24-.22-1.86-.33-1.19,4.79-3.38,9.57-3.4,14.36Zm-35.23-39.62c-4.17,11.27-9.26,22.41-11.63,34.08-2.62,12.92-3.93,26.42-3.44,39.58.47,12.81,3.9,25.51,6.17,38.24.2,1.13,1.4,2.09,2.13,3.13.48-.12.96-.23,1.44-.35-.1-2.78-.11-5.56-.3-8.33-.6-8.86-1.32-17.71-1.88-26.57-.45-7.08-1.45-14.23-.92-21.25.72-9.61,2.01-19.27,4.25-28.63,2.57-10.77,6.46-21.22,9.73-31.83.18-.6-.03-1.32-.06-1.99-.39-.3-.78-.6-1.16-.9-1.47,1.6-3.62,2.94-4.31,4.83Zm122.96-64.72c-12.78-14.59-29.82-21.58-48.47-25.17-.85-.16-1.75-.11-2.63-.09-.5.01-1.01.15-3.02.47,2.94,1.2,4.62,1.97,6.36,2.58,14.82,5.19,29.49,10.73,40.64,22.45,16.72,17.59,27.19,38.61,33.29,61.93,1.94,7.42,3.7,14.88,5.55,22.33l1.62-.37c-1.7-31.7-12.23-60.06-33.32-84.14Zm-7.42,173.21c6.5-19.8,11.59-39.97,9.59-60.97-1.65-17.33-3.57-34.76-10.1-51.18-.67-1.69-2.26-3.01-4.63-4.18,11.63,39.88,14.33,79.52-.24,119.3.8.24,1.59.48,2.39.72,1.02-1.22,2.52-2.29,2.99-3.69Zm-104.25,21.96c-1.74-20.54-4.78-40.67-4.76-60.79.01-20.3,3.05-40.6,4.78-61.11-13.02,11.34-12.61,104.62-.02,121.89Zm66.29-112.03c-.21,1.68-.66,3.37-.58,5.04,1.03,20.62,2.06,41.23,3.25,61.84,1.16,20.02-3.49,39.18-8.24,58.34-.35,1.41-.38,2.9-.62,4.88,14.92-15.46,17.93-102.71,6.19-130.1Zm28.24,44.5c-.32,19.32-3.92,38.59-5.91,56.32,15.66-24.17,15.44-97.09,1.81-114.67,1.49,19.26,4.43,38.84,4.11,58.35Zm-130.49,15.63c-4.02-44.15,11.26-83.66,22.44-124.02-14.62,23.7-36.8,109.32-22.44,124.02Zm75.54-47.32c.13,18.24.49,36.48.92,54.71.21,8.75.6,17.51,1.18,26.25.2,3,1.22,5.94,2.71,8.8,3-33.12-1.63-66.01-.67-98.99-.76-.07-1.51-.14-2.27-.21-.66,3.15-1.89,6.3-1.87,9.44Zm42.38,41.37c-.29,18.84-2.64,37.66-4.02,55.63,3.59-2.75,2.75-8.42,3.57-13.28,1.89-11.19,3.68-22.44,4.69-33.74,1.93-21.79.43-43.45-4.33-64.84-.06-.26-.51-.43-2.27-1.8.9,20.12,2.65,39.09,2.35,58.03Zm-55.93-143.92c-4.8-.08-9.49.93-13.58,3.91-3.47,2.53-5.15,6.11-6.18,9.98-2.39,8.94-2.78,18.06-1.78,27.25,1.28,11.76,7.02,20.39,17.74,25.75,8.37,4.18,17.2,5.77,26.45,5.85,6.98.05,13.83-.59,20.41-3.1,5.72-2.18,9.77-6.26,12.86-11.43,4.28-7.15,5.4-15.13,5.79-23.2.22-4.67-.09-9.42-.69-14.07-.89-6.91-5.22-11.25-11.52-13.87-5.62-2.34-11.49-3.5-17.49-4.21-3.61-.42-7.22-.88-10.83-1.32,0-.09.01-.18.02-.27-7.07-.45-14.13-1.15-21.2-1.27Z"/>
          <path class="cls-1" d="m399.67,388.66c-3.39-4.68-8.19-6.63-13.39-7.78-6.38-1.42-12.83-1.87-19.23-.3-4.05,1-8.02,2.34-11.41,4.96-1.67,1.3-1.7,1.78-.13,3.19,3.33,2.99,7.33,4.68,11.56,5.97,5.73,1.74,11.57,2.51,17.5,1.82,5.94-.69,11.54-2.31,15.09-7.86Z"/>
          <path class="cls-1" d="m165.15,382.83c-1.33,5.69-2.47,11.43-4.11,17.03-.46,1.55-2.27,2.88-3.72,3.94-10.73,7.82-22.03,14.6-35.3,17.07-10.75,2-21,.5-30.78-4.81-12.39-6.72-19.52-17.62-24.08-30.24-3.43-9.48-5.52-19.45-8.18-29.21-.19-.7.02-1.5-.15-2.21-.43-1.81-.5-3.16-3.41-3.49-6.76-.77-10.71-5.58-13.22-11.68-4.01-9.74.62-23.28,9.11-28.86,6.9-4.53,14.52-6.08,22.11-1.67,2.26,1.31,4.16,3.79,5.39,6.17.99,1.92,2.33,2.08,3.73,1.92,8.48-.96,13.84,3.33,14.11,11.75.25,7.65-2.46,14.77-9.79,17.01-6.77,2.07-5.49,6.47-5.36,10.57.33,10.52,2.62,20.66,7.37,30.17,5.88,11.8,18.35,18.09,31.42,15.99,10.17-1.63,19.21-5.91,27.98-11.02,5.26-3.07,10.58-6.05,15.87-9.07.34.21.68.42,1.02.63Z"/>
        </g>
        <path class="cls-1" d="m82.77,320.94s-2.01-26.85-6.29-34.37c-4.29-7.52-6.06-12.32-11.68-7.83-5.62,4.5-3.41,20.36,5.65,36.73,9.06,16.37,12.32,5.47,12.32,5.47Z"/>
      </g>
      <g>
        <path class="cls-1" d="m111.25,196.73c-2-.13-3.97-.37-5.65-1.59-.71-.51-1.43-1.04-2.02-1.67-1.93-2.12-4.25-2.82-7.04-2.19-1.91.43-3.7.15-5-1.45-1.24-1.52-1.44-3.26-.66-5.08.6-1.39,1.78-2.19,3.13-2.56,11.72-3.15,23.45-6.26,35.19-9.33,1.83-.48,3.59-.15,4.87,1.44,1.2,1.49,1.5,3.17.75,4.95-.61,1.45-1.81,2.29-3.29,2.72-2.71.78-4.31,2.57-4.97,5.29-.71,2.98-2.41,5.25-5.1,6.75-3.41.9-6.82,1.81-10.23,2.71Z"/>
        <path class="cls-1" d="m63.55,0c2.6.4,3.98,1.97,4.61,4.48,1.4,5.59,2.93,11.14,4.39,16.71.51,1.95-.1,4.1-1.66,5.02-1.82,1.08-3.69,1.58-5.48.15-.85-.68-1.62-1.74-1.91-2.77-1.64-5.73-3.12-11.51-4.66-17.26-.62-2.3.14-4.12,1.92-5.6.93-.25,1.86-.49,2.79-.74Z"/>
        <path class="cls-1" d="m119.1,141.54c3.64-.25,5.67,2.36,5.38,5.27-.18,1.73-1.52,3.36-3.32,3.84-7.55,2.01-15.1,4.01-22.65,6.01-4.22,1.12-8.44,2.23-12.67,3.35-2.6.69-4.87-.34-5.73-2.61-.98-2.59-.08-4.81,2.45-6.07.07-.03.11-.1.25-.24-1.19-3.05-2.81-5.9-4.79-8.56-3.56-4.77-8.17-8.38-12.92-11.85-4.31-3.15-8.74-6.16-12.81-9.59-5.5-4.64-9.7-10.31-12.2-17.18-2.72-7.48-3.89-15.11-2.9-23.03.69-5.51,2.26-10.76,4.75-15.74,4.48-8.95,11.15-15.74,19.82-20.68,4.57-2.6,9.5-4.21,14.58-5.21,7.35-1.46,14.71-1.04,21.9,1.03,9.92,2.86,18.12,8.35,24.57,16.43,2.86,3.58,5.2,7.46,6.86,11.72,3.88,9.98,4.96,20.14,1.34,30.42-1.63,4.61-3.66,9.09-5.62,13.57-2.45,5.59-5.04,11.11-6.2,17.17-.64,3.36-.79,8.91-.11,11.94Zm-69.82-51.44c1.62-.42,2.5-1.59,2.5-3.34.02-7.43,2.22-14.19,6.71-20.07,1.84-2.41,4.24-4.41,6.48-6.51,1.51-1.42,1.9-3.35.75-4.78-1.27-1.58-3.21-1.75-4.87-.46-5,3.89-8.9,8.65-11.66,14.36-2.7,5.59-4.06,11.48-4.03,17.68,0,2.13,2.04,3.66,4.12,3.11Z"/>
        <path class="cls-1" d="m108.59,170.98c-5.96,1.58-11.92,3.17-17.88,4.75-2.62.69-4.76-.59-5.48-3.26-.68-2.53.65-4.97,3.11-5.63,8.97-2.4,17.95-4.77,26.93-7.16,2.9-.77,5.8-1.56,8.71-2.31,3.33-.86,6.39,1.91,5.76,5.29-.33,1.8-1.36,3.1-3.26,3.6-5.97,1.56-11.92,3.16-17.88,4.74,0,0,0-.01,0-.02Z"/>
        <path class="cls-1" d="m124.54,8.78c2.14-.66,3.79-.05,5.05,1.52,1.28,1.6,1.36,3.48.41,5.18-3,5.34-6.09,10.63-9.23,15.89-1.42,2.38-4.41,3.07-6.57,1.69-2.26-1.44-2.86-4.22-1.46-6.63,2.94-5.05,5.87-10.11,8.79-15.17.73-1.26,1.6-2.3,3.01-2.48Z"/>
        <path class="cls-1" d="m50.94,135.51c2.19-.62,3.8-.01,5.03,1.52,1.31,1.63,1.42,3.5.41,5.28-3,5.3-6.05,10.57-9.16,15.8-1.4,2.36-4.39,3.07-6.59,1.74-2.29-1.38-2.89-4.21-1.43-6.72,2.98-5.12,5.98-10.24,8.92-15.38.71-1.24,1.66-2.01,2.81-2.23Z"/>
        <path class="cls-1" d="m138.76,112.15c1.37-.38,2.58-.14,3.8.58,5.17,3.05,10.38,6.05,15.56,9.07,2.19,1.28,3.01,3.99,1.9,6.25-1,2.03-3.78,3.15-5.97,2.12-2.2-1.03-4.28-2.34-6.39-3.55-3.3-1.89-6.6-3.78-9.88-5.71-3.2-1.88-3.43-6.21-.43-8.14.43-.27.93-.42,1.41-.62Z"/>
        <path class="cls-1" d="m12.01,38.65c1.29-.41,2.48-.24,3.67.46,5.15,3.02,10.32,5.98,15.48,8.98,2.39,1.39,3.26,4.19,2.03,6.5-1.17,2.21-4.21,3.12-6.58,1.78-5.33-3.02-10.63-6.09-15.88-9.24-1.74-1.04-2.54-2.75-2.19-4.82.34-1.96,1.45-3.25,3.46-3.65Z"/>
        <path class="cls-1" d="m156.54,70.18c-2.94.78-5.89,1.57-8.83,2.34-2.57.68-5.08-.72-5.75-3.18-.72-2.69.66-5.05,3.4-5.78,5.93-1.57,11.87-3.09,17.77-4.74,2.6-.73,5.05,1.03,5.66,3.18.62,2.22-.46,5.02-3.31,5.8-2.98.81-5.96,1.59-8.95,2.38Z"/>
        <path class="cls-1" d="m12.47,98.86c3.02-.8,6.04-1.61,9.06-2.4,2.32-.61,4.8.75,5.41,2.95.76,2.72-.48,5.27-2.98,5.94-6.11,1.65-12.22,3.32-18.36,4.85-2.8.7-4.84-1.15-5.46-3.47-.65-2.41,1.02-4.93,3.15-5.45,3.07-.75,6.12-1.61,9.18-2.42Z"/>
      </g>
    </g>
  </g>
</svg>