<?xml version="1.0" encoding="UTF-8"?>
<svg id="Layer_2" data-name="Layer 2" xmlns="http://www.w3.org/2000/svg" viewBox="0 0 765.17 879.31">
  <defs>
    <style>
      .cls-1 {
        fill: #f0f8ff;
        stroke-width: 0px;
      }
    </style>
  </defs>
  <g id="Layer_1-2" data-name="Layer 1">
    <g>
      <path class="cls-1" d="m271.21,83.6c18.37,1.65,38.03,3.26,57.64,5.33,3.92.41,7.65,2.59,11.48,3.92,6.37,2.22,12.63,5,19.18,6.42,3.79.82,8.06-.58,12.11-1,1.82-.19,4.45-1.31,5.32-.51,6.43,5.94,13.97,3.64,20.84,2.54,15.72-2.52,31.2-6.59,46.93-9.04,26.67-4.16,52.42-.62,75.84,13.28,13.36,7.93,20.34,21.9,26.89,35.25,7.03,14.33,13.01,29.31,17.91,44.5,3.02,9.37,3.33,19.64,4.52,29.55,1.61,13.4,3.09,26.82,4.29,40.27.93,10.42,1.54,20.88,1.94,31.34.73,19.24,1.45,38.49,1.72,57.74.26,18.59-.15,37.19-.06,55.79.08,15.49.76,30.97.6,46.45-.15,14.15-1.31,28.29-1.59,42.44-.36,17.68-.06,35.37-.47,53.04-.31,13.36-2.24,26.74-1.68,40.04.5,11.83-3.24,20.81-12.41,27.54-3.97,2.92-8.63,5.24-13.32,6.79-20.76,6.87-41.34,14.47-63.45,16.32-8.08.68-16.02,2.94-24.09,3.96-14.56,1.83-29.16,3.42-43.77,4.83-8.29.8-16.63,1.46-24.94,1.47-15.62.01-31.29.14-46.85-.97-13.15-.94-26.14-3.99-39.28-5.3-11.87-1.19-23.9-.76-35.76-1.99-20.39-2.11-40.33-6.66-58.94-15.42-7.01-3.3-13.47-8.14-19.43-13.17-9.61-8.13-10.18-20.28-11.63-31.53-1.96-15.22-3.26-30.56-4.02-45.9-.67-13.5-.11-27.06-.3-40.59-.17-12.21-.72-24.41-.91-36.61-.15-9.22-.11-18.46.05-27.68.33-19.87.49-39.75,1.27-59.6.68-17.06,2.22-34.08,3.21-51.13.69-11.88,1.06-23.78,1.71-35.66.16-2.95.96-5.86,1.28-8.81.36-3.35.51-6.73.77-10.09.3-3.81.79-7.61.88-11.42.13-5.28-.16-10.56-.06-15.84.12-6.12.3-12.24.75-18.34,1.45-19.59,2.97-39.17,4.59-58.74,1.47-17.75,6.33-34.26,18.61-47.79,7.52-8.28,16.93-13.68,27.84-15.89,11-2.23,22.14-3.71,34.81-5.78Zm233.09,346.12c8.6,2.2,11.14.4,12.74-9.07.67-3.98,2.2-7.84,2.65-11.83,1.15-10.06,3.06-20.21,2.59-30.23-.91-19.39-6.31-37.94-12.64-56.3-7.95-23.06-17.88-44.95-34.73-62.87-14.62-15.55-32.6-25.84-53.57-30.55-24.91-5.59-50.01-5.36-75.04-1.49-20.2,3.13-38.12,11.67-53.23,25.67-13.49,12.49-24.66,26.77-32.33,43.53-5.81,12.69-11.88,25.36-16.4,38.53-7.91,23.05-10.36,46.91-7.35,71.22.59,4.77,2.19,9.14,7.3,10.14,4.72.92,4.72,3.41,4.62,7.27-.25,9.55-.55,19.18.35,28.67.84,8.83,2.35,17.87,12.14,22.35,1.67.76,2.8,3.69,3.29,5.82.91,3.93.87,8.08,1.75,12.02,2.35,10.56,3.68,21.61,12.2,29.61,4.34,4.07,8.09,3.1,10.1-2.44.34-.93.73-1.85,1.61-4.09,1.29,4.52,2.35,7.7,3.1,10.95,3.6,15.77,10.11,30.33,18.28,44.2,2.14,3.63,4.83,6.71,9.85,4.74,5.22-2.05,4.18-6.29,3.62-10.31-.28-1.98-.86-3.92-1.3-5.88.54-.3,1.08-.59,1.63-.89,1.21,1.4,2.92,2.61,3.54,4.23,3.09,8.14,5.76,16.44,8.85,24.58,1.35,3.56,2.92,7.18,5.13,10.24,3.98,5.52,8.11,1.24,11.83-.92,2.42,5.53,3.74,11.31,7.12,15.38,2.61,3.13,7.72,5.47,11.87,5.71,5.19.31,5.37-5.01,5.72-9.12.14-1.63.19-3.27.41-4.89,1.19-8.49,2.04-17.08,7.03-25.14,1.55,4.87,2.01,9.46,4.36,12.66,1.74,2.37,5.91,3.83,9.03,3.88,1.27.02,3.1-4.62,3.82-7.36.97-3.67.36-7.86,1.72-11.31,5.18-13.17,10.86-26.14,16.42-39.16.24-.57,1.1-.88,1.53-1.2.89,6.18,1.53,12.08,2.66,17.89.76,3.89,1.38,7.9,7.03,8.45,5.4.53,8.85-1.5,10.74-6.08,5.5-13.33,11.01-26.67,15.98-40.19,2.37-6.46,3.56-13.35,5.36-20.37,10.9,8.58,15.31,7.01,17.97-5.95,1.66-8.07,2.84-16.23,4.25-24.47,8.88,4.33,11.52,3.22,13.08-6.46,1.54-9.56,2.22-19.26,3.3-29.16Zm-70.48-280.76c-4.54,2.44-9.78,4.12-13.45,7.5-6.68,6.16-8.26,14.59-7.28,23.48,1.08,9.7,6.35,15.7,15.84,18.73,8.64,2.76,14.88-1.6,19.61-7.46,5.65-7,7.97-15.5,5.59-24.66-2.66-10.21-9.98-16.24-20.31-17.58Zm-122.72,28.49c0,1.49-.2,3.01.03,4.46,1.29,8,5.68,13.58,13.32,16.44,7.5,2.81,13.87.44,19.23-4.86,8.74-8.65,10.06-24.73,3.1-34.84-5.12-7.44-13.86-9.66-21.92-5.63-10.1,5.05-14,13.59-13.77,24.43Zm-81.12,429.87c-12.15-8.42-24.3-16.84-36.78-25.49-3.01,5.69-2.77,9.41,2.67,12.34,6.19,3.34,11.96,7.45,18.13,10.82,5.04,2.75,10.18,6.74,15.98,2.33Zm-4.95-77.7c.04-.44.08-.87.13-1.31-8.11-6.42-16.23-12.84-25.02-19.79.16-3.59-7.25-11.74-14.43-14.22-2.88,5.31-2.12,9.86,2.97,13.26,10.06,6.73,20.18,13.36,30.37,19.88,1.75,1.12,3.97,1.48,5.98,2.19Zm-1.08-272.51l2.03-2.3c-3.68-3.58-7.28-7.23-11.05-10.71-4.03-3.72-8.32-7.16-12.29-10.94-3.44-3.27-6.58-6.86-9.85-10.3-.63.23-1.27.45-1.9.68,1.09,4.69.61,11.29,3.56,13.71,9.13,7.48,19.56,13.37,29.49,19.87Zm1.17,324.76c-6.52-3.23-13.05-5.88-18.93-9.57-5.7-3.57-8.47-11.41-16.95-11.64-1.89,4.27-.2,7.49,3.18,9.82,6.58,4.54,13.33,8.84,20.08,13.13,1.41.89,3.21,1.15,4.7,1.94,3.59,1.89,6.07,1.03,7.93-3.68Zm-5.25-125.62c.35-.75.7-1.49,1.05-2.24-8.45-3.75-9.9-15.91-18.59-16.25-5.74-7.14-10.43-12.96-15.12-18.78-.95.37-1.91.74-2.86,1.11.58,3.78-.14,8.75,2.01,11.09,4.99,5.42,11.23,9.75,17.21,14.17,5.25,3.88,10.85,7.28,16.3,10.89Zm-30.52-161.75c-.42,6.24-.66,12.22,4.66,16.41,6.19,4.88,12.36,9.78,18.52,14.69,2.86,2.29,5.29,2.51,6.72-.49-10.16-10.4-20.03-20.51-29.9-30.61Zm-1.89,223.33c-.73.39-1.46.78-2.19,1.17.32,3.05-.49,7.76,1.14,8.86,8.98,6.06,18.56,11.24,27.93,16.72.61-.88,1.22-1.76,1.82-2.63-8.51-9.29-19.68-15.43-28.71-24.11Zm10.08-320.72c-1.01.22-2.02.45-3.03.67-.42,2.91-2.28,7.07-1.02,8.52,8.73,10.03,18.09,19.53,27.35,29.1.74.77,2.27.78,4.64,1.51-1.27-7.52-8.33-8.23-11.47-12.41-3.31-4.41-6.96-8.62-9.8-13.32-2.67-4.42-4.48-9.35-6.67-14.06Zm27.57,7.02c0-1.1.41-2.57-.06-2.96-4.35-3.58-8.9-6.92-13.3-10.45-1.33-1.07-3.09-2.32-3.44-3.78-1.57-6.53-6.69-9.18-11.79-12.44-2.72,10.82,9.73,23.54,28.59,29.62Zm-4.33,71.94c.63-.62,1.27-1.24,1.9-1.87-.72-1.31-1.17-2.91-2.2-3.87-7.27-6.78-14.58-13.51-22.07-20.03-1.24-1.08-3.48-1.02-5.25-1.49-.15,2.52-1.4,6.46-.28,7.32,9.05,6.97,18.55,13.36,27.91,19.93Zm-21.19-122.25c-3.11,6.8-1.95,10.8,2.41,14.07,8.22,6.16,16.39,12.4,24.92,18.86.64-1.28,1.69-2.75,1.45-3-9.26-9.78-18.64-19.44-28.79-29.93Zm-12.92,239.79c-.84.36-1.68.72-2.52,1.08.7,3.21.31,7.96,2.3,9.37,8.28,5.89,15.44,14.66,27.18,13.85-9.17-8.27-18.06-16.29-26.96-24.31Zm43.57-226.55c0-1.2.17-1.74-.02-1.97-7.88-9.3-19.8-14.88-24.7-26.92-1.64.75-4.54,1.32-4.67,2.28-.26,1.88.64,4.19,1.7,5.94,6.38,10.54,17.33,14.84,27.69,20.68Zm-45.04,158.93c10.76,6.85,21.19,13.48,31.62,20.11.53-.7,1.05-1.39,1.58-2.09-10.06-8.61-20.12-17.21-30.7-26.27-.91,3-1.56,5.15-2.5,8.24Zm2.81,213.21c-.77.38-1.53.76-2.3,1.14.73,2.55.65,6.36,2.33,7.44,8.11,5.25,16.66,9.83,25.16,14.45.74.4,2.26-.63,4.27-1.27-10.47-7.74-19.97-14.75-29.46-21.77Zm21.82-66.84c.63-.83,1.25-1.67,1.88-2.5-2.59-2.44-5.21-4.86-7.78-7.34-1.72-1.66-3.51-3.28-5-5.14-3.89-4.82-7.64-9.76-12.35-15.81-2.12,6.57-2.98,10.76,2.04,14.53,4.92,3.7,9.23,8.2,14.02,12.08,2.13,1.72,4.77,2.8,7.18,4.17Zm10.26-181.25c-8.73-7.28-18.33-15.27-28.04-23.37-3.51,7.56-.32,13.92,8.25,16.95,6.82,2.41,13.76,4.47,19.79,6.42Zm-32.42,44.8c-3.86,6.52-.9,10.23,3.46,13.1,4.25,2.79,8.83,5.08,13.29,7.56,3.37,1.87,6.77,3.69,10.16,5.53-3.86-5.26-8.53-9.01-12.99-13.01-4.67-4.19-9.12-8.62-13.92-13.18Zm26.65,63.84c.31-.64.62-1.29.93-1.93-11.11-6.21-17.69-17.99-30.26-23.01.22,3.49.94,6.97,3.07,8.61,7.15,5.5,14.77,10.39,22.3,15.38,1.07.71,2.63.65,3.97.95Zm-27.72-44.7c-3,6.08-2.95,9,2.2,10.83,3.12,1.11,5.83,3.44,8.63,5.35,4.45,3.03,8.82,6.16,14.15,9.89.21-2.54.94-4.6.34-5.11-8.12-6.94-16.43-13.66-25.32-20.96Zm9.85,132.5c3.34-8.44-1.81-17-10.91-18.79-2.71,10.09-1.39,12.44,10.91,18.79Zm28.73,20.83c.11-.43.23-.87.34-1.3-5.51-5.39-11.01-10.81-16.56-16.16-1.52-1.47-3.06-3.12-4.92-3.97-1.46-.67-3.43-.25-5.17-.32.49,1.65.45,3.94,1.55,4.85,6.62,5.5,13.45,10.77,20.35,15.92,1.1.82,2.93.68,4.42.99Zm-3.43-377.1c.66-.52,1.32-1.05,1.97-1.57-4.59-4.83-9.17-9.66-14.46-15.22-2.69,8.99-.55,11.41,12.48,16.79Zm-18-1.06l-1.55.66c1.09,1.56,1.85,3.63,3.33,4.59,3.9,2.54,8.06,4.7,12.21,6.83,3.56,1.83,7.24,3.42,10.86,5.12.32-.62.64-1.25.96-1.87-8.6-5.11-17.21-10.23-25.81-15.34Zm8.26,169.77c1.14,5.29,2.96,9.8,9.88,8.57-3.29-2.86-6.58-5.71-9.88-8.57Z"/>
      <path class="cls-1" d="m300.98,5.71c.66-1.45,1-3.84,2.04-4.2,11.09-3.84,20.66.04,28.76,7.3,10.02,8.98,19.31,18.77,29.08,28.03,2.12,2.01,4.94,3.29,7.44,4.9.56-.5,1.12-1,1.68-1.49-1.13-2.29-1.84-4.93-3.46-6.79-5.04-5.78-10.61-11.1-15.6-16.92-3.07-3.58-5.48-7.73-8.18-11.62.69-.83,1.38-1.65,2.07-2.48,2.96,1.65,6.36,2.81,8.8,5.03,8.2,7.45,16.04,15.29,24.05,22.95,2.12,2.03,4.26,3.95,6.76.34,2.05-2.96,1.28-4.39-1.7-6.56-5.97-4.34-11.4-9.48-13.06-17.5,9.77,1.86,14.67,8.92,18.21,18.43,2.28-1.38,4.33-2.32,6.01-3.69,18.74-15.32,39.46-23.48,64.24-19.77,10.59,1.58,21.66.16,32.19,1.97,13.71,2.36,27.16,6.34,40.59,10.12,3.67,1.03,6.65,5.08,10.27,5.63,10.71,1.62,17.74,9.66,26.37,14.6,8.96,5.14,16.4,13.31,23.62,20.99,6.84,7.29,12.99,15.36,18.56,23.67,4.03,6.01,6.8,12.9,9.83,19.54,3.04,6.66,6.01,13.38,8.45,20.27,3.27,9.19,5.99,18.57,8.96,27.87,2.7,8.47,5.71,16.86,8.03,25.44,1.63,6.02,2.26,12.31,3.49,18.45,1.32,6.61,2.79,13.2,4.22,19.79,1.96,9.01,4.05,17.99,5.92,27.02,2.61,12.56,5.17,25.14,7.55,37.75,1.13,6,1.71,12.1,2.66,18.14,2.35,14.92,5.66,29.77,6.74,44.79.46,6.45,4.22,14.11-1.52,19.98-12.81-1.54-10.08-12.6-11.58-20.02-3.42-16.85-4.75-34.12-7.73-51.08-3.47-19.73-7.65-39.34-11.77-58.95-3.28-15.58-6.71-31.14-10.55-46.59-1.26-5.06-4.01-9.75-6.47-15.51-1.32,1.85-2.15,3.01-2.98,4.16-.47-.14-.94-.28-1.41-.42.41-2.14.81-4.27,1.22-6.41-.47,0-.94.01-1.41.02,0-1.65.51-3.53-.1-4.91-1.33-2.99-2.71-6.31-5.04-8.41-2.17-1.95-4.34-11.95-2.36-13.91-1.4-2.65-2.72-5.17-4.44-8.42-.68-.46-2.97-1.21-3.85-2.75-4.58-8.06-8.12-16.78-13.28-24.43-11.87-17.6-27.55-30.85-47.7-38.34-10.99-4.08-22.14-7.65-34.04-6.74-7.78.59-15.53,1.73-23.22,3.09-2.37.42-4.46,2.38-6.3,4.85,6.35.42,12.79,1.74,19.02,1.07,15.02-1.6,29.4.78,42.77,7.07,8.11,3.81,16.04,9.09,22.35,15.42,8.3,8.32,16.73,17.41,21.87,27.78,9.82,19.79,19.16,40.06,23.11,62.17,2.99,16.76,6.55,33.45,8.79,50.31,1.92,14.43,2,29.09,3.5,43.59,1.29,12.46,4.11,24.78,5.05,37.26,1.48,19.53,1.95,39.13,2.86,58.7.48,10.35,1.17,20.7,1.42,31.06.42,17.14.71,34.28.77,51.42.04,11.99-.61,23.99-.53,35.99.08,12.4.99,24.81.93,37.21-.04,9.59-1.23,19.18-1.53,28.77-.28,9.16.18,18.35-.15,27.51-.33,9-1.39,17.97-1.86,26.97-.77,14.99-.88,30.03-2.11,44.97-1,12.19-3.3,24.27-4.9,36.41-.68,5.14-1.04,10.33-1.51,15.06,5.97,11.51,6.62,24.04,7.94,38.33-9.89-8.98-5.49-20.94-10.06-29.34-1.88,3.15-3.72,6.24-5.9,9.89.34,5.07.49,11.33,1.26,17.52.61,4.94,1.6,9.91,3.1,14.65,1.94,6.12,4.05,12.31,7.07,17.94,2.11,3.93,5.87,6.98,9.02,10.56-2.06,2.87-6.42,2.31-11.52-1.31-9.27-6.58-13.6-16.27-16.44-26.53-3.53-12.74-7.21-25.66-8.56-38.73-1.09-10.56-.35-21.53,4.74-31.81,2.85-5.74,3.78-12.54,5.01-18.96,3.18-16.61,7.09-33.17,8.82-49.94,3.03-29.36,5.28-58.84,6.65-88.33,1.07-22.91.73-45.91.26-68.85-.56-27.35-1.69-54.69-3.04-82.01-.73-14.84-2.42-29.64-3.76-44.44-.11-1.19-.88-2.31-2.5-3.43-.35,6.79-1.09,13.59-.97,20.37.36,19.27,1.25,38.52,1.62,57.79.29,15.42-.05,30.85.18,46.27.27,17.5,1.78,35.03,1.13,52.48-1.03,27.6-3.19,55.17-5.29,82.72-1.14,14.95-2.28,29.98-4.96,44.7-3.3,18.1-8.15,35.93-12.45,53.85-1.03,4.31-1.24,4.26-6.35,3.4-1.27-15.06,1.14-29.59,4.65-44.23,3.5-14.62,4.93-29.72,7.64-44.54,4.41-24.14,4.28-48.6,5.22-72.96.61-15.92-.21-31.9-.11-47.85.13-19.83.77-39.66.8-59.48.02-14.98-.42-29.97-.96-44.94-.87-23.81-1.65-47.62-3.13-71.39-1.09-17.6-2.74-35.21-5.05-52.7-2.46-18.62-5.19-37.27-9.25-55.59-4.64-20.93-10.84-41.43-21.59-60.38-7.38-13.01-15.32-25.47-25.79-36.13-11.05-11.25-24.72-18.02-39.98-21.63-17.43-4.12-34.96-5.12-52.66-1.79-7.01,1.32-14.09,2.29-21.72,3.51,13.94-11.48,29.71-17.36,46.7-20.99,7.72-1.65,15.36-4.34,22.56-7.62,11.51-5.26,23.24-5.52,35.44-4.06,9.84,1.17,19.76,1.63,31.59,2.56-2.4-1.96-3.27-3.25-4.34-3.45-14.83-2.78-29.25-8.96-44.72-6.7-7.47,1.09-14.76,3.52-22.09,5.53-15.85,4.34-32.02,7.83-47.39,13.49-13.64,5.03-25.76,13.31-35.37,24.74-2.08,2.48-5.11,4.16-7.7,6.21-.57-.39-1.14-.79-1.71-1.18.74-1.88,1.24-3.9,2.26-5.61,7.97-13.31,21.19-20.74,33.27-29.43,2.36-1.69,4.74-3.34,7.12-5.01-.29-.62-.58-1.24-.87-1.86-4.39,1.58-9.13,2.55-13.1,4.86-14.96,8.71-27.38,20.18-37.13,34.67-2.69,4-7.33,6.91-11.57,9.51-1.42.87-5.19-.02-6.53-1.42-6.75-7.03-15.08-10.92-24.17-13.69-22.13-6.74-44.79-10.73-67.86-10.84-13.07-.06-26.21,1.7-39.2,3.54-22.48,3.2-39.85,15.17-52.85,33.44-9.95,13.98-15.06,30.05-19.16,46.58-5.14,20.71-11.21,41.18-16.32,61.9-5.13,20.8-10.07,41.68-14.16,62.71-3.31,17.02-5.65,34.25-7.67,51.48-3.22,27.49-5.82,55.04-8.68,82.57-1.12,10.82-2.75,21.61-3.26,32.46-1.25,26.8-2.14,53.61-2.89,80.43-.5,17.8-.51,35.61-.72,53.42-.21,17.63-.46,35.26-.55,52.89-.04,8.64.34,17.28.28,25.91-.02,2.19-1.01,4.37-1.71,7.19.81.57,2.08,1.46,2.74,1.91-1.84,9.38.1,16.81,5.83,24,1.87,2.34,1.36,7.42.54,10.92-3.75,16-5.49,32.02-2.17,48.29.51,2.47,1.74,4.81,2.17,7.29.23,1.33-.56,2.84-.89,4.26-1.37-.65-3.77-1.06-3.97-1.97-3.53-16.01-10.86-31.09-8.13-48.59,1.35-8.67-2.46-18.14-3.94-27.25-.55.04-1.1.07-1.66.11-.25.73-.85,1.54-.69,2.17,4.44,18.55-2.69,36.7-2.04,55.15.1,2.71,1,8.51-5.65,8.05-4.67-10.1-2.68-20.84-2.66-31.25.04-15.95,1.14-31.9,1.51-47.85.38-16.36-.21-32.77.81-49.09,1.2-19.15,3.77-38.21,5.55-57.33,1.19-12.79,1.81-25.63,3.07-38.42,1.86-18.91,4.08-37.78,6.12-56.67.22-2.03.3-4.07.44-6.11-.64-.16-1.27-.32-1.91-.49-1.57,5.19-3.84,10.29-4.57,15.59-2.78,20.22-4.99,40.51-7.54,60.76-2,15.86-4.68,31.65-6.18,47.56-1.29,13.67-.97,27.48-2.07,41.18-.83,10.25-2.47,20.48-4.33,30.61-1.75,9.52-3.69,19.08-6.57,28.31-5.32,17.09-11.1,34.06-17.36,50.83-1.3,3.48-5.54,5.87-8.42,8.76-.71-.52-1.43-1.04-2.14-1.55.46-2.14.65-4.38,1.41-6.4,10.76-28.61,17.01-58.35,21.43-88.45,1.83-12.47,1.36-25.26,2.68-37.83,1.33-12.57,3.84-25.01,5.38-37.57,1.67-13.68,2.51-27.47,4.26-41.14,2.31-18.07,4.96-36.11,7.82-54.1,3.58-22.61,8.14-45.08,11.15-67.75,4-30.1,6.93-60.34,10.27-90.52,2.41-21.79,3.98-43.71,7.28-65.36,3.3-21.67,7.38-43.32,12.82-64.54,3.86-15.05,10.07-29.57,16.12-43.95,5.15-12.24,10.3-24.81,17.77-35.64,7.22-10.46,16.17-19.83,26.77-27.8,8.88-6.68,18.07-12.03,28.4-14.75,10.6-2.79,21.77-3.38,32.64-5.22,31.28-5.28,60.35,3.63,89.28,13.63,3.58,1.24,7.34,2.07,11.08,2.64,1.1.17,2.84-.91,3.52-1.93.44-.66-.15-2.67-.92-3.36-8.99-8.01-17.18-17.48-27.42-23.35-11.6-6.65-24.95-10.44-37.78-14.73-9.61-3.21-19.69-4.99-29.41-7.92-3.92-1.18-7.24-4.34-11.16-5.54-9.96-3.04-17.92,2.81-26.2,7.49,5.65-.48,11.3-1.2,16.96-1.36,5.4-.16,11.72-1.52,13.67,7.03-11.23,1-22,1.98-32.77,2.91-17.24,1.5-31.89,8.9-44.56,20.22-9.64,8.61-19.52,17.16-27.79,27.01-7.29,8.68-13.52,18.63-18.4,28.88-8.32,17.47-15.67,35.44-22.54,53.55-4.58,12.09-7.89,24.69-11.28,37.19-4.11,15.13-8.61,30.25-11.28,45.66-3.11,17.97-4.5,36.25-6.5,54.41-1.25,11.29-2.27,22.61-3.33,33.93-.11,1.2.21,2.43.28,3.65.3,5.16-2.25,7.72-9.37,7.7,0-10.88-.49-21.82.12-32.71.83-15,2.04-30.02,3.93-44.92,1.47-11.57,3.98-23.03,6.5-34.43,2.75-12.46,5.65-24.92,9.18-37.18,6.93-24.08,13.31-48.42,25.36-70.65,8.06-14.87,15.54-30.19,25.08-44.07,7.14-10.38,16.92-19.01,25.96-27.99,6.25-6.21,12.9-12.12,19.97-17.35,6.12-4.53,12.86-8.38,19.73-11.72,8.15-3.96,17.64-5.76,24.84-10.89,7.34-5.23,14.69-8.07,23.32-9.04,7.4-.83,14.72-2.53,22.13-3.11,6.96-.54,13.99-.12,21.33-.12-.04.24.1-.66.2-1.32,2,.87,3.93,1.7,5.86,2.54,1.29,1.45,2.38,3.17,3.89,4.31,8.12,6.11,16.99,11.38,24.39,18.26,9.3,8.65,17.21,18.77,26.19,27.8,2.71,2.72,6.96,3.91,10.5,5.8.51-.59,1.03-1.17,1.54-1.76-1.17-2.31-1.97-4.91-3.56-6.88-13.02-16.06-26.6-31.63-45.49-41.12-5.53-2.78-11.75-4.17-17.66-6.2Zm205.94,13.2c.04-.67.09-1.33.13-2-.97-.21-1.93-.52-2.91-.61-22.66-2.09-44.78-.45-66.41,7.62-26.48,9.89-46.5,26.97-60.3,51.45-.67,1.18.23,3.24.4,4.89,1.8-.47,4.24-.35,5.3-1.5,4.63-5,8.76-10.46,13.25-15.59,18.31-20.89,42.17-32.24,68.63-38.19,13.73-3.09,27.92-4.11,41.91-6.06Zm-58.8-7.84c-29.8,1.56-52.39,14.75-68.27,39.42,4.43,3.99,6.46.46,8.5-2.04,13.34-16.38,30.89-26.15,50.59-32.7,3.22-1.07,6.13-3.09,9.18-4.67Zm-120.98,26.43c-3.22-10.01-43.6-26.45-55.34-23.13,18.76,7.84,36.31,15.17,55.34,23.13Zm273.71,168.22c-.56.06-1.12.13-1.69.19,3.11,23.88,6.21,47.76,9.32,71.64,2.12-24.52-3.98-48.02-7.63-71.82Zm-461.04-17.58c1.14.34,2.29.68,3.43,1.02,3.07-10.97,6.14-21.95,9.22-32.92-.82-.25-1.63-.5-2.45-.75-3.4,10.89-6.8,21.77-10.2,32.66Zm2.99,4.18c-4.83-.8-7.1,6.47-4.49,17.55,1.79-7,3.14-12.26,4.49-17.55Z"/>
      <path class="cls-1" d="m149.6,760.18c-3.1-4.34-6.69-8.41-9.18-13.07-2.98-5.58-5.95-11.47-7.23-17.58-1.54-7.36-3.4-15.75-1.33-22.52,3.19-10.42-.55-19.43-1.94-28.92-1.28-8.73-4.86-17.21-5.49-25.94-1.32-18.31-1.67-36.72-1.81-55.09-.07-9.34,1.59-18.69,1.73-28.05.16-10.87-.88-21.76-.68-32.63.26-14.01,1.36-28.01,1.9-42.02.75-19.34,1.18-38.69,2.05-58.02.37-8.27,1.58-16.49,2.27-24.75.68-8.13.86-16.31,1.84-24.39,3.73-30.6,7.6-61.18,11.62-91.74,1.54-11.69,3.37-23.36,5.49-34.96,2.31-12.64,5.08-25.19,7.76-37.76.38-1.77,1.34-3.42,3.59-4.96-.19,3.82-.28,7.65-.59,11.47-2.71,33.35-5.5,66.69-8.17,100.05-1.77,22.09-3.78,44.17-4.93,66.29-.96,18.59-.79,37.24-1.17,55.87-.46,22.31-1.18,44.63-1.41,66.94-.17,16.93.59,33.87.35,50.79-.25,17.93-1.76,35.86-1.67,53.78.09,19.5,1.4,39,2.15,58.49.39,10.01.88,20.02.95,30.03.01,1.78-2.22,3.47-2.74,5.38-.83,3.04-2.19,6.54-1.41,9.3,2.74,9.66,6.32,19.09,9.53,28.62.44,1.3.6,2.68.89,4.03-.8.46-1.59.91-2.39,1.37Z"/>
      <path class="cls-1" d="m690.95,771.54c-10.71,4.09-17.43-1.34-23.32-6.43-18.29-15.82-24.2-38-28.48-60.46-2.65-13.89-4.47-28.12-4.73-42.24-.26-14.67,2.07-29.36,2.79-44.07.72-14.86.63-29.76,1.3-44.63.64-14.17,2.07-28.3,2.66-42.48.44-10.66,0-21.34.11-32.02.15-16.12.36-32.24.69-48.36.2-10.15.62-20.3,1.05-30.44.05-1.13.81-2.23,2-5.32,1.78,3.53,3.58,5.5,3.69,7.56,1.11,19.65,1.91,39.32,2.85,58.98.36,7.54,1.04,15.06,1.25,22.6.64,22.83,1.24,45.67,1.62,68.5.24,14.31.84,28.69-.31,42.92-.49,6.11-1.55,12.36-2.03,18.57-.63,7.98-1.61,16.05-1.07,23.99,1.1,16.12,2.56,32.26,4.91,48.23,2.69,18.25,6.88,36.29,17.84,51.68,2.68,3.76,7.37,6.09,11.17,9.04,1.57,1.22,3.22,2.34,6.02,4.37Z"/>
      <path class="cls-1" d="m478.19,708.22c0,18.62-.43,37.26.16,55.86.34,10.69,2.14,21.35,3.7,31.96.43,2.95,3.28,5.64,3.39,8.51.17,4.24.22,9.74-2.2,12.44-2.07,2.31-8.04,2.7-11.68,1.71-10.47-2.84-16.53-10.6-19.23-20.92-2.84-10.88-2.87-21.84-2.1-33.09.88-12.98-.57-26.09-.31-39.13.39-19.99,1.18-39.98,2.19-59.95.33-6.62,3.01-7.85,12.53-7.45,5.93.25,9.53,3.52,9.89,8.82.92,13.72,1.89,27.44,2.85,41.16.27.02.55.04.82.06Z"/>
      <path class="cls-1" d="m315.35,693.53c0,27.95.29,55.9-.18,83.84-.14,8.16-1.9,16.41-3.9,24.37-2.42,9.61-17.92,15.63-26.27,10.81-4.06-2.34-4.75-7.82-2.57-12.08,1.53-3,1.91-6.73,2.24-10.18.84-8.81,1.68-17.64,1.92-26.48.19-7.33-.78-14.69-.7-22.03.11-10.07.47-20.15,1.18-30.2,1.03-14.6,2.28-29.18,3.79-43.73,1.01-9.68,3.14-9.96,12.62-8.06,8.09,1.62,10.18,5.27,9.86,12.85-.3,6.93.88,13.92,1.41,20.89h.61Z"/>
      <path class="cls-1" d="m643.49,396.91c-.99-8.99-2.13-18.37-2.85-27.79-.05-.68,3.35-2.66,4.44-2.23,17.17,6.77,34.21,13.87,51.32,20.82,9.55,3.88,19.16,7.62,28.76,11.39,10.2,4.01,20.51,7.77,30.6,12.04,7.81,3.31,11.19,11.96,8.52,20.29-2.32,7.24-10.77,11.66-18.86,10.23-9.58-1.7-17.15-7.5-25.43-11.89-4.93-2.62-9.95-5.04-14.92-7.58-5.33-2.72-10.55-5.68-15.99-8.17-12.67-5.81-25.4-11.49-38.2-17-1.63-.7-3.82-.1-7.39-.1Z"/>
      <path class="cls-1" d="m763.27,682.94c-4.11.68-8.19,1.75-12.32,1.95-13.44.65-24.88-4.72-35.85-11.93-23.19-15.25-29.78-40.18-37.97-64.2-2.46-7.22-5.07-14.51-6.36-21.98-2.21-12.8-4.17-25.74-4.89-38.69-1.03-18.63-1.26-37.34-1.06-56.01.14-12.5,1.6-24.98,2.5-37.47.32-4.44.51-8.89,1.12-13.29.25-1.83,1.44-3.53,2.71-6.46,1.28,2.48,2.18,3.51,2.33,4.64,1.77,13.34,5.45,26.32,5.06,40.09-.43,15.29.79,30.65,1.72,45.95.9,14.73,1.84,29.5,3.71,44.12,2.58,20.12,6.38,40.08,15.58,58.45,5.18,10.33,9.77,21.25,16.68,30.35,9.92,13.06,24.13,19.89,40.79,20.88,1.24.07,2.51.01,3.72.25.79.16,1.5.73,2.25,1.12.09.74.18,1.47.27,2.21Z"/>
      <path class="cls-1" d="m332.58,61.32c-7.43-1.83-15-3.25-22.27-5.56-19.11-6.08-38.48-6.55-58.07-3.41-11.12,1.78-22.29,3.41-33.29,5.78-18.64,4.01-33.67,14.6-46.41,28.19-12.09,12.9-21.69,27.34-28.8,44-6.24,14.6-12.65,28.82-17.37,44.14-5.35,17.38-9.03,34.91-12.27,52.66-2.71,14.87-5.83,29.68-8.01,44.63-2.51,17.12-4.08,34.38-6.29,51.55-.55,4.29-1.98,8.47-3,12.71-.81-.04-1.63-.08-2.44-.12,0-3.81-.37-7.67.06-11.43,2-17.25,3.58-34.59,6.52-51.69,4.86-28.27,9.78-56.59,16.34-84.49,4.22-17.94,10.97-35.34,17.44-52.66,4.22-11.3,9.15-22.51,15.24-32.89,11.9-20.31,28.32-36.8,48.54-48.76,7.38-4.37,16.63-5.89,25.22-7.85,13.26-3.03,26.6-6.54,40.07-7.55,9.96-.75,20.54.94,30.2,3.74,11.56,3.35,22.45,8.99,33.59,13.75,1.92.82,3.61,2.18,5.41,3.29-.14.66-.27,1.32-.41,1.98Z"/>
      <path class="cls-1" d="m447.53,868.64c1.82-2.21,2.76-3.36,4.35-5.28-25.3,4.13-47.84,16.21-72.94,15.94-2.12-5.15-.16-7.99,3.62-9.29,27.43-9.44,55.27-17.41,84-21.89,1.81-.28,4.17-.38,5.57.52,6.74,4.39,13.58,2.25,20.4.78,12.56-2.7,25.09-5.54,37.63-8.33,3.68-.82,7.33-2.24,11.03-2.39,6.64-.28,13.34.63,19.97.25,10.13-.58,20.22-1.84,30.32-2.81,2.53-.24,5.15-.96,7.56-.54,1.96.35,3.68,2.07,5.51,3.19-1.36,1.51-2.5,4.01-4.12,4.37-10.94,2.43-21.94,4.7-33.01,6.47-13.9,2.23-27.91,3.74-41.81,5.93-9.22,1.45-18.42,3.25-27.49,5.44-8.14,1.97-16.02,5-24.16,6.97-5.91,1.43-12.04,2.14-18.11,2.64-2.32.19-4.76-1.08-8.31-1.98Z"/>
      <path class="cls-1" d="m93.47,364.88c-.23,11.82-.65,23.2-11.75,31.67-14.02,10.7-27.33,22.31-40.93,33.55-4.52,3.73-8.93,7.6-13.48,11.29-8.17,6.62-23.79,2.77-26.75-6.68-2.01-6.41,1.8-11.69,5.85-15.05,10.59-8.81,21.84-16.88,33.27-24.59,11.79-7.96,24.07-15.2,36.2-22.65,5.19-3.19,10.54-6.12,15.81-9.16.6.54,1.19,1.07,1.79,1.61Z"/>
      <path class="cls-1" d="m18.65,682.08c1.67-9.91,2.93-19.91,5.09-29.71,6.54-29.67,14.08-59.13,20-88.92,5.29-26.65,8.91-53.63,13.34-80.45,1.75-10.56,3.37-21.16,5.7-31.6,1.42-6.35,4.09-12.42,6.72-20.15,5.11,10.04,3.32,18.85,2.21,27.15-2.81,21-6.64,41.86-9.99,62.78-2.08,12.99-3.49,26.11-6.13,38.98-3.87,18.83-8.49,37.51-12.94,56.22-3.24,13.63-6.32,27.32-10.25,40.76-2.4,8.23-6.24,16.05-9.52,24.02-.27.66-1.17,1.07-1.78,1.6-.82-.23-1.64-.45-2.46-.68Z"/>
      <path class="cls-1" d="m289.26,849.74c15.24-4.49,29.98-9.08,44.87-13.13,11.43-3.11,23-5.71,34.59-8.16,3.45-.73,7.25-.66,10.73-.05,1.87.33,3.4,2.58,5.09,3.96-1.43,1.42-2.62,3.62-4.32,4.13-10.93,3.31-21.97,6.26-32.97,9.3-9.91,2.74-19.83,5.48-29.76,8.16-7.58,2.04-15.24,3.81-22.77,6.01-6.76,1.98-13.65,3.84-19.99,6.79-5.12,2.38-8.59,2.05-12.05-3.83,3.72-2.6,7.68-5.38,11.65-8.15-.17-.58-.33-1.15-.5-1.73-4.87,1.32-9.81,2.41-14.58,4.01-10.4,3.5-20.64,7.5-31.12,10.73-2.25.69-5.25-1.02-7.9-1.62,1.6-2.1,2.76-5.23,4.87-6.13,11.58-4.97,23.29-9.68,35.16-13.88,5.7-2.02,11.83-2.88,17.82-3.99,8.17-1.52,8.64-1.11,11.19,7.56Z"/>
      <path class="cls-1" d="m667.4,856.73c-9.55,1.23-19.07,2.83-28.66,3.57-7.86.61-16.14,1.67-23.61-.1-11.82-2.79-22.26,1.63-33.08,3.8-17.4,3.48-34.55,8.18-51.87,12.04-3.4.76-7.21.54-10.66-.12-1.47-.28-3.11-2.71-3.5-4.43-.21-.93,1.83-3.13,3.22-3.53,6.07-1.78,12.24-3.24,18.42-4.6,25.63-5.61,51.18-11.65,76.98-16.3,6.07-1.09,12.89-2.93,20.13,1.51,4.65,2.85,12.77.18,19.31-.22,7.15-.44,14.29-1.37,21.44-1.55,2.23-.06,5.13,1.03,6.63,2.63,3.21,3.42,2.07,6.08-2.6,7.04-3.33.68-6.73,1.04-10.11,1.51-.62.09-1.27.01-1.91.01-.05-.42-.1-.84-.15-1.26Z"/>
      <path class="cls-1" d="m587.05,792.86c-11.41-6.11-15.72-15.47-17.26-25.75-2.63-17.63-5.52-35.42-5.69-53.17-.17-16.88,2.86-33.81,4.77-50.68.67-5.92,2.06-11.78,3.35-17.61.7-3.16,1.9-6.21,2.87-9.31.8,0,1.59,0,2.39.01.63,2.39,1.92,4.82,1.79,7.17-.65,11.45-2.01,22.87-2.5,34.33-.61,14.5-.98,29.03-.77,43.53.15,10.83.96,21.7,2.24,32.46,1.36,11.35,3.57,22.6,5.57,33.87.23,1.3,1.48,2.42,3.24,5.14Z"/>
      <path class="cls-1" d="m719.14,720.75c-17.22-2.72-29.68-12.94-38.73-26.23-10.81-15.87-18.95-33.57-21.68-52.83-1.07-7.55,1.11-15.6,2.08-23.38.13-1.05,2.08-2.8,2.85-2.63,1.32.28,2.96,1.61,3.4,2.88.76,2.16,1.04,4.63.91,6.94-.62,10.81,3.09,20.6,6.94,30.33,4.02,10.15,7.88,20.42,12.73,30.19,5.02,10.11,11.96,18.91,21.46,25.53,3.69,2.57,6.71,6.11,10.03,9.2Z"/>
      <path class="cls-1" d="m430.29,842.91c-3.32,2.34-5.02,4.36-7.09,4.89-21.13,5.38-42.34,10.45-63.49,15.76-5.93,1.49-11.67,3.83-17.65,5.05-2.36.48-5.12-1.01-7.69-1.61,1.53-2.53,2.46-6.26,4.69-7.38,6.97-3.49,14.24-6.73,21.75-8.74,17.68-4.72,35.55-8.73,53.38-12.87,2.86-.66,6.07-1.08,8.85-.45,2.16.49,3.92,2.78,7.24,5.34Z"/>
      <path class="cls-1" d="m624.14,181.99c.71.89,1.89,1.71,2.01,2.65.91,7.33,1.29,14.74,2.45,22.02,1.91,11.98,4.44,23.87,6.43,35.84,1.72,10.35,2.95,20.79,4.59,31.15,1.22,7.69,3.3,15.29,4.01,23.01.9,9.78,1.02,19.64,1.06,29.47.04,8.11-.38,16.24-.92,24.34-.13,1.99-1.53,3.9-3.62,5.48-5.33-57.88-10.65-115.77-16.01-173.97Z"/>
      <path class="cls-1" d="m157.7,615.31c2.73,42.12,5.45,84.24,8.18,126.35-.39.38-.79.77-1.18,1.15-4.02-5.42-8.03-10.85-11.13-15.04.32-6.88.94-12.67.79-18.44-.6-23.21-1.68-46.4-2.06-69.61-.12-7.34,1.29-14.72,2.16-22.05.13-1.04,1.23-1.97,1.87-2.95.46.2.91.39,1.37.59Z"/>
      <path class="cls-1" d="m179.83,637.24c4.21,36.83,1.04,74.53,12.95,110.45-.8.41-1.6.82-2.4,1.23-1.89-1.84-4.28-3.38-5.6-5.56-7.45-12.31-10.55-26.06-11-40.17-.6-18.53-.26-37.09,0-55.63.05-3.52,1.6-7.02,2.46-10.53,1.2.07,2.39.14,3.59.21Z"/>
      <path class="cls-1" d="m215,825.32c3.29,2.02,9.02,3.68,9.37,6.12.81,5.56-5.25,5.01-8.91,5.59-20.38,3.23-40.31,8.13-59.74,15.12-2.96,1.07-6.14,1.87-9.25,2.05-1.52.09-3.95-1.2-4.47-2.48-.48-1.17.6-3.91,1.8-4.63,2.81-1.71,6.07-2.71,9.21-3.85,19.92-7.19,39.58-15.39,61.99-17.92Z"/>
      <path class="cls-1" d="m248.64,835.57c1.45,1.23,3.62,3.08,5.8,4.93-2.16,1.49-4.11,3.64-6.5,4.38-14.22,4.41-28.53,8.53-42.84,12.67-6.03,1.74-12.06,3.58-18.22,4.73-1.81.34-4.03-1.51-6.07-2.36,1.03-1.7,1.69-4.36,3.16-4.93,11.98-4.65,24.03-9.16,36.24-13.18,6.42-2.11,13.2-3.18,19.82-4.66,2.29-.51,4.61-.85,8.6-1.58Z"/>
      <path class="cls-1" d="m548.62,654.86c-1.36,27.8-2.71,55.59-4.07,83.28-5.95-1.35-7.87-3.98-8.62-14.6-1.49-20.92.21-41.59,6.05-61.8.77-2.65,2.37-5.06,3.59-7.57,1.02.23,2.03.47,3.05.7Z"/>
      <path class="cls-1" d="m158.67,835.05c-2.51.88-4.63,1.86-6.85,2.36-11.7,2.61-23.49,4.88-35.14,7.7-6.97,1.68-13.66,4.52-20.66,6.02-2.18.47-4.93-1.75-7.42-2.74,1.82-2.09,3.26-5.13,5.55-6.07,5.07-2.07,10.54-3.17,15.89-4.51,11.76-2.95,23.49-6.03,35.34-8.57,4.93-1.06,10.92-2.97,13.28,5.82Z"/>
      <path class="cls-1" d="m201.11,648.06c4.12,25.81,8.24,51.62,12.44,77.89-5.22-.54-6.96-6.05-8.79-10.05-8.97-19.63-9.88-40.39-7.13-61.46.31-2.34,1.5-4.56,2.29-6.84.4.15.8.3,1.2.46Z"/>
      <path class="cls-1" d="m227.55,709.14c-9.75-10.13-12.73-44.2-4.91-52.76,1.22,17.61,7.36,33.98,4.91,52.76Z"/>
      <path class="cls-1" d="m723.39,858.2c-9.86,5.89-20.14,4.46-31.22,5.89,3.83-8.92,11.35-9.18,17.69-10.96,4.83-1.36,9.65-.94,13.52,5.07Z"/>
      <path class="cls-1" d="m490.85,404.19c.02,8.43-.22,16.86.14,25.27.24,5.69,1.31,11.34,2.01,17.01-.53.1-1.05.2-1.58.3-.34-1.31-.36-2.87-1.11-3.88-1.06-1.41-2.66-3.31-4.04-3.32-1.24,0-3.25,2.07-3.61,3.55-1.93,7.87-3.42,15.85-5.13,23.78-.8,3.7-1.76,7.38-3,12.54-1.59-2.68-2.11-4.25-3.18-5.23-2.96-2.7-6.18-3.7-8.11.99-2.69,6.51-5.03,13.17-7.46,19.79-5.47,14.93-10.9,29.88-17.65,44.54,0-6.37.28-12.76-.15-19.09-.16-2.31-1.48-5.34-3.26-6.45-1.12-.7-4.71.99-6.12,2.57-7.58,8.48-15.1,17.03-22.02,26.04-2.61,3.4-3.56,8.09-5.23,12.2-1.79,4.42-3.53,8.87-5.72,14.38-6.68-13.58-5.83-13.29.43-31.83,7.33-21.69,13.72-43.78,19.13-66.03,3.38-13.92,5.53-28.45,5.82-42.75.32-15.75,2.57-31.85-2.48-47.4-.56-1.71-1.23-3.39-1.86-5.08-.7.08-1.39.17-2.09.25,0,15.78.5,31.57-.18,47.32-.44,10.35-2.19,20.69-4.03,30.91-2.53,14.05-5.3,28.08-8.71,41.94-3.71,15.07-8.42,29.89-12.38,44.9-1.21,4.57-1.17,9.46-2.13,14.11-.62,3.03-1.96,5.92-3.05,8.84-4.53,12.06-9.08,24.12-13.84,36.72-.87-1.63-2.14-3.28-2.68-5.14-4.3-14.88-12.17-28.77-10.81-45.21.85-10.23-.03-20.63-.39-30.94-.37-10.76-2.05-21.57-1.35-32.24,1.13-17.17,3.56-34.26,5.78-51.34,2.05-15.78,4.64-31.5,6.77-47.27.34-2.51-.46-5.18-.73-7.77-.76-.09-1.53-.18-2.29-.27-1.46,5.78-3.3,11.49-4.3,17.34-3.54,20.87-7.78,41.7-9.82,62.74-1.46,15.01.07,30.32.5,45.49.39,13.9,1.22,27.79,1.59,41.69.25,9.36.08,18.73.04,28.1,0,2.02-.25,4.04-.39,6.06l-1.78.42c-8.92-23.07-17.84-46.14-26.91-69.59-15.18,5.6-7.14,20.3-11.79,31.34-3.94-15.37-7.67-30.8-11.91-46.1-2.31-8.33-5.37-16.46-8.33-24.59-.41-1.11-2.67-2.65-3.31-2.36-1.75.81-4.09,2.29-4.43,3.88-1.29,6.08-1.88,12.3-2.98,20.24-3.54-12.39-3.94-23.37-2.84-34.82,1.11-11.59.07-23.39,1.11-34.99,1-11.14,3.01-22.26,5.43-33.2,2.52-11.41,5.63-22.74,9.27-33.84,3.61-11.01,8.22-21.7,11.65-32.85-11.87,8.7-16.24,22.02-19.88,34.74-5.55,19.38-8.49,39.49-12.78,59.24-1.8,8.27-4.22,16.4-6.32,24.61-.78,3.03-1.44,6.09-2.21,9.34-6.8-9.69,4.77-80.07,13.8-100.32,14.17-31.76,32.6-60.28,55.94-86.42-2.29,1.21-4.75,2.17-6.83,3.66-14.26,10.2-23.02,24.96-32.65,39.09-11.53,16.9-20.56,34.98-26.69,54.4-2.6,8.22-3.56,16.96-5.32,25.45-.29,1.4-.92,2.74-2.05,5.97-1.52-3.04-2.49-4.96-4.23-8.45-3.8,5.13-6.28,8.48-9.35,12.61.35-4.56.32-8.52,1-12.35,2.96-16.7,5.02-33.67,9.58-49.94,3.6-12.85,9.74-25.13,15.86-37.1,8.97-17.55,20.18-33.45,36.79-45.02,17.26-12.03,36.63-17.57,57.18-18.11,15.94-.42,32.17-.06,47.84,2.53,16.56,2.73,32.26,9.33,44.49,21.75,6.26,6.36,12.5,12.85,17.83,19.96,3.79,5.07,6.4,11.13,8.92,17.02,3.87,9.05,7.86,18.14,10.6,27.57,3.88,13.38,7.29,26.97,9.73,40.68,1.82,10.22,2.02,20.75,2.47,31.17.18,4.07-.95,8.19-3,12.28-1.45-5.38-2.91-10.75-4.73-17.49-4.16,4.57-7.37,8.08-10.56,11.58.45-5.55.98-11.08,1.32-16.62,2.11-34.45-7.2-65.98-25.05-95.09-7.71-12.58-16.49-24.57-29.2-32.76-8.49-5.47-17.65-9.39-28.07-9.58,1.66,1.8,3.69,2.79,5.6,3.96,7.76,4.75,16.75,8.33,22.92,14.65,8.82,9.04,15.74,19.98,23.16,30.34,11.38,15.87,17.81,33.89,21.27,52.9,3.14,17.28,5.43,34.72,8.1,52.09Zm-76.9-127.6c8.18,2.94,13.1,7.01,17.25,16.53,5.79,13.27,10.68,26.92,16.21,40.31.91,2.2,3.13,3.86,4.74,5.77.94-2.21,2.63-4.4,2.69-6.63.53-18.8-5.08-36.04-14.69-51.93-6.69-11.06-16.84-18.05-29.3-21.42-13.96-3.78-28.02-5.7-42.26-1.22-2.84.9-5.83,1.34-8.74,2.03-12.82,3.01-22.92,10.51-30.85,20.5-10.95,13.8-14.01,30.51-15.44,49.27,2.67-1.14,5.56-1.44,6.49-2.95,3.36-5.42,7.18-10.96,8.79-16.99,4.21-15.72,14.56-25.61,28.09-33.03,21.29,15.56,48.02,15.56,57-.24Zm-14.23,112.67c-.76.04-1.53.08-2.29.12-.91,8.71-1.42,17.49-2.81,26.13-3.76,23.37-7.41,46.78-12.02,70-4.74,23.87-10.68,47.5-15.75,71.31-.69,3.24.58,6.9.95,10.37,4.18-10.77,7.31-21.22,9.88-31.79,5.22-21.46,10.86-42.85,14.96-64.53,3.99-21.08,6.59-42.45,9.07-63.78.68-5.79-1.25-11.88-1.99-17.83Zm45.84-31.24c-.51.31-1.02.61-1.54.92-.13.8-.5,1.64-.37,2.39,2.38,13.28,5.53,26.47,7.05,39.84,1.32,11.62,1.45,23.48.91,35.17-.4,8.55-2.66,17.02-4.24,25.5-1.98,10.61-4.16,21.18-6.18,31.78-.63,3.32-1.07,6.67-1.59,10.01.56.21,1.12.42,1.68.64,1.04-1.14,2.62-2.12,3.03-3.46,4.61-15.02,10.62-29.84,13.08-45.23,2.53-15.81,2.93-32.29,1.68-48.27-1.14-14.43-5.64-28.62-9.01-42.83-.56-2.37-2.95-4.32-4.49-6.46Zm-186.93,6.86c.63.23,1.26.46,1.89.68,3.32-8.71,6.55-17.46,9.98-26.12,10.79-27.24,26.52-51.07,49.29-69.82,15.18-12.51,33.7-17.02,52.34-21.11,2.19-.48,4.34-1.16,8.06-2.17-2.39-.68-2.97-.92-3.58-1.01-1.06-.15-2.14-.35-3.19-.28-23.03,1.57-44.63,7.51-62.2,23.22-29,25.94-45.88,58.61-52.6,96.61Zm39.09,118.37c.99-.17,1.99-.34,2.98-.51-11.72-50.14-2.61-97.58,17.29-143.98-3.03,1.06-5.14,2.42-6.2,4.36-10.3,18.85-15.18,39.59-19.72,60.27-5.5,25.04-2.34,50.13,2.59,74.98.35,1.76,2.01,3.27,3.06,4.9Zm137.43-110.11c-.93,25-.26,49.94-3.24,74.44-2.95,24.28-9.58,48.11-14.7,72.64,17.74-18.99,31.98-131.48,17.94-147.08Zm-93.13,160.03c0-2.42.19-4.23-.03-5.98-2.91-23.82-5.7-47.62-1.35-71.61,4.48-24.69,8.75-49.41,13.04-74.14.35-2,.05-4.11.05-6.17-18.21,31.32-27.43,137.03-11.7,157.89Zm-15.37-178.16c-19.05,19.21-30.05,107.16-14.71,138.63.21-21.69-1.3-45.47,1.16-68.82,2.49-23.6,8.92-46.78,13.55-69.8Zm132.79-45.06c7.54,50.34,20.16,100.27,8.8,152.95,19.5-15.63,5.34-122.19-8.8-152.95Zm-76.24,73.05c-.92-.03-1.84-.05-2.77-.08-3.7,39.94-14.14,78.94-15.39,119.34,2.21-3.23,3.88-6.63,4.56-10.21,1.99-10.46,3.76-20.96,5.29-31.5,3.2-21.94,6.32-43.89,9.17-65.88.49-3.79-.54-7.77-.87-11.67Zm-44.97-14.32c-2.32,1.4-2.89,1.53-3,1.84-8.9,25.11-13.89,51.01-14.77,77.59-.46,13.78.05,27.62.68,41.4.27,5.99-1.57,12.71,2.36,16.55.98-21.89.93-44.93,3.35-67.71,2.43-22.89,7.33-45.52,11.39-69.67Zm28.69-5.71c6.73-5.79,16.6-42.38,14.17-51.45-8.62,3.33-18.43,38.13-14.17,51.45Zm4.58-54.73c-12.56,5.52-23.77,45.39-16.12,53.21,6.18-17.22,12.13-34.06,16.12-53.21Zm20.67,4.32c-.9-.22-1.81-.43-2.71-.65-1.13,2.95-2.38,5.86-3.38,8.85-4.11,12.31-.98,24.44,1.02,36.59.41,2.5,1.07,4.97,1.61,7.45,6.93-17.41,5.18-34.83,3.47-52.25Zm35.49,47.95c8.59-10.52,1.08-47.49-10.69-51.51,3.58,17.27,7.05,33.97,10.69,51.51Zm-67.24-54.09c-1.39,0-1.9-.16-2.2.02-10.27,6.25-21.12,31.18-18.6,42.86.18.84,1.04,1.74,1.83,2.14.4.21,1.59-.46,1.98-1.03.82-1.22,1.42-2.61,1.99-3.98,4.56-10.94,9.15-21.87,13.56-32.87.86-2.15.95-4.6,1.44-7.14Zm41.85,58.62c6.92-13.02,5.2-43.66-2.96-52.56-3.15,18.53,1.65,35.46,2.96,52.56Zm6.42-52.45c-.47,16.8,4.5,31.86,5.6,47.87,8.9-4.82,4.74-39.26-5.6-47.87Zm30.24,36.35c7.2-10.4.22-35.32-11.59-38.54,3.98,13.24,7.69,25.56,11.59,38.54Zm-111.02-9.94c.58.29,1.15.57,1.73.86,5.4-9.72,10.9-19.39,16.03-29.25.53-1.02-1.21-3.21-1.9-4.86-1.25.57-3.09.8-3.66,1.77-5.77,9.81-13.56,18.88-12.2,31.48Zm53.04,19.88c.88-4.75,1.75-9.5,2.63-14.25-.75-.14-1.51-.28-2.26-.42-2.89,4.37-1.33,9.57-.36,14.66Z"/>
    </g>
  </g>
</svg>