<?xml version="1.0" encoding="UTF-8"?>
<svg id="Layer_2" data-name="Layer 2" xmlns="http://www.w3.org/2000/svg" viewBox="0 0 995.12 829.18">
  <defs>
    <style>
      .cls-1 {
        fill: #f0f8ff;
        stroke-width: 0px;
      }
    </style>
  </defs>
  <g id="Layer_1-2" data-name="Layer 1">
    <g>
      <g>
        <g>
          <path class="cls-1" d="m376.84,477.57c-.4.22-.8.44-1.2.66.33,1.44.75,2.87.96,4.33.03.21.06.43.09.65,1.15-.2,2.31-.38,3.47-.56-.24-.65-.47-1.3-.72-1.95-.45-1.2-1.71-2.09-2.6-3.12Z"/>
          <path class="cls-1" d="m600.15,400.94c-6.27-7.6-14.17-13.1-22.94-17.41-10.9-5.36-21.9-10.54-32.69-16.1-2.91-1.5-5.56-3.23-8.96-2.88-3.17.33-4.55-1.41-5-4.21-.32-1.95-.7-3.93-.71-5.9-.1-16.35-.1-32.7-.18-49.05-.11-20.31.17-40.63-.52-60.92-.86-25.24-2.28-50.47-3.96-75.67-.75-11.36-2.26-22.71-4.23-33.92-2.12-12.03-7.1-23.24-12.75-33.98-4.18-7.93-9.34-15.35-16.55-21.05-4.86-3.84-9.77-7.62-14.44-11.69-3.6-3.14-7.67-5.05-12.09-6.79-3.48-1.38-5.05-.86-6.24,2.23-2.87,7.45-7.43,13.86-11.65,20.57-9.43,14.97-22.33,25.63-38.11,33.47-4.89,2.43-9.53,5.32-14.09,8.34-18.56,12.3-38.51,21.5-60.07,26.78-26.23,6.42-52.6,12.29-78.91,18.42-5.06,1.18-10.33,1.84-15.11,3.74-16.16,6.41-31.51,14.51-46.28,23.67-3.53,2.19-6.42,5.46-6.69,10.03-.86,14.82-1.64,29.65-2.43,44.47-.83,15.57-1.97,31.13-2.37,46.7-.72,28-.98,56.01-1.44,84.01-.1,0-.2,0-.3,0,0,2.72.05,5.45,0,8.17-.57,28.42,1.18,56.87-1.39,85.26-.49,5.4-.6,10.83-.43,16.25.33,10.43.92,20.86,1.7,31.27.83,11.26,3.54,21.97,10.11,31.45,11.02,15.9,26.76,24.65,44.83,30,2.51.74,3.15-.59,3.28-2.57.35-5.45.5-10.91.98-16.35.3-3.42-1.21-4.87-4.35-5.69-6.23-1.64-12.45-3.4-18.54-5.49-5.38-1.85-10.68-4.01-15.83-6.42-4.6-2.16-7.2-5.94-7.21-11.25,0-5.46-.32-10.93-.11-16.38.39-9.79,3.35-13.33,13.09-14.99,11.22-1.91,22.52-3.35,33.78-5,15.9-2.33,31.79-4.71,47.69-6.98,12.71-1.81,25.43-3.53,38.16-5.23,12.83-1.71,25.72-3.04,38.52-4.92-2.69-4.71-5.13-9.53-7.2-14.5,5.92.78,11.99,1.26,18.27,1.1,3-.08,6.06-.05,9.16.02,1.26,3.26,2.52,6.51,3.77,9.76,2.36-.28,4.73-.55,7.1-.8,0-2.86,0-5.71-.05-8.56,1.02.05,2.04.1,3.07.15-.31,4.09.02,5.62.22,8.05l7-.78c-.32-2.14.06-2.99.17-3.62.23-1.29.6-1.98.88-3.26,1.25.06,2.51.11,3.79.16-.67,2.17-1.41,4.35-2.18,6.53,3.38-.35,6.75-.71,10.12-1.13.56-.07,1.11-.13,1.67-.2.29-.82.55-1.65.72-2.49.18-.89.32-1.8.43-2.71.97-.15,1.92-.35,2.86-.57-.5,2.06-.6,3.63-.28,5.33,2.23-.26,4.47-.52,6.71-.77.24-.61.49-1.22.73-1.82.8-1.96,1.37-4.1,2.2-6.04,2.5-1.14,4.78-2.34,6.78-3.39,7.9-4.18,13.91-10.12,17.69-17.4.16.53.27,1.06.3,1.54.32,4.67.11,9.37.11,14.06,4.97-10.8,8.97-21.8,12.99-32.79,1.79-4.87,3.51-9.77,5.49-14.57,1.42-3.45,3.79-2.72,5.97-.73.79.72,1.17,1.88,2.34,3.85.91-3.81,1.62-6.51,2.21-9.24,1.26-5.84,2.35-11.71,3.77-17.51.27-1.09,1.75-2.62,2.66-2.62,1.02,0,2.2,1.4,2.97,2.44.56.74.57,1.89.82,2.86.39-.07.77-.15,1.16-.22-.51-4.17-1.3-8.33-1.48-12.52-.26-6.18-.09-12.38-.1-18.57,2.34-2.56,4.69-5.14,7.73-8.48,1.34,4.96,2.41,8.92,3.48,12.88,1.51-3.01,2.34-6.04,2.21-9.04-.33-7.67-.48-15.42-1.82-22.95-1.8-10.09-4.3-20.1-7.16-29.95-2.01-6.94-4.96-13.63-7.8-20.3-1.85-4.33-3.77-8.8-6.57-12.53-3.92-5.24-8.52-10.02-13.13-14.7-9-9.15-20.57-14.01-32.76-16.02-11.54-1.9-23.49-2.17-35.22-1.86-15.13.4-29.39,4.47-42.1,13.33-12.23,8.52-20.48,20.23-27.09,33.15-4.5,8.81-9.03,17.85-11.67,27.31-3.35,11.98-4.87,24.47-7.05,36.77-.11.64-.2,1.28-.27,1.94-.19,1.85-1.87,3.21-3.71,2.94-.03,0-.05,0-.08-.01-2.29-.3-4.05-2.17-4.2-4.47-.92-14.06.79-24.55,5.72-38.93,3.33-9.7,7.79-19.02,12.07-28.36,5.65-12.34,13.87-22.85,23.8-32.05,11.13-10.31,24.32-16.6,39.19-18.9,18.43-2.85,36.91-3.02,55.25,1.09,15.44,3.47,28.67,11.04,39.44,22.49,12.41,13.19,19.72,29.31,25.57,46.29,4.66,13.52,8.63,27.18,9.31,41.45.35,7.38-1.06,14.85-1.91,22.26-.34,2.94-1.46,5.78-1.95,8.71-1.18,6.97-3.05,8.3-9.38,6.68-.8,7.29-1.3,14.43-2.43,21.47-1.15,7.13-3.09,7.95-9.63,4.76-1.04,6.07-1.91,12.08-3.13,18.02-1.96,9.54-5.21,10.69-13.23,4.38-1.33,5.17-2.2,10.24-3.95,15-3.21,8.72-6.71,17.33-10.25,25.92-.09.22-.26.63-.29.7,11.32-1.28,22.64-2.59,33.97-3.76,8.85-.92,17.74-1.53,26.61-2.3,4.41-.38,6.13-1.93,5.95-5.55-.72-14.57-1.5-29.13-2.23-43.7-.17-3.49-.56-7.43,3.19-9.19,3.36-1.57,6.08,1.11,8.72,2.89,2.45,1.65,4.75,3.52,7.2,5.17,1.9,1.28,9.12,7.1,10.75,8.62,7.1,6.62,10.83,12.93,21.74,15.13,12.03,2.43,23.97-5.78,25.41-17.98.95-8.1-1.59-15.2-6.71-21.4ZM208.64,199.94c6.55,3.34,12.24,6.25,17.93,9.15-.82.31-1.63.63-2.45.94-16.17-3.23-18.82-4.69-15.48-10.09Zm-.66,8.3c10.67,3.07,21.35,6.15,32.02,9.22-.4.38-.79.75-1.19,1.13-4.5-1.02-9.06-1.98-13.47-3.08-5.14-1.28-10.31-2.58-15.14-4.11-1.84-.58-2.78-1.82-4.13-2.76.64-.13,1.28-.27,1.92-.4Zm-9.47,12.03c12.58,6.3,24.22,12.11,35.71,17.98.29.15-1.01,1.04-1.8,1.8-10.58-3.88-20.72-7.63-30.92-11.33-5.41-1.96-6.85-4.37-2.99-8.46Zm-.94,13.59c6.32,1.96,12.68,3.55,14.62,7.48.43.88,2.62,1.63,4.27,2.27,5.46,2.12,11.09,4.13,16.49,6.28.59.23.08,1.11.08,1.78-23.39-3.66-38.84-11.3-35.46-17.8Zm-.18,14.56c1.25-.13,2.5-.27,3.76-.4,2.71,2.83,4.96,5.8,8.27,8.45,3.52,2.82,8.05,5.35,12.16,8,3.9,2.51,12.65,2.94,14.23,7.46-2.94-.44-4.83-.45-5.76-.91-11.49-5.75-23.09-11.46-33.92-17.49-1.56-.87.75-3.37,1.26-5.12Zm.17,15.94c4.06,2.07,7.96,4.22,12.22,6.19,4.92,2.27,10.25,4.34,15.25,6.58,4.67,2.09,9.14,4.29,13.7,6.43-.84.46-1.68.92-2.52,1.38-12.32-3.91-25.26-7.45-36.58-11.94-3.66-1.45-3.07-5.42-4.42-8.24.78-.14,1.57-.27,2.35-.41Zm40.5,141.08c-.43.45-.87.9-1.3,1.35-6.76-2.17-13.71-4.22-20.22-6.55-7.43-2.66-15.17-5.26-21.35-8.52-2.67-1.4-1.77-4.39-2.49-6.66,1.18-.22,2.37-.45,3.55-.67,5.81,3.5,11.63,7,18.75,11.29,10.78.2,12.59,7.51,23.06,9.77Zm-8.64-31.62c-1.66-.18-3.6-.15-4.92-.57-9.34-3-18.79-5.94-27.66-9.24-2.65-.99-3.54-3.08-3.81-5.18,15.6,3.02,23.75,10.1,37.53,13.83-.38.39-.77.77-1.15,1.16Zm2.05-57.82c-8.58.74-10.84-1.97-12.25-5.15,4.08,1.72,8.17,3.43,12.25,5.15Zm-2.52-19.95c-11.61-3.95-23.39-7.79-34.62-11.98-1.39-.52.16-2.89.34-4.4,2.2.28,4.97.24,6.52.89,9.3,3.92,18.37,7.96,27.38,12.04,1.29.58,1.84,1.54,2.74,2.33-.79.37-1.57.75-2.36,1.12Zm-31.83,109.92c-6.23-2.27-5.17-4.79-2.54-8.73,5.84,3.64,10.49,6.61,15.32,9.5,1.85,1.11,4.07,2.09,6.21,3.09,3.18,1.49,6.43,2.94,9.64,4.41-.78.5-1.55,1-2.33,1.5-2.99-.82-6.27-1.47-8.91-2.51-5.94-2.33-11.29-5.04-17.39-7.26Zm9.99,18.89c-15.26-3.82-16.9-5.23-13.54-11.29,11.3,1.07,17.68,6.22,13.54,11.29Zm8.04-1.29c2.31.51,4.22,1.5,6.11,2.39,6.89,3.22,13.7,6.47,20.54,9.71-.14.26-.28.52-.42.78-1.85-.18-4.11-.1-5.48-.59-8.56-3.1-17.03-6.26-25.25-9.57-1.36-.55-1.31-1.92-1.92-2.92,2.16.04,4.6-.21,6.42.19Zm-19.69-130.81c12.05,4.86,23.95,9.67,34.79,14.04-7.48-1.17-16.09-2.4-24.55-3.86-10.63-1.82-14.59-5.64-10.24-10.19Zm-.88,14.94c12.24,6.07,24.48,12.15,37.08,18.4-1.77,1.8-4.78,1.67-8.34.29-7.64-2.95-15.29-5.9-22.97-8.83-6.6-2.52-6.3-6.11-5.78-9.86Zm2.4,15.26c13.13,5.44,25.61,10.61,38.08,15.79-.65.42-1.31.84-1.96,1.26-12.94-3.99-25.87-7.97-39.22-12.09,1.16-1.86,1.97-3.15,3.1-4.95Zm33.04,27.52c-4.2-1.11-8.42-2.2-12.61-3.32-5.53-1.49-11.21-2.86-16.49-4.54-5.41-1.72-9.07-3.95-4.29-7.87,5.96,2.74,11.48,5.4,17.27,7.92,5.52,2.4,11.32,4.66,16.11,7.82Zm-34.27-3.95c11.03,4.38,21.33,8.42,31.41,12.59.74.31-.16,1.54-.43,3.07-6.61-2.24-12.03-4.13-17.55-5.95-3.48-1.15-6.84-2.55-10.71-3.21-6.39-1.1-6.45-2.85-2.73-6.51Zm.82,24.77c11.03,4.82,22.07,9.64,33.44,14.61-14.56.49-23.45-4.79-33.71-8.33-2.46-.85-1.98-3.7-2.85-5.63,1.04-.22,2.09-.43,3.13-.65Zm-3.49,56.91c8.9,1.49,18.1,6.39,17.9,8.55,10.9,4.18,20.97,8.04,31.03,11.9-.05.26-.11.53-.16.79-2.49-.43-5.25-.64-7.42-1.31-12.64-3.92-25.2-7.9-37.67-11.94-6.32-2.05-7.25-4.78-3.69-7.97Zm-2.14,14.41l2.72-.7c11.19,5.22,25.05,8.91,35.61,14.49-.75.53-1.51,1.05-2.26,1.58-11.63-3.29-23.51-6.4-34.65-10.05-2.02-.66-1.02-3.5-1.42-5.33Zm3,17.44c-2.08-.65-1.98-2.94-2.88-4.47.95-.23,1.9-.46,2.85-.69,11.78,4.22,23.56,8.43,36.55,13.08-2.49.38-4.38,1-5.3.76-10.55-2.78-21.15-5.53-31.21-8.68Zm-2.55,6.59c10.53.14,13.97,4.85,21.03,7,7.3,2.22,15.4,3.81,23.49,5.75-2.3,2.83-5.38,3.35-9.84,2.21-1.85-.47-4.08-.63-5.83-1.16-8.37-2.58-16.74-5.16-24.9-7.89-4.2-1.4-6.29-3.34-3.95-5.9Zm27,26.06c-7.66-2.03-14.82-4.49-22.49-6.5-6.75-1.77-7.05-4-3.31-7.42,15.47,5.2,30.55,10.26,45.62,15.32-7.18,2.65-13.56.26-19.82-1.4Zm18.4-263.76c-12.85-3.51-26.43-6.09-34.35-12.43-1.31-1.05-2.44-2.44-2.11-3.57.17-.58,3.75-.92,5.79-1.37,6.08,7.23,20.86,10.59,30.63,16.18.24.14.03.47.03,1.19Zm207.34,64.95c8.67,2.95,14.2,30.18,7.87,37.92-2.68-12.91-5.23-25.2-7.87-37.92Zm-1.88,84.41c.49-11.59.13-23.23.13-34.84.51-.06,1.03-.12,1.54-.18.46,1.25.96,2.48,1.37,3.74,3.72,11.45,2.06,23.3,1.83,34.9-.07,3.39-.3,6.81-.63,10.21-1.42-1.17-2.9-2.29-4.47-3.28-.23-.14-.46-.27-.69-.41.45-3.37.79-6.76.93-10.14Zm-4.21-81.78c7.61,6.34,10.68,31.69,4.13,35.24-.81-11.78-4.47-22.87-4.13-35.24Zm19.94,109.69c-1.04-1.93-2.21-3.79-3.5-5.56.23-1.58.47-3.15.66-4.74,2.19-18.03,1.69-36.4,2.38-54.8,6.03,6.7,4.98,37.67.46,65.1Zm2.32-82.92c-2.87-9.56-5.6-18.63-8.53-28.38,8.69,2.38,13.84,20.72,8.53,28.38Zm13.59,78.52c-1.81,11.33-6.24,22.24-9.63,33.3-.17.56-.62,1.03-1.12,1.49.83-4.62.9-9.36.24-14.03,1.06-5.38,2.13-10.76,3.13-16.15,1.17-6.24,2.83-12.48,3.12-18.78.4-8.61.3-17.34-.67-25.9-1.12-9.85-3.43-19.55-5.19-29.33-.1-.55.17-1.17.27-1.76.38-.22.75-.45,1.13-.67,1.14,1.58,2.89,3.01,3.31,4.76,2.48,10.46,5.8,20.91,6.64,31.54.93,11.77.63,23.9-1.23,35.54Zm7.99,5.39c8.36-38.78-.93-75.54-6.48-112.61,10.42,22.64,20.84,101.1,6.48,112.61Zm-22.37-149.51c9.36,6.03,15.82,14.86,21.5,24.12,13.14,21.43,20,44.65,18.45,70.01-.25,4-.63,8-.95,12.01-1.95-12.74-3.64-25.53-5.94-38.21-2.54-14-7.28-27.27-15.66-38.95-5.47-7.62-10.56-15.68-17.05-22.34-4.54-4.65-11.16-7.29-16.87-10.79-1.41-.86-2.9-1.59-4.12-2.91,7.67.14,14.42,3.03,20.66,7.06Zm-19.88-.45c9.17,2.48,16.65,7.63,21.57,15.77,7.07,11.7,11.2,24.39,10.81,38.24-.05,1.64-1.29,3.26-1.98,4.88-1.19-1.41-2.82-2.63-3.49-4.25-4.07-9.85-7.67-19.91-11.93-29.68-3.06-7.01-6.68-10.01-12.7-12.17-6.61,11.63-26.29,11.63-41.97.18-9.97,5.46-17.58,12.75-20.68,24.32-1.19,4.44-4,8.52-6.47,12.51-.69,1.11-2.81,1.33-4.78,2.17,1.05-13.82,3.31-26.12,11.37-36.28,5.84-7.36,13.27-12.88,22.71-15.09,2.14-.5,4.34-.83,6.44-1.49,10.49-3.3,20.84-1.89,31.12.9Zm-92.3,74.63c2.68-9.36,5.9-19.17,14.64-25.58-2.53,8.21-5.92,16.08-8.58,24.19-2.68,8.17-4.97,16.51-6.82,24.91-.63,2.83-1.19,5.68-1.72,8.54-1.4-.74-2.77-1.53-4.12-2.36,1.93-9.98,3.82-19.97,6.61-29.7Zm-13.55,25.89c-.85-.37-1.73-.72-2.66-1.01-.59-.19-1.18-.35-1.77-.48.52-1.41.84-2.19,1-2.99,1.3-6.25,2.01-12.68,3.92-18.74,4.51-14.3,11.16-27.61,19.65-40.05,7.09-10.4,13.55-21.27,24.04-28.78,1.53-1.1,3.35-1.81,5.03-2.7-17.18,19.24-30.75,40.24-41.19,63.62-2.71,6.08-5.74,18.3-8.03,31.13Zm18.39,5.62c3.34-15.22,6.94-30.49,14.52-44.37.78-1.43,2.34-2.43,4.56-3.21-7.47,17.41-12.86,35.02-15.22,52.99-1.56-.55-3.08-1.13-4.58-1.76.21-1.22.45-2.44.72-3.66Zm25.46-35.61c-2.96,14.69-6.9,29.48-9.1,44.47-1.79-.36-3.54-.77-5.26-1.21,2.61-19.18,7.84-36.68,14.36-43.26Zm6.32,11.42c.08-.22.5-.33,2.21-1.35-2.09,12.44-4.47,24.32-6.33,36.12-.1-.01-.2-.02-.3-.03-1.45-.15-2.85-.35-4.26-.55,1.83-11.6,4.72-23,8.68-34.18Zm-4.13-22.58c-.42-.21-.85-.42-1.27-.63-1-9.27,4.73-15.95,8.98-23.18.42-.71,1.77-.88,2.69-1.3.51,1.21,1.79,2.83,1.4,3.58-3.77,7.26-7.83,14.38-11.8,21.53Zm21.05-24.6c.22-.14.6-.02,1.62-.02-.36,1.87-.43,3.68-1.06,5.26-3.25,8.1-6.63,16.15-9.98,24.2-.42,1.01-.86,2.03-1.47,2.93-.28.42-1.16.91-1.46.76-.58-.3-1.21-.96-1.35-1.58-1.86-8.6,6.13-26.95,13.69-31.56Zm-3.31,50.69c0,1.52.22,3.07-.03,4.54-1.62,9.35-3.24,18.7-4.88,28.04-1.68-.18-3.34-.35-4.99-.52,2.51-13.48,5.91-25.2,9.9-32.07Zm13.09-49.36c-2.93,14.1-7.32,26.5-11.87,39.17-5.64-5.76,2.62-35.11,11.87-39.17Zm-8.26,66.26c.73-4.31,2.09-8.52,3.16-12.77.56.07,1.12.13,1.68.2.2,1.91.79,3.87.54,5.72-1.08,7.95-2.3,15.88-3.45,23.82-1.61-.19-3.21-.37-4.82-.55.96-5.48,1.96-10.95,2.89-16.43Zm4.89-25.96c-3.13-9.8,4.09-35.43,10.43-37.88,1.79,6.68-5.48,33.61-10.43,37.88Zm12.25-13.51c-.64,3.5-1.29,6.99-1.93,10.49-.71-3.75-1.86-7.58.27-10.8.55.1,1.11.21,1.66.31Zm-2.3,28.2c.68.02,1.36.04,2.04.06.24,2.87,1,5.8.64,8.59-.93,7.19-1.91,14.37-2.91,21.55-1.24-.28-2.49-.53-3.75-.74,1.59-9.78,3.07-19.58,3.98-29.45Zm4.15-45.76c.74-2.2,1.65-4.35,2.49-6.52.67.16,1.33.32,2,.48,1.26,12.83,2.55,25.65-2.55,38.47-.4-1.83-.88-3.64-1.18-5.49-1.47-8.95-3.77-17.88-.75-26.94Zm6.28,69.76c1.02-6.36,1.4-12.82,2.07-19.24.56-.03,1.13-.06,1.69-.09.54,4.38,1.96,8.87,1.46,13.13-.66,5.62-1.32,11.25-2.04,16.87-1.52-.65-3.05-1.26-4.6-1.81.47-2.95.95-5.9,1.42-8.85Zm3.46-75.86c6.01,6.55,7.27,29.11,2.18,38.7-.97-12.59-4.5-25.05-2.18-38.7Zm-64.85-32.54c12.94-11.57,28.83-15.94,45.79-17.1.77-.05,1.57.1,2.35.21.45.06.88.24,2.64.74-2.74.74-4.32,1.25-5.93,1.6-13.73,3.01-27.36,6.33-38.54,15.54-16.76,13.81-28.34,31.35-36.29,51.41-2.53,6.38-4.9,12.82-7.35,19.23-.47-.17-.93-.34-1.4-.5,4.95-27.98,17.38-52.03,38.73-71.13Zm-49.81,99.3c13.73,8.68,45.8,20.88,61.81,22.57,10.1,1.06,20.21,2.02,30.28,3.33,9.72,1.26,18.82,4.63,27.09,9.84,11.85,7.46,19.5,23.94,15,38.84-2.35,7.79-7.56,13.36-14.61,17.09-7.27,3.84-14.72,7.43-21.83,5.96-13.63-.49-25.71-1.52-37.76-1.2-13.52.35-26.47-2.67-39.54-5.06-10.26-1.88-19.98-5.77-28.93-11.14-8.7-5.22-17.7-10.16-24.17-18.38-1.07-1.36-2.27-2.64-3.19-4.1-1.52-2.41-1.19-4.71.86-6.74,1.83-1.81,3.95-1.98,6.16-.95,1.11.52,2.14,1.26,3.07,2.06,25.11,21.58,55.1,29.29,87.28,30.73,11.64.52,23.3.79,34.94,1.33,6.77.31,12.8-1.77,18.19-5.52,6.6-4.59,8.59-14.45,4.51-22.18-3.3-6.27-7.82-11.23-14.96-13.7-8.04-2.78-16.18-4.19-24.61-5.24-15.89-1.97-31.91-2.99-47.31-8.53-8.26-2.97-33.31-13.55-40.11-19.2-1.68-1.4-3.56-3.05-4.28-4.98-.69-1.83-.53-4.42.25-6.26,1.03-2.44,3.76-2.27,5.9-1.58,2.09.67,4.07,1.82,5.94,3Zm42.39-146.64c-8.34-.05-15.19-7.64-15.25-16.9-.06-9.51,6.78-16.4,16.34-16.44,8.87-.04,15.29,6.52,15.3,15.63.01,9.6-7.54,17.76-16.38,17.71Zm109.85-2.14c-8.39-.01-15.11-7.3-14.95-16.2.19-10.09,7.32-18.13,16.05-18.09,8.34.04,15.49,7.79,15.52,16.81.03,9.71-7.37,17.5-16.62,17.49Z"/>
          <path class="cls-1" d="m451.24,474.24c-.83-4.28-1.3-8.62-1.96-13.17-.32.24-.95.46-1.13.89-1.94,4.53-3.89,9.06-5.82,13.59,2.99-.32,5.99-.64,8.98-.96,0,0,0,0,0,0,0,0-.04-.23-.07-.34Z"/>
        </g>
        <path class="cls-1" d="m451.68,42.49c-4.5-14.32-14.02-24.25-27.92-29.77-5.05-2.01-10.41-3.23-15.62-4.83-8.54-2.62-17.07-5.18-26.17-5.12-3.19.02-6.38-.71-9.57-1.15-15.32-2.15-30.73-2.03-46-.36-15.47,1.69-30.73,5.38-46.2,7.06-12.47,1.35-24.26,5.12-36.01,8.74-10.07,3.1-19.53,8.32-28.99,13.15-5.88,3-11.15,7.19-16.89,10.51-11.99,6.94-23.42,14.66-33.28,24.42-6.46,6.39-13.38,12.7-18.25,20.23-.19.29-.36.58-.55.87.75,3.37,1.47,6.74,2.15,10.11,3.32-5.98,8.53-10.53,13.38-15.35,7.97-7.92,17.32-14.09,27.03-19.5,15.58-8.68,31.38-17.05,47.48-24.72,8.45-4.02,17.72-6.31,26.66-9.27,3.57-1.18,6.71-1.82,10.05,1.79,1.92,2.08,6.36,3.12,9.35,2.64,5.47-.86,11.09-.38,16.53-2.77,4.84-2.12,10.54-2.22,15.81-3.41,6.5-1.47,12.92-3.31,19.45-4.66,3.87-.8,7.86-1.01,11.81-1.38,6.09-.58,12.38.03,17.91-3.62,1.1-.73,2.82-.58,4.27-.69.34-.03.91.48,1.02.85.11.37-.1,1.12-.39,1.27-8.29,4.18-15.06,11.07-25.05,12.27-12.77,1.53-25.42,4.01-38.08,6.33-4.85.89-9.55,2.56-14.36,3.71-3.85.92-7.76,1.57-10.81,2.17-2.14-.17-3.41-.1-4.6-.4-13.59-3.46-15.72-3.27-27.88,1.87-9.36,3.96-18.67,8.09-28.22,11.51-15.59,5.58-29.23,14.45-42.27,24.29-6.48,4.89-12.1,10.9-18.25,16.25-3.05,2.66-6.3,5.08-9.55,7.5.53,2.86,1.04,5.72,1.52,8.59,9-8.14,19.4-14.63,28.69-22.44,2.84-2.39,5.66-5,8.92-6.66,11-5.58,21.14-12.88,33.23-16.35,5.69-1.63,11.1-4.26,16.65-6.38,8.1-3.09,16.2-6.19,24.36-9.11,1.12-.4,2.6.22,3.91.37-.57,1.25-.86,2.78-1.78,3.68-1.01,1-2.56,1.47-3.92,2.08-8.8,3.93-17.76,7.56-26.4,11.82-13.33,6.56-26.7,13.11-39.57,20.48-8.24,4.72-6.46,9.83-14.38,15.13-7.16,4.8-17.8,22.16-23.35,28.47.99,6.64-2.83,2.88-2.04,9.55,5.85-7.25,11.61-14.58,19.21-20.15,11.57-8.48,23.3-16.79,35.46-24.39,8.52-5.33,17.71-9.7,26.9-13.83,7.83-3.52,16.06-6.16,24.16-9.06,4.34-1.56,8.77-2.86,13.52-4.39,2.58,1.01,6.53,1.44,7,2.95,1.24,3.94-3.03,4.32-5.54,5.38-16.62,6.98-33.33,13.75-49.91,20.8-4.31,1.83-8.45,4.18-12.37,6.75-10.75,7.07-21.85,13.73-31.86,21.74-9.48,7.58-18.13,15.9-25.32,25.39.56,5.4,1.08,10.81,1.56,16.24.58-1.97,1.31-3.91,2.57-5.26,12.37-13.25,26.15-24.82,41.53-34.57,10.4-6.59,21.31-12.15,32.12-17.94,5.4-2.89,11.3-4.83,16.93-7.31,11.77-5.18,23.46-10.53,35.27-15.62,4.03-1.74,8.23-3.16,12.47-4.26,4.27-1.11,7.75-3.81,11.65-5.57,10.31-4.64,20.75-8.9,31.37-12.7,2.96-1.06,6.25-1.22,9.4-1.67.46-.07,1.01.55,1.78,1-.94.72-1.45,1.25-2.07,1.57-10.29,5.41-20.46,11.08-30.93,16.11-19.21,9.22-38.59,18.05-57.91,27.04-12.1,5.63-24.97,9.66-36.37,16.7-14.96,9.24-22.47,11.23-36.95,21.19-5.62,3.87-12.88,8.17-17.71,17.71-1.2,2.37-5.47,9.98-7.83,11.16-.5.25.84,8.96.39,8.85.27,3.18-1.19,3.33-.94,6.52,11.61-9.75,20.19-27.13,33.29-34.87,16.85-9.96,34.1-19.14,52.97-24.79,2.32-.69,4.86-.7,7.3-.87,7.24-.51,12.48-5.12,18.07-8.88,6.6-4.44,13.74-7.56,21.17-10.26,25.25-9.18,49.46-20.34,70.32-37.74,3.8-3.17,7.88-5.99,11.82-8.98.39-.3.81-.96,1.12-.91,1.57.27,3.24.48,4.56,1.26.34.2-.07,2.82-.85,3.58-5.16,4.99-10.36,9.99-15.85,14.61-19.65,16.5-42.5,27.16-66.33,35.98-6.03,2.23-11.96,4.75-17.99,6.99-1.23.46-2.73.16-4.09.3-1.33.14-2.97-.01-3.89.71-2.1,1.65-3.83,3.76-5.72,5.68,2.87.17,5.82.83,8.6.42,26.14-3.85,50.91-11.61,74.57-23.78,23.67-12.17,42.04-29.61,56.96-51.13,2.63-3.8,3.96-8.48,6.2-12.58,2-3.66,4.31-7.16,6.69-10.59,1.32-1.9,2.87-.89,3.1.73.3,2.08.17,4.39-.41,6.42-4.25,14.85-12.14,27.73-22.41,39.07-13.07,14.43-27.65,27.19-45.12,36.1-22.43,11.43-45.9,19.94-70.92,23.7-.98.15-1.97.36-2.95.38-2.73.05-5.46.02-8.19.02,0,.05,0,.11,0,.16-4.43-.23-8.86-.59-13.3-.67-7.53-.14-14.63,1.71-21.66,4.42-29.83,11.51-56.33,28.18-79.63,49.8.24,3.24-2.54,8.06-2.3,11.32,7.83-6.44,19.38-13.43,27.93-18.89,9.39-5.99,19.47-10.91,29.43-15.97,8.37-4.25,16.68-8.94,25.56-11.74,12.48-3.93,25.35-6.91,38.25-9.18,26.86-4.74,53.42-10.04,78.74-20.83,14.02-5.98,26.97-13.56,39.67-21.71,2.8-1.8,5.64-4.61,6.85-7.61,3.06-7.6,8.62-13.28,13.45-19.53,7.3-9.45,14.59-18.88,18.07-30.57.56-1.88.9-4.57,3.53-3.5,1.25.51,2.04,3.06,2.3,4.8.2,1.31-.69,2.84-1.22,4.21-2.24,5.73-4.29,11.47-7.5,16.86-6.01,10.09-12.87,19.32-21.98,26.81-.68.56-1.15,1.37-1.71,2.06.92-.12,1.92-.04,2.74-.39,1.58-.68,3.18-1.44,4.57-2.44,15.26-11,26.81-24.93,33.19-42.79,1.76-4.93,3.23-10.19,1.61-15.33Z"/>
        <path class="cls-1" d="m641.9,363.34c.38-11.83,1.64-23.72.96-35.49-1.22-21.19,1.12-42.27.84-63.41-.1-7.65.53-15.31.96-22.96.21-3.79.95-4.25,4.7-3.07,3.31,1.04,6.53,2.37,9.83,3.44,2.41.78,2.63,2.13,2.31,4.53-1,7.58-1.7,15.2-2.29,22.83-.62,7.9-1.08,15.82-1.43,23.74-.61,14.02-1.15,28.04-1.59,42.06-.43,13.59-.91,27.19-.98,40.79-.04,8.87-.32,17.88,2.88,26.37,1,2.65,2.78,5.3,4.9,7.16,2.67,2.35,5.23.91,5.59-2.67.07-.74.09-1.5-.02-2.23-3.19-20.46-1.31-40.98-.77-61.49.43-16.23.57-32.46,1.16-48.69.38-10.37,1.39-20.71,2.04-31.07.31-4.94.56-9.9.63-14.85.05-3.43,1.62-4.82,4.99-4.98,12.35-.6,24.71-1.19,37.04-2.11,8.36-.63,16.69-1.76,25.02-2.74,10.79-1.27,21.56-3.49,32.36-3.68,10.39-.18,20.51-2.85,30.94-2.26,3.89.22,7.85-.91,11.78-1.32,15-1.57,30.01-3.04,45-4.68,5.41-.59,10.77-1.56,16.16-2.37,4.27-.64,4.81-.29,5.21,3.89,1.31,13.61.37,27.18-.5,40.77-.47,7.38-.65,14.78-1.08,22.16-.57,9.88-1.3,19.75-1.85,29.63-.27,4.92-.16,9.86-.44,14.78-.49,8.58-1.3,17.14-1.69,25.72-.25,5.61-.02,11.24.03,16.86.1,11.49-2.2,14.47-12.89,18.74-13.51,5.4-27.74,7.19-41.95,9.24-.93.13-1.95-.19-2.89-.43-1.81-.47-4.79,1.39-4.87-2.59-.09-4.1.71-5.65,4.57-6.3,6.85-1.14,13.77-1.86,20.62-3,7.09-1.18,14.14-2.63,21.19-4.01.96-.19,2.42-.38,2.69-.99.84-1.91,1.68-4.05,1.54-6.03-.05-.8-2.7-2.16-4.04-2.02-8.61.89-17.17,2.2-25.76,3.24-5.65.68-11.33,1.13-16.99,1.72-2.82.3-4.13-.8-4.08-3.74.13-8.4.16-16.8.19-25.2.04-10.4.11-20.81,0-31.21-.03-3.2-.35-6.45-.97-9.59-2-10.09-10.6-17.61-20.86-17.65-7.65-.03-15.34.53-22.95,1.37-8.98.99-13.42,5.44-13.87,14.54-.79,16.09-1.03,32.21-1.41,48.32-.17,7.19-.19,14.4-.09,21.59.05,3.44-1.21,4.56-4.74,4.89-15.04,1.39-30.04,3.19-45.05,4.85-2.95.33-5.95.46-8.84,1.06-3.37.7-6.71,1.64-9.96,2.78-2.48.87-3.13,3.01-2.56,5.48.52,2.28,2,3.3,4.33,3.15,1.97-.12,3.97,0,5.92-.27,14.2-1.94,28.38-4.02,42.59-5.89,4.37-.57,8.81-.49,13.19-1,2.86-.33,4.25.8,4.58,3.46.33,2.69,1.13,5.77-2.53,6.81-2.84.81-5.81,1.37-8.75,1.57-17.03,1.17-34.06,2.23-51.1,3.27-12.25.75-24.16-1.74-36-4.35-5.79-1.28-10.63-8.96-10.62-15.43.01-10.36,0-20.73,0-31.09-.1,0-.21,0-.31,0Z"/>
        <path class="cls-1" d="m502.83,535.9c9.81-1.6,20.1-3.16,30.33-5.03,3.31-.61,5.78-.03,8.93,1.48,10.11,4.83,20.85,8.5,32.27,6.53,13.88-2.39,27.56-5.88,41.44-8.22,7.51-1.27,15.25-1.41,22.9-1.55,7.9-.14,15.81.31,23.71.62.79.03,1.55.88,2.32,1.35-.67.59-1.27,1.58-2.01,1.69-12.2,1.95-24.41,3.76-36.62,5.65-4.65.72-9.26,1.66-13.92,2.33-14.43,2.09-28.89,3.97-43.3,6.17-10.2,1.55-20.33,3.6-30.53,5.17-6.09.94-12.27,1.3-18.4,2.05-9.09,1.11-18.17,2.31-27.25,3.52-13.2,1.76-26.41,3.46-39.59,5.37-7.79,1.13-15.52,2.63-23.28,3.92-1.21.2-2.52.47-3.67.21-13.67-3.12-27.3-6.42-40.98-9.5-4.32-.97-8.79-1.29-13.14-2.16-6.06-1.22-12.07-2.7-18.11-4.02-13.05-2.86-26.13-5.61-39.17-8.54-13.04-2.93-26.07-5.94-39.06-9.07-17.32-4.18-34.6-8.52-51.9-12.77-.96-.24-2.09-.04-2.91-.48-1.48-.77-2.79-1.87-4.17-2.83,1.57-.6,3.09-1.49,4.72-1.74,14.67-2.29,29.33-4.65,44.04-6.61,12.02-1.6,24.14-2.42,36.15-4.03,14.23-1.91,28.38-4.43,42.6-6.42,11.73-1.63,23.52-2.8,35.27-4.3,10.57-1.35,21.23-2.34,31.64-4.48,10.85-2.24,21.7-1.25,32.55-1.51,5.24-.12,10.17-.88,15.29-2.15,9.59-2.39,19.44-3.91,29.27-5.08,13.53-1.61,27.17-2.32,40.7-3.89,8.1-.94,16.08-2.85,24.14-4.16,6.6-1.07,13.22-2,19.86-2.82,22.86-2.84,45.74-5.5,68.58-8.49,6.35-.83,12.52-2.94,18.86-3.86,9.56-1.4,19.21-2.21,28.8-3.37,9.34-1.13,18.66-2.49,28-3.58,7.86-.92,15.75-1.6,23.63-2.36.49-.05.99.02,1.48.07,9.53,1.04,11.43,3.4,10.56,12.91-.4,4.44-.94,8.9-.9,13.35.03,3.7-1.58,5.45-4.97,6.19-6.3,1.38-12.6,2.75-18.85,4.33-4.31,1.09-8.53,2.54-12.78,3.85-2.71.84-4.07,2.69-4.04,5.54.02,1.98-.05,3.98.14,5.95.66,6.93,2.34,9.19,9.39,10.42,8.64,1.5,17.32,2.52,26.13,3.16,15.49,1.13,30.16-2.44,45.03-5.1,4.57-.82,9.09-2.57,13.29-4.6,4.74-2.29,6.02-7.06,6.32-11.91.39-6.43.45-12.88.71-19.32.63-15.56-.38-14.13,13.08-12.96,2.71.24,5.47.14,8.16.52,12.99,1.8,25.98,3.68,38.95,5.6,16.63,2.45,33.25,5.02,49.89,7.43,12.48,1.81,24.98,3.53,37.49,5.13,6.58.84,13.2,1.27,19.79,2.03.76.09,1.42,1.07,2.12,1.64-.54.46-1,1.13-1.62,1.33-1.16.37-2.4.51-3.62.68-17.38,2.4-34.79,4.58-52.13,7.24-14.6,2.24-29.13,4.97-43.68,7.59-10.39,1.87-20.72,4.06-31.12,5.81-11.19,1.88-22.59,2.73-33.62,5.26-17.39,3.99-34.95,6.47-52.62,8.49-11.22,1.28-22.41,2.95-33.6,4.46-3.64.49-7.29.95-10.91,1.54-16.62,2.68-32.98.02-49.42-2.11-17.95-2.33-36.02-3.81-54.02-.5-9.98,1.84-19.79,4.63-29.76,6.54-7.77,1.49-15.67,2.92-23.62.98-1.91-.47-3.8-1.08-5.64-1.79-.55-.21-.88-.98-1.32-1.5.62-.27,1.21-.68,1.86-.78,13.2-2.15,26.43-4.13,39.6-6.41,24.42-4.24,48.83-8.58,73.22-13.03,9.51-1.73,18.97-3.72,28.4-5.84,10.03-2.26,12.72-6.09,11.93-16.3-.12-1.48-.47-2.95-.56-4.43-.26-4.6-2.71-7.34-7.09-8.39-10.11-2.42-20.2-4.99-30.37-7.12-8.02-1.68-15.95-2.33-24.23.08-5.55,1.61-11.8.77-17.73,1.12-2.22.13-4.48.3-6.64.81-4.57,1.08-5.17,3.1-2.24,6.63,2.16,2.6,4.92,3.19,8.05,2.52,5.57-1.2,11.26-2.05,16.64-3.81,4.9-1.61,9.73-2.04,14.66-1.26,8.32,1.31,16.59,2.92,24.87,4.44.71.13,1.38.49,2.07.74-.71.6-1.35,1.58-2.16,1.75-7.75,1.63-15.51,3.19-23.3,4.65-10.23,1.92-20.45,3.88-30.72,5.53-8.8,1.42-17.67,2.39-26.5,3.63-4.17.58-8.31,1.31-12.46,2.01-13.65,2.3-27.29,4.6-40.93,6.91-13.16,2.23-26.33,4.41-39.47,6.73-2.17.38-4.19,1.58-6.36,2.01-1.85.37-3.89.59-5.7.19-15.48-3.42-30.93-7-46.39-10.53-3.38-.77-6.8-1.39-10.13-2.36-2.05-.6-3.94-1.72-5.9-2.61,1.62-.55,3.25-1.05,4.83-1.67.39-.16.63-.71.94-1.08-.54-.32-1.1-.94-1.62-.91-4.67.29-9.32.82-14,1.03-3.15.14-5.1,1.83-6.43,4.35-3.38,6.41-1.89,13.27-.37,19.57,1.06,4.38,6.19,6.43,10.59,7.35,11.85,2.49,23.81,4.47,35.7,6.77,6.56,1.27,13.04,2.94,19.6,4.16,5.11.95,10.3,1.47,16.04,2.27Zm62.71-51.51c4.46-1.28,8.94-2.5,13.37-3.87,1.97-.61,4.07-1.78,3.18-4.13-.46-1.2-2.71-2.66-3.93-2.48-8.05,1.18-16.05,2.73-24.03,4.3-.79.15-2.07,1.37-1.96,1.8.25,1.01,1.09,2.5,1.91,2.65,3.85.74,7.77,1.1,11.66,1.6-.65.33-1.33.63-1.96,1-.94.56-1.86,1.18-2.78,1.77.62.71,1.14,1.53,1.86,2.11,4.47,3.55,9.6,3.22,14.81,2.46,1.62-.24,3.43-.8,4.87-.34,5.13,1.66,9.74-.25,14.38-1.74,1.19-.38,3.07-2.09,2.89-2.61-.48-1.44-1.69-3.38-2.94-3.66-2.82-.64-6.1-1.22-8.72-.38-7.49,2.4-15.09.94-22.61,1.52Zm-187.3,22.69c-11.67-.55-22.74,2.17-32.89,8.68-5.2,3.33-8.1,7.74-8.64,13.94-.61,7.01.58,8.65,7.4,10.31,6.73,1.63,13.36,3.66,20.02,5.53,7.85,2.2,15.63,4.68,23.56,6.58,9.23,2.21,18.31.27,27.09-2.5,7-2.21,9.57-7.61,7.39-14.69-.93-3.02-2.53-5.97-4.38-8.56-9.59-13.44-22.17-21.03-39.56-19.29Zm145.14-19.8c.01-.06.03-.13.04-.19,3.16.62,6.29,1.43,9.47,1.8,3.33.39,6.8-.04,6.87,5.05.01.94,2.48,2.41,3.96,2.64,3.4.54,6.93.84,10.33.52,2.94-.28,7.55.17,7.59-3.98.04-3.79-4.16-4.64-7.39-4.69-3.89-.06-5.4-1.57-5.07-5.38.21-2.46-.43-4.59-3.58-4.31-6.88.6-13.78,1.15-20.64,1.97-8.82,1.05-17.61,2.32-26.41,3.51-1.46.2-3.69-.08-4.25.74-2.77,4.1-6.17,2.54-9.7,1.78-1.59-.34-3.36-.06-5.02.14-4.17.51-8.33,1.1-12.48,1.73-2.2.33-4.48.53-6.53,1.3-1.51.57-2.69,1.99-4.02,3.03,1.27.93,2.43,2.26,3.85,2.69,2.29.69,4.76,1.03,7.17,1.08,2.71.05,5.43-.56,8.15-.53.87,0,2.52,1.24,2.45,1.7-.52,3.31,1.84,2.88,3.7,3.15,2.92.43,5.84.94,8.78,1.22,6.89.65,13.78,1.32,20.69,1.67,2.68.13,5.43-.43,8.08-1.02.86-.19,2.27-1.86,2.12-2.14-1.88-3.44.24-3.07,2.4-2.65,1.46.28,2.88.82,4.34.99,2.11.25,4.81,1.32,5.93-1.27,1.13-2.62-.63-4.96-2.74-6.3-1.77-1.12-4.04-1.52-6.14-2.04-1.4-.35-2.9-.29-4.33-.55-.31-.06-.69-.72-.7-1.11,0-.29.54-.81.86-.83.73-.04,1.47.17,2.2.28Zm82.16-18.14l-3.2.16s-7.17.66-11.27,1.44c-3.16.61-3.93,2.88-1.87,5.35,1.02,1.23,2.62,2.36,4.14,2.71,2.85.67,5.88,1.16,8.77.94,3.36-.26,5.09-.17,3.77,3.97-.25.78,1.9,3.35,2.98,3.37,5.38.12,10.79-.14,16.13-.76,1.13-.13,2.83-2.37,2.78-3.59-.04-1.12-1.96-2.92-3.25-3.1-3.38-.48-6.86-.24-10.3-.31-1.21-.02-2.43-.11-3.64-.17.66-.92,1.4-1.8,1.98-2.77,2.19-3.69,1.07-6.28-3.08-6.84-1.94-.26-3.93-.43-3.93-.43Zm35.94,13.58c7.9-.99,15.02-1.8,22.11-2.84,1.64-.24,3.31-1.05,4.72-1.97,1.71-1.12,1.33-3.77-.59-3.96-5.62-.54-11.29-1.06-16.92-.9-3.84.11-7.67,1.26-11.44,2.22-1.77.45-3.38,1.53-5.07,2.33,1.46,1.5,2.79,3.18,4.44,4.43.88.67,2.32.6,2.75.69Z"/>
        <path class="cls-1" d="m590.31,699.48c-.16,8.19-1.79,15.43-5.23,22.13-4.44,8.63-13.39,14.84-25.33,12.49-7.53-1.48-14.3-4.57-19.49-10.07-5.08-5.38-9.87-11.19-13.89-17.39-6.44-9.95-11.81-20.58-18.25-30.53-5.1-7.87-11.14-15.13-16.72-22.69-2.94-3.98-6.03-7.89-8.62-12.09-7.53-12.24-14.57-24.79-25.15-34.87-2.98-2.84-2.15-5.36,2.16-6.22,6.3-1.26,12.74-1.81,19.12-2.68,10.99-1.49,21.99-2.9,32.95-4.53,5.62-.83,11.21-1.93,16.76-3.18,2.43-.55,3.66.65,5.09,2.1,15.97,16.1,29.85,33.69,40.53,53.85,8.34,15.75,13.93,32.19,15.71,49.92.15,1.46.29,2.93.37,3.77Z"/>
        <path class="cls-1" d="m433.38,584.09c0-.99.09-2-.02-2.97-.31-2.69.68-4.14,3.5-4.57,7.84-1.2,15.63-2.67,23.47-3.86,12.93-1.97,25.87-3.92,38.84-5.68,12.71-1.73,25.46-3.18,38.18-4.83,8.11-1.05,16.21-2.22,24.31-3.39,15.91-2.31,31.82-4.57,47.71-7.04,10.5-1.63,20.94-3.64,31.43-5.37,4.88-.8,9.81-1.28,14.71-2.01,13.95-2.08,27.85-4.46,41.83-6.27,12.77-1.65,25.65-2.42,38.42-4.07,18.65-2.4,37.25-5.15,55.85-7.93,10.52-1.58,20.99-3.48,31.46-5.34,2.92-.52,5.74-1.61,8.66-2.12,10.69-1.86,21.4-3.63,32.1-5.37,21.99-3.58,44.09-6.57,65.94-10.86,16.3-3.2,32.74-5.12,49.12-7.64,3.91-.6,7.77-1.58,11.64-2.46,2.82-.64,4.36.4,4.38,3.31.09,13.18,2.56,13.14-12.31,15.15-6.98.95-13.96,1.9-20.95,2.76-12.92,1.59-25.88,2.96-38.77,4.73-8.08,1.11-16.08,2.86-24.13,4.22-15.34,2.6-30.69,5.19-46.05,7.66-10.71,1.72-21.49,2.97-32.16,4.91-5.76,1.05-11.33,3.09-16.99,4.69-.95.27-1.98.97-2.82.79-11.57-2.51-22.02,4.51-33.35,3.87-12.47,4.47-25.82,3.28-38.63,6.07-11.48,2.49-23.44,2.76-35.17,4.14-7.55.89-15.08,1.64-22.54,3.54-7.15,1.82-14.68,2.08-22,3.25-15.06,2.41-30.1,4.97-45.15,7.46-9.24,1.53-18.46,3.24-27.74,4.54-7.82,1.09-15.71,1.66-23.56,2.54-13.73,1.54-27.56,2.52-41.14,4.9-16,2.81-32.11,4.46-48.18,6.6-8.48,1.13-16.79,3.64-25.12,5.77-2.59.66-3.96-.2-4.41-2.44-.44-2.16-.34-4.43-.48-6.66.04,0,.08,0,.12,0Z"/>
        <path class="cls-1" d="m909.49,740.18c.33-15.98.78-31.96.96-47.94.1-8.62-.33-17.25-.42-25.88-.12-12.39-.07-24.78-.26-37.17-.11-7.55-.71-15.1-.74-22.66-.02-4.09.73-8.18,1.04-12.28.22-2.93.24-5.87.42-8.8.26-4.15.57-8.3.88-12.44.11-1.47.85-3.16.35-4.36-3.26-7.8,2.65-11.95,7.48-14.02,5.92-2.54,9.75-7.37,15.15-10.17,1.22-.63,2.6-.95,3.91-1.41.42,1.35,1.25,2.71,1.21,4.05-.36,10.89-1.06,21.76-1.34,32.65-.67,26.49-1.13,52.98-1.74,79.47-.1,4.2-.63,8.39-.76,12.59-.25,8.35-.61,16.72-.47,25.07.19,10.6.91,21.2,1.26,31.8.27,7.92.22,15.85.49,23.78.25,7.12-2.91,10.75-10.39,11.41-1.72.15-3.47.16-5.19.04-8.6-.57-12.09-4.55-11.69-13.31.16-3.47.42-6.93.63-10.4-.26,0-.52-.01-.78-.02Z"/>
        <path class="cls-1" d="m405.51,613.63c-.27,14.13-.78,28.25-.73,42.38.05,13.85.7,27.7,1.03,41.56.02.84-.43,1.69-.66,2.54-.57-.73-1.34-1.38-1.69-2.21-5.91-13.68-11.94-27.34-21.15-39.18-14.89-19.14-31.97-35.75-54.06-46.79-11.62-5.8-23.14-11.39-36.2-12.9-2.52-.29-3.44-1.52-3.41-3.87.07-4.96.1-9.92.13-14.89.02-2.96,1.72-4.05,4.36-3.55,5.11.96,10.17,2.14,15.26,3.21,18.16,3.82,36.33,7.55,54.47,11.46,11.85,2.55,23.66,5.32,35.48,8.03,7.68,1.76,7.68,1.8,7.63,9.75,0,1.49,0,2.98,0,4.47-.15,0-.31,0-.46,0Z"/>
        <path class="cls-1" d="m430.14,828.66c-.8,0-2.31.17-3.77-.03-8.8-1.2-11.42-4.62-10.88-13.46.21-3.41-.19-6.85-.22-10.28-.08-7.61-.05-15.21-.19-22.82-.1-5.6-.6-11.19-.55-16.79.05-4.89.81-9.77.91-14.66.28-13.3.18-26.62.61-39.91.36-11.28,1.45-22.53,1.82-33.81.32-9.63.08-19.29.09-28.93,0-2.23.11-4.47.04-6.69-.13-3.95,1.65-6.05,5.32-7.86,4.36-2.15,8.07-5.62,12.03-8.55,1.69-1.25,1.56-2.72.93-4.61-.2-.61,1.41-2.3,2.5-2.76,2.16-.92,1.38,1.2,1.64,2.09,2.33,7.83-.16,15.61-.33,23.42-.24,10.87-.63,21.74-1.03,32.6-.55,14.53.03,29.07-.41,43.61-.22,7.34.78,14.72,1.2,22.08.24,4.18.97,8.42.54,12.54-.92,8.85,2.32,17.49.41,26.49-1.03,4.87.72,10.28.83,15.45.17,8.43.07,16.87,0,25.31-.05,6.07-1.89,7.93-7.85,8.09-.98.03-1.96-.27-3.64-.52Z"/>
        <path class="cls-1" d="m250.07,778.9c.48-13.09,1.01-26.18,1.38-39.27.09-3.19-.31-6.4-.53-9.6-.09-1.23-.48-2.45-.46-3.67.19-9.33.53-18.67.67-28,.33-22.02.5-44.04.89-66.06.22-12.2.65-24.39,1.23-36.58.22-4.55.77-5,4.83-3.56,5.81,2.07,9.48-1.62,13.4-4.39,2.93-2.07,2.33-3.7-1.47-5.2-.61-.24-1.2-.53-1.8-.79.45-.17.9-.39,1.37-.5,5.08-1.13,6.85.51,6.53,5.75-.44,7.15-.92,14.31-1.02,21.46-.16,11.88-.68,23.81.12,35.64,1.29,19.3-.89,38.51-.37,57.76.5,18.58.68,37.14.02,55.73-.27,7.62.47,15.29.96,22.92.52,8-1.28,10.21-9.34,10.79-1.23.09-2.48.05-3.72,0-8.36-.37-11.71-3.89-12.67-12.43Z"/>
        <path class="cls-1" d="m799.71,326.08c.3,12.81.83,25.62.85,38.43.01,11.13-.77,22.26-.8,33.39-.03,10.62.63,21.23.67,31.85.04,12.06-.25,24.11-.42,36.17-.1,6.91-.1,13.82-.42,20.71-.46,9.77.36,8.75-8.51,10.96-6.68,1.66-13.54,2.65-20.32,3.88-.38.07-1.05-.24-1.23-.57-.16-.29.05-1.01.33-1.26,6.19-5.37,7.26-12.62,7.56-20.19.41-10.16,1.3-20.31,1.26-30.46-.1-26.18-.75-52.36-.88-78.54-.07-13.57.59-27.14.72-40.71.05-5.43-.24-10.89-.71-16.31-.25-2.87.66-4.24,3.46-4.43,2.97-.2,5.94-.46,8.91-.59,6.22-.26,7.88,1,8.88,7.3.54,3.4.53,6.9.76,10.35-.04,0-.08.01-.11.02Z"/>
        <path class="cls-1" d="m713.84,578.1c-.55,10.17-1.28,19.2-1.45,28.24-.17,9.62.27,19.25.29,28.88,0,4.2-.56,8.4-.54,12.59.04,6.67.4,13.35.56,20.02.42,17.55.88,35.1,1.16,52.66.1,6.57-1.24,7.78-7.73,7.97-2.22.07-4.46-.11-6.68-.25-7.04-.45-9.35-4.14-9.3-10.93.15-19.17.7-38.34,1.12-57.51.2-9.13.67-18.26.67-27.39,0-8.14-.56-16.27-.71-24.41-.09-5.13.07-10.26.23-15.38.02-.63.79-1.81,1.07-1.76,4.35.64,6.01-3.7,9.38-5.05,3.25-1.3,5.87-4.3,8.59-6.75,1.72-1.55,1.95-3.38-.16-5.02-.39-.3-.54-.92-.81-1.4.73,0,1.97-.25,2.1.03.96,2.02,1.7,4.14,2.21,5.46Z"/>
        <path class="cls-1" d="m206.68,532.47c0-.74-.02-1.49,0-2.23.07-2.4.71-3.66,3.64-2.8,8.55,2.5,17.15,4.81,25.78,7.02,2.56.65,5.29.66,7.93,1.03,1.2.17,2.61.19,3.53.83,3.76,2.61,7.97,3.18,12.37,4.12,13.45,2.88,26.65,6.88,40.03,10.15,10.52,2.57,21.18,4.61,31.73,7.06,17.29,4.02,34.53,8.26,51.83,12.25,4.56,1.05,9.25,1.5,13.89,2.21,1.95.3,3.93.46,5.85.89,4.55,1.03,9.04,2.35,13.62,3.24,4.81.93,5.14,1.08,5.52,6.09.08.99.1,1.98.06,2.97-.19,4.44-1.07,5.47-5.31,4.97-4.66-.55-9.3-1.43-13.88-2.48-15.91-3.63-31.77-7.49-47.69-11.09-19.27-4.36-38.58-8.57-57.89-12.8-14.38-3.15-28.81-6.09-43.16-9.38-6.89-1.58-13.55-4.46-20.5-5.49-6.72-1-12.78-3.55-19.07-5.62-7.36-2.42-8.24-3.51-8.28-10.95Z"/>
        <path class="cls-1" d="m452.41,731.03c-.33-8.78-1-17.55-.92-26.33.19-20.7.71-41.4,1.16-62.1.12-5.44.46-10.87.79-16.3.04-.67.6-1.31.91-1.96.79.41,1.94.6,2.3,1.25,4.02,7.1,8.2,14.14,11.8,21.46,7.96,16.19,12.51,33.33,13.39,51.42.34,7.01-.57,13.84-2.39,20.55-2.75,10.12-9.6,16.56-19.11,20.32-6.48,2.56-7.97,1.48-8.11-5.33-.02-.99,0-1.98,0-2.97.06,0,.11,0,.17,0Z"/>
        <path class="cls-1" d="m321.17,693.52c0,13.31-.04,26.63.02,39.94.02,3.84,2.4,6.29,5.33,8.43,5.7,4.18,7.09,9.35,5.28,16.91-1.54,6.46-6.37,8.86-11.98,9.33-7.66.64-14.79-.91-19.44-8.19-4.12-6.45-3.34-14,3.04-18.32,3.67-2.49,3.34-4.61,2.76-8.53-1.33-8.95-1.62-18.1-1.82-27.18-.19-8.87.21-17.75.47-26.63.15-5.33.72-10.66.72-15.99,0-2.47.67-3.04,2.98-2.69,2.61.4,5.3.84,7.9.61,3.3-.3,4.53.9,4.52,4.06-.05,9.41-.02,18.82-.02,28.23.08,0,.16,0,.24,0Z"/>
        <path class="cls-1" d="m844.8,218.44c-11.51.97-20.3,1.63-29.07,2.49-5.9.58-11.74,1.69-17.65,2.15-18.48,1.43-37,2.36-55.44,4.06-21.43,1.98-42.79,4.58-64.19,6.9-7.01,4.07-13.34.61-19.7-1.89-1.98-.78-3.75-2.05-5.62-3.1,1.94-.79,3.82-2.07,5.82-2.3,14.5-1.7,29.03-3.11,43.54-4.77,9.33-1.06,18.61-2.53,27.94-3.54,9.36-1.02,18.75-1.69,28.13-2.52,22.91-2.02,45.84-3.74,68.7-6.19,11.26-1.21,21.49,2.13,31.95,4.95.56.15.99.83,1.47,1.27-.56.4-1.1,1.08-1.7,1.14-5.63.59-11.27,1.07-14.19,1.34Z"/>
        <path class="cls-1" d="m229.04,697.01c1.44-.18,3.64-.55,5.85-.7,3.41-.23,4.35.9,3.92,4.41-.54,4.4-1.52,4.6-6.01,4.79-5.49.23-10.66-.23-15.78-2.29-1.07-.43-2.99.22-4.06,1.01-1.97,1.45-3.87,3.17-5.33,5.12-4.89,6.52-5.22,6.7,1.35,10.48,6.47,3.72,6.67,15.8.66,20.67-8.59,6.98-20.76,4.83-26.37-4.66-3.37-5.7-1.76-14.25,4.24-17.72,5.14-2.98,8.69-6.91,11.92-11.77,10.8-16.26,21.98-32.28,33.03-48.38.56-.81,1.15-1.64,1.88-2.28.51-.44,1.58-.97,1.89-.75.67.48,1.48,1.49,1.39,2.16-.37,2.65-.66,5.43-1.72,7.84-3.99,9.06-8.34,17.93-14.48,25.84-3.4,4.38-3.03,4.92,2.39,5.62,1.47.19,2.95.34,5.22.61Z"/>
        <path class="cls-1" d="m400.13,728.11c-.35,1.94-.55,3.92-1.06,5.82-1.85,6.93-5.28,9.52-12.29,9.45-6-.06-12.83-5.57-14.14-11.4-1.2-5.32,1.31-10,6.59-12.69,1.77-.9,4.96-.54,4.41-3.9-.45-2.72-4.92-7.02-7.28-6.69-12.74,1.77-25.06-2.08-37.62-2.58-2.12-.09-4.68.33-5.49-2.64-1.08-3.96.81-6.18,5.01-5.58,9.07,1.31,18.12,2.78,27.17,4.19,1.71.27,3.41.75,5.13.85,2.69.15,3.82-1.29,2.52-3.71-3.14-5.89-6.47-11.7-9.98-17.38-3.51-5.69-7.46-11.12-10.95-16.83-1.12-1.83-1.72-4.12-1.99-6.28-.29-2.27,2.01-3.68,4.02-2.48,1.43.85,2.82,2.12,3.69,3.53,9.63,15.6,19.17,31.25,28.68,46.92,1.15,1.9,2.25,3.91,2.91,6.01.88,2.8,2.26,4.77,5.14,5.85,4.32,1.62,5.97,4.97,5.54,9.54Z"/>
        <path class="cls-1" d="m544.32,519c-3.9,2.38-4.5-1.7-6.23-4.29-1.42-2.12-1.4-2.7,1.37-3.11,13.22-1.92,26.42-3.98,39.61-6.16,12.45-2.06,24.84-4.49,37.3-6.5,17.59-2.84,35.23-5.34,52.81-8.21,8.79-1.43,17.5-3.39,26.27-4.97,1.2-.22,2.54.35,3.82.55-.6,1.26-.87,3-1.87,3.68-1.8,1.22-3.95,2.19-6.09,2.61-13.85,2.7-27.73,5.2-41.59,7.83-10.95,2.07-21.86,4.38-32.83,6.31-19.75,3.48-39.54,6.77-59.31,10.13-4.15.7-8.31,1.34-13.25,2.13Z"/>
        <path class="cls-1" d="m237.95,629.41c0,.99.09,1.99-.02,2.96-.39,3.4-.82,3.56-4.26,2.66-4.28-1.12-8.58-2.15-12.91-3.03-13.52-2.73-27.08-5.3-40.59-8.09-6.27-1.29-9.56-5.37-10.18-11.87-.14-1.42-.54-2.81-.78-4.22-.38-2.19.71-3.14,2.86-2.51.47.14.96.28,1.37.54,11.85,7.5,25.41,9,38.79,11.29,7.04,1.21,13.93,3.36,20.99,4.33,3.96.54,5.15,2.15,4.86,5.7-.06.74,0,1.48,0,2.23h-.14Z"/>
        <path class="cls-1" d="m764.12,465.59c-.36-6.92-.97-13.83-1-20.75-.05-9.14.33-18.29.57-27.43.06-2.48.42-4.95.4-7.42-.08-12.15-.34-24.29-.35-36.44-.01-17.83.13-35.65.23-53.48,0-1.74-.01-3.49.27-5.19.13-.77.97-1.43,1.48-2.13.3.61.85,1.2.87,1.82.25,6.58.52,13.17.58,19.76.11,13.04.07,26.07.12,39.11.05,11.8.22,23.61.17,35.41-.05,11.49-.95,23.02-.31,34.46.87,15.41-.53,30.63-1.8,45.91-.14,1.72-.51,3.44-.92,5.12-1.48,6.11-4.05,8.39-10.41,8.14-8.91-.35-17.8-1.14-26.7-1.85-.81-.06-1.56-.89-2.33-1.36.68-.56,1.3-1.49,2.04-1.61,8.07-1.3,16.16-2.5,24.25-3.64.94-.13,1.96.17,2.92.39,5.25,1.2,5.9,1.3,7.16-3.8,1.35-5.46,1.61-11.2,2.15-16.84.26-2.69.04-5.42.04-8.14.18,0,.37-.02.55-.03Z"/>
        <path class="cls-1" d="m320.23,642.73c-9.76-1.13-19.52-2.35-29.3-3.32-3.32-.33-4.97-1.81-5-5.09-.02-1.48-.04-2.97.14-4.43.56-4.42,1.19-4.98,5.58-5,1.72,0,3.45.17,5.17.28,6.1.36,12.21.61,18.29,1.15,2.41.22,4.96.69,7.1,1.75,5.94,2.95,11.71,6.23,17.49,9.49.71.4,1.03,1.5,1.53,2.27-.63.35-1.22.83-1.89,1.02-1.65.48-3.32,1.11-5,1.16-4.68.16-9.36.05-14.04.05-.02.22-.05.45-.07.67Z"/>
        <path class="cls-1" d="m235.44,611.53c-9.54-2-18.5-3.81-27.43-5.79-6.27-1.39-12.49-3.01-18.74-4.53-.96-.23-1.97-.36-2.88-.73-2.18-.91-5.56-1.18-5.1-4.23.2-1.35,3.16-2.71,5.1-3.29,10.63-3.18,20.76-2.14,30.56,3.43,5.56,3.16,11.61,5.47,17.43,8.17.9.42,2.06.67,2.58,1.38.78,1.07,1.72,2.65,1.43,3.68-.26.93-2.1,1.41-2.95,1.91Z"/>
        <path class="cls-1" d="m494.35,523.86c-7.58-1.42-14.39-2.68-21.2-3.97-10.68-2.03-21.35-4.05-32.02-6.14-1.93-.38-3.86-.92-5.7-1.62-2.56-.98-3.01-3.23-2.42-5.53.68-2.63,2.79-1.35,4.3-1.05,17.7,3.43,35.39,6.92,53.07,10.42,1.69.33,3.88.43,4.84,1.51,1.06,1.2,1.19,3.41,1.24,5.19.01.47-1.74,1-2.12,1.2Z"/>
        <path class="cls-1" d="m531.96,513.35c.46.28,1.39.54,1.51,1,.15.57-.27,1.38-.63,1.97-1.94,3.17-4.88,4.78-8.49,5.39-3.89.66-7.78,1.39-11.65,2.2-2.12.45-3.96.67-4.58-2.1-.71-3.15.14-5.15,3.03-5.61,6.84-1.09,13.72-1.9,20.81-2.85Z"/>
        <path class="cls-1" d="m393.76,541.53c-6.13.26-11.36-2.2-16.64-4.29-7.8-3.08-15.56-6.26-23.32-9.47-.8-.33-1.92-1.08-1.98-1.71-.06-.71.74-1.84,1.47-2.23,6.07-3.28,12.19-5.3,18.9-1.3,5.3,3.16,10.83,5.94,16.31,8.8.5.26,1.62.13,1.91-.24.32-.42.3-1.6-.06-1.95-3.34-3.25-6.81-6.37-10.19-9.59-.47-.45-.63-1.21-.94-1.83.46-.16.92-.45,1.38-.46,5.2-.18,10.67-.74,15.09,2.48,4.96,3.62,9.64,7.7,13.97,12.04,2.92,2.93,2.29,5.51-1.61,6.75-4.62,1.47-9.52,2.03-14.3,2.99Z"/>
        <g>
          <path class="cls-1" d="m550,468.64l9.02-.68s.57-6.58.83-9.87c.68-8.33,1.37-16.66,2.01-24.99-2.74-2.49-5.45-5-8.3-7.25-1.37,19.56-3.57,42.8-3.57,42.8Z"/>
          <path class="cls-1" d="m568.46,438.8c-1.12,14.4-2.23,27.17-2.23,27.17l11.14-.59s.85-9.28,1.03-13.92c.08-2.15.11-4.31.1-6.47-3.64-1.53-6.92-3.72-10.04-6.19Z"/>
          <path class="cls-1" d="m579.03,376.6c-.07-9.6.49-19.21.46-28.81-.05-13.72-.3-27.45-.66-41.17-.22-8.29-.81-16.58-1.22-24.87-.78-15.67-1.18-31.36-2.45-47-.81-9.99-3.23-19.85-4.34-29.83-1.29-11.61-1.36-23.35-3-34.9-1.93-13.5-4.98-26.86-7.55-40.28-3.39-17.7-11.42-33.93-19.85-49.78-4.42-8.3-11.66-15.58-18.79-22.24-5.42-5.06-12.23-9.29-19.2-12.34-11.47-5.03-23.8-6.93-36.68-5.66.81,3.52,1.01,7.1.47,10.59,12.32,2.99,23.36,8.3,32.38,16.85,8.99,8.53,15.82,18.51,22.16,28.93,9.24,15.18,14.57,31.59,18.55,48.35,3.49,14.67,5.84,29.6,7.95,44.51,1.98,14,3.4,28.1,4.34,42.19,1.27,19.03,1.94,38.1,2.68,57.16.47,11.99.84,23.99.83,35.98-.02,13.44-.4,26.88-.59,40.32,2.95,1.85,6.28,3.21,9.65,4.56-.27-6.44-.6-12.89-.71-19.33-.21-12.35.09-24.7-.16-37.04-.31-15.42-1.07-30.84-1.39-46.27-.11-5.43.53-10.87.83-16.31,1.39.89,2.06,1.79,2.15,2.74,1.15,11.86,2.6,23.7,3.23,35.59,1.16,21.87,2.13,43.77,2.61,65.66.13,5.96.24,11.92.31,17.88,2.9,1.39,5.65,3.04,8.04,5.27,0-.25,0-.5-.01-.75Zm-20.22-165.88c-2.67-19.12-5.34-38.24-8-57.36.48-.05.97-.1,1.45-.15,3.13,19.06,8.38,37.87,6.56,57.51Z"/>
          <path class="cls-1" d="m615.42,384.75c.5-3.3,1.62-25.29.98-41.49-1.68-42.28-4.28-111.6-5.74-120.24-.82-4.83-1.31-9.72-2.29-14.52-2.04-10.1-4.24-20.17-6.49-30.23-1.61-7.23-3.4-14.42-5.09-21.63-1.23-5.28-2.5-10.55-3.63-15.84-1.05-4.92-1.59-9.95-3-14.77-2-6.87-4.58-13.58-6.9-20.37-2.55-7.44-5.77-8.75-8.58-16.11-2.1-5.52-5.26-12.13-7.87-17.46-2.6-5.31-5.55-12.27-9.02-17.08-4.79-6.65-10.05-14.31-15.93-20.15-6.2-6.15-14.95-12.96-22.64-17.08-7.41-3.96-16.32-7.15-25.52-8.44-3.11-.44-19.06-4.01-25.52-4.41-8.19-.51-20.85,1.08-32.64,3.56-.04,0-.08.02-.12.03,3.85,1.71,7.64,3.62,11.37,5.79,3.82,2.19,7.39,5.26,10.43,8.87,5.97-1.55,11.93-3.35,18.03-4.18,13.29-1.81,25.67,3.14,38.42,5.36.92.16,1.66,1.19,3.73,2.76-10.16-.74-18.69-1.11-27.14-2.05-10.16-1.13-19.94-.96-29.54,2.89,1.15,1.82,2.16,3.73,3,5.69,3.64-.48,7.29-.88,10.95-1.14,10.22-.72,19.8,2.13,29.24,5.4,17.32,6,30.79,16.61,40.98,30.7,4.43,6.12,7.48,13.1,11.41,19.56.76,1.24,2.72,1.84,3.31,2.21,1.47,2.61,2.61,4.62,3.81,6.74-1.7,1.57.17,9.58,2.03,11.14,2,1.68,3.19,4.34,4.33,6.73.53,1.1.09,2.61.09,3.93.4,0,.81-.01,1.21-.02-.35,1.71-.7,3.42-1.05,5.13.4.11.81.22,1.21.34.71-.93,1.42-1.85,2.56-3.33,2.11,4.62,4.48,8.37,5.56,12.42,3.3,12.37,6.25,24.82,9.06,37.3,3.54,15.7,7.13,31.4,10.11,47.2,1.84,9.75,3.64,79.46,5.6,123.02.77,17.12.35,37.33.3,41.22-.07,6.08-4.34,14.19,6.11,17.85,5.86-3.48,4.08-10.18,4.85-15.3Z"/>
          <path class="cls-1" d="m584.12,463.93s.24-10.73.5-16.08c4.65,1.11,8.68-1.19,13.67-.78.1,5.32.31,15.99.31,15.99l-14.48.87Z"/>
          <path class="cls-1" d="m572.27,134.21c.61.72,1.63,1.37,1.73,2.12.78,5.87,1.11,11.8,2.1,17.63,1.64,9.59,3.82,19.11,5.53,28.69,1.48,8.29,2.53,16.64,3.94,24.94,1.05,6.16,2.83,12.24,3.44,18.43.77,7.83.88,15.73.91,23.59.03,6.5,6.44,129.81,5.97,136.3-.11,1.6-5.69-6.73-7.48-5.47-4.58-46.35-11.54-199.65-16.14-246.24Z"/>
        </g>
      </g>
      <g>
        <path class="cls-1" d="m201.65,85.89c-7.28,3.35-14.41,8.01-20.1,13.62-7.48,7.38-15.09,15.45-19.76,24.68-8.93,17.63-17.43,35.68-21.12,55.43-2.8,14.97-6.1,29.86-8.23,44.93-1.82,12.89-2,26-3.45,38.95-1.25,11.13-3.86,22.13-4.79,33.28-1.47,17.45-2.03,34.97-2.99,52.47-.5,9.25-1.2,18.5-1.5,27.76-.5,15.32-.89,30.65-1.07,45.97-.13,10.73.37,21.46.21,32.18-.16,11.09-1.07,22.18-1.11,33.26-.03,8.58.96,17.16,1.16,25.74.19,8.2-.3,16.41-.07,24.61.22,8.05,1.11,16.08,1.46,24.13.58,13.41.56,26.86,1.55,40.23.81,10.91,2.77,21.73,4.11,32.6.57,4.6.86,9.24,1.24,13.48-5.43,10.25-6.1,21.45-7.38,34.22,8.91-7.96,5.07-18.69,9.21-26.17,1.66,2.83,3.28,5.61,5.2,8.89-.34,4.53-.53,10.13-1.26,15.66-.58,4.41-1.5,8.85-2.88,13.08-1.78,5.46-3.71,10.98-6.46,15.99-1.92,3.5-5.3,6.2-8.14,9.38,1.82,2.58,5.72,2.12,10.31-1.08,8.34-5.81,12.28-14.45,14.9-23.6,3.25-11.37,6.64-22.89,7.94-34.57,1.05-9.43.47-19.25-4.01-28.48-2.5-5.16-3.28-11.24-4.34-16.99-2.72-14.87-6.1-29.71-7.52-44.72-2.49-26.28-4.29-52.66-5.3-79.04-.79-20.49-.31-41.06.27-61.57.7-24.45,1.91-48.89,3.32-73.31.77-13.27,2.38-26.48,3.69-39.72.1-1.06.8-2.06,2.26-3.05.26,6.07.88,12.16.71,18.22-.47,17.22-1.4,34.44-1.87,51.66-.37,13.79-.18,27.58-.51,41.37-.37,15.65-1.85,31.31-1.4,46.92.71,24.69,2.44,49.36,4.12,74.01.91,13.38,1.82,26.83,4.11,40.01,2.82,16.21,7.03,32.19,10.74,48.24.89,3.86,1.07,3.82,5.65,3.09,1.25-13.46-.8-26.47-3.83-39.59-3.02-13.1-4.19-26.61-6.5-39.88-3.77-21.62-3.47-43.49-4.13-65.28-.43-14.24.43-28.52.45-42.79.03-17.73-.4-35.47-.27-53.2.1-13.39.59-26.79,1.19-40.18.95-21.28,1.83-42.57,3.32-63.82,1.11-15.73,2.71-31.47,4.9-47.09,2.33-16.63,4.92-33.29,8.68-49.64,4.3-18.68.73-38.75,10.49-55.63,6.7-11.58,9.66-24.14,19.1-33.59,3.19-3.19,16.22-8.31,19.85-10.72-3.91-5.65-3.82-5.71-7.52-11.48-.87.36-1.75.7-2.62,1.1Zm-60.23,184.17c-1.72-21.94,3.92-42.91,7.35-64.17l1.51.18c-2.95,21.33-5.91,42.66-8.86,63.99Z"/>
        <path class="cls-1" d="m179.84,52.58c-8.05,4.53-14.77,11.78-21.27,18.6-6.17,6.47-11.73,13.64-16.77,21.03-3.65,5.34-6.18,11.49-8.93,17.4-2.77,5.93-5.47,11.92-7.71,18.06-2.99,8.19-5.5,16.56-8.22,24.86-2.48,7.56-5.23,15.04-7.37,22.69-1.5,5.37-2.12,10.99-3.26,16.47-1.23,5.9-2.59,11.78-3.92,17.66-1.82,8.04-3.75,16.06-5.5,24.12-2.42,11.22-4.81,22.44-7.03,33.7-1.06,5.36-1.62,10.81-2.51,16.2-2.21,13.33-6.66,144.23-7.73,157.65-.46,5.76-3.88,12.59,1.21,17.88,11.46-1.28,9.11-11.19,10.51-17.82,3.18-15.05,5.88-148.13,8.66-163.27,3.24-17.62,7.13-35.12,10.96-52.63,3.04-13.91,6.23-27.79,9.78-41.58,1.16-4.52,3.66-8.69,5.9-13.83,1.17,1.66,1.9,2.7,2.63,3.74.42-.12.84-.24,1.26-.37-.35-1.91-.69-3.83-1.04-5.74.42.01.84.02,1.26.03.01-1.48-.43-3.16.13-4.39,1.21-2.67,2.47-5.62,4.57-7.48,1.95-1.73,3.97-10.65,2.21-12.42,1.27-2.36,2.47-4.6,4.03-7.5.61-.41,2.66-1.06,3.46-2.43,4.15-7.17,7.39-14.95,12.06-21.75,10.67-15.55,24.51-28.34,42.42-34.91-2.57-4.19-3.28-4.49-5.69-8.77-1.99.12-7.68.66-9.79.81,2.16-1.73,4.96-6.02,5.8-6.84.17-.16,3.05-2.68,3.28-2.72-2.26-4.1-6.87-5.09-8.94-9.28-1.45,1.01-2.92,1.97-4.44,2.83Z"/>
        <path class="cls-1" d="m170.66,195.02c-1.76,7.76-3.8,15.46-5.22,23.28-1,5.49-1.08,11.14-1.7,16.7-.67,5.99-1.48,11.97-2.26,17.95-1.06,8.18-2.24,16.34-3.22,24.52-1.37,11.39-2.69,22.79-3.85,34.21-.55,5.43-.6,10.91-.99,16.36-.96,13.48,4.5,217.45,4.68,230.91.08,5.78-2.68,12.89,2.87,17.69,11.3-2.35,8.02-12,8.8-18.72,1.76-15.28-5.64-221.26-4.28-236.59,1.58-17.84,3.82-35.64,6-53.42,1.73-14.13,3.61-28.26,5.85-42.31.74-4.61.44-10.24,2.19-15.56,1.32,1.55,2.14,2.51,2.97,3.48.41-.16.82-.32,1.22-.48-.52-1.87-1.05-3.74-1.57-5.62.42-.03.84-.06,1.26-.09-.13-1.47-.72-3.1-.28-4.38.95-2.77,3.97-8.02,5.89-10.07,1.78-1.9,16.28-11.71,14.36-13.31.13-.32-12.7,3.54-12.56,3.22-6.78,3.3-9.84,2.6-16.22,7.02-.06.26-3.89,4.95-3.95,5.2Z"/>
        <path class="cls-1" d="m64.02,711.2c9.54,3.74,15.59-1.07,20.9-5.58,16.48-14.01,21.92-33.81,25.92-53.86,2.47-12.4,4.21-25.12,4.54-37.74.34-13.11-1.64-26.27-2.17-39.43-.54-13.29-.34-26.62-.84-39.92-.47-12.68-1.64-25.33-2.06-38-.31-9.53.15-19.09.14-28.63-.02-14.42-.09-28.83-.26-43.25-.11-9.08-.41-18.16-.72-27.23-.03-1.01-.7-2-1.75-4.77-1.62,3.14-3.24,4.89-3.36,6.74-1.14,17.56-2,35.14-2.98,52.72-.38,6.74-1.04,13.46-1.29,20.2-.74,20.41-1.44,40.83-1.95,61.25-.32,12.8-.97,25.65-.04,38.38.4,5.47,1.29,11.07,1.68,16.62.5,7.14,1.33,14.37.78,21.46-1.1,14.4-2.53,28.82-4.75,43.09-2.54,16.3-6.42,32.4-16.33,46.08-2.42,3.34-6.64,5.39-10.05,8-1.41,1.08-2.9,2.07-5.42,3.86Z"/>
        <path class="cls-1" d="m0,631.45c3.67.63,7.31,1.63,11.01,1.84,12.01.68,22.28-4.04,32.14-10.41,20.85-13.47,26.93-35.71,34.42-57.13,2.25-6.44,4.64-12.93,5.85-19.61,2.07-11.43,3.92-22.98,4.65-34.56,1.06-16.66,1.4-33.38,1.36-50.07-.03-11.18-1.25-22.35-1.96-33.53-.25-3.97-.39-7.96-.9-11.9-.21-1.64-1.26-3.17-2.38-5.79-1.16,2.21-1.97,3.12-2.12,4.13-1.68,11.92-5.06,23.5-4.82,35.82.27,13.68-.93,27.4-1.88,41.08-.92,13.17-1.86,26.36-3.64,39.43-2.45,17.98-6,35.79-14.37,52.16-4.71,9.2-8.89,18.93-15.14,27.01-8.97,11.6-21.72,17.61-36.63,18.37-1.11.06-2.24,0-3.32.2-.71.13-1.35.64-2.02.99-.09.66-.17,1.32-.26,1.97Z"/>
        <path class="cls-1" d="m39.19,665.58c15.42-2.3,26.64-11.36,34.83-23.17,9.78-14.11,17.19-29.88,19.77-47.08,1.01-6.75-.87-13.95-1.69-20.92-.11-.94-1.84-2.52-2.53-2.37-1.18.24-2.65,1.42-3.06,2.55-.69,1.93-.97,4.14-.87,6.2.48,9.67-2.92,18.4-6.43,27.07-3.67,9.05-7.2,18.21-11.61,26.9-4.57,9-10.84,16.82-19.38,22.67-3.32,2.27-6.04,5.41-9.04,8.16Z"/>
        <path class="cls-1" d="m128.12,184.5c-.64.79-1.71,1.51-1.82,2.36-.87,6.55-3.51,8.11-4.6,14.62-1.8,10.7-4.35,24.28-6.22,34.97-1.61,9.24-3.28,17.3-4.83,26.56-1.15,6.87-3.91,15.03-4.6,21.94-.88,8.73-2.77,19.75-2.88,28.54-.09,7.26-.4,98.49.02,105.73.1,1.78,5.21-11.39,7.07-9.97,1.93-19.21-.4-50.22,1.93-81.47,3.93-52.87,12.65-110.59,15.93-143.27Z"/>
      </g>
    </g>
  </g>
</svg>