<?xml version="1.0" encoding="UTF-8"?>
<svg id="Layer_2" data-name="Layer 2" xmlns="http://www.w3.org/2000/svg" viewBox="0 0 3399.46 933.48">
  <defs>
    <style>
      .cls-1 {
        fill: #f0f8ff;
        stroke-width: 0px;
      }
    </style>
  </defs>
  <g id="Layer_1-2" data-name="Layer 1">
    <g>
      <g>
        <path class="cls-1" d="m209.22,317.91h94.76l13.84,70.27h130.42L342.3,21.93h-172.48l-101.15,366.25h125.1l15.44-70.27Zm47.38-225.71l34.6,160.24h-70.8l36.2-160.24Z"/>
        <path class="cls-1" d="m554.7,377.53c26.97,12.78,58.2,19.17,93.69,19.17s67.52-6.75,95.02-20.23c27.5-13.48,49.06-32.29,64.68-56.43,15.61-24.13,23.42-51.99,23.42-83.58V21.93h-119.78v214.53c0,19.88-5.24,35.49-15.7,46.85-10.47,11.36-25.64,17.04-45.51,17.04-18.82,0-33.99-5.59-45.52-16.77-11.54-11.18-17.3-28.66-17.3-52.44V21.93h-118.18v214.53c0,33.36,7.45,62.02,22.36,85.97,14.91,23.95,35.84,42.32,62.82,55.1Z"/>
        <path class="cls-1" d="m956.35,373.28c28.21,15.61,61.49,23.42,99.81,23.42,19.87,0,40.28-2.31,61.22-6.92,20.94-4.61,41.53-11.53,61.75-20.76v-166.62l-92.1,10.65v91.03c-5.68,1.42-12.78,2.13-21.29,2.13-23.42,0-42.68-8.69-57.76-26.09-15.09-17.38-22.62-41.7-22.62-72.93s8.33-55.01,25.02-72.4c16.68-17.39,39.57-26.08,68.67-26.08,24.13,0,47.38,4.79,69.74,14.37l15.97-83.58c-25.2-17.04-59.09-25.55-101.68-25.55-39.05,0-73.29,8.52-102.74,25.55-29.46,17.04-52.35,40.46-68.67,70.27-16.33,29.81-24.49,64.07-24.49,102.74,0,36.2,7.8,68.14,23.42,95.82,15.61,27.68,37.53,49.33,65.74,64.95Z"/>
        <path class="cls-1" d="m1309.56,377.53c26.97,12.78,58.2,19.17,93.69,19.17s67.52-6.75,95.02-20.23c27.5-13.48,49.06-32.29,64.68-56.43,15.61-24.13,23.42-51.99,23.42-83.58V21.93h-119.78v214.53c0,19.88-5.24,35.49-15.7,46.85-10.47,11.36-25.64,17.04-45.51,17.04-18.82,0-33.99-5.59-45.52-16.77-11.54-11.18-17.3-28.66-17.3-52.44V21.93h-118.18v214.53c0,33.36,7.45,62.02,22.36,85.97,14.9,23.95,35.84,42.32,62.82,55.1Z"/>
        <path class="cls-1" d="m1781.48,299.28c-7.28,4.62-18.02,6.92-32.21,6.92-15.26,0-31.86-1.68-49.77-5.06-17.93-3.37-37.18-10.56-57.76-21.56l-19.17,86.77c15.97,9.23,35.48,16.59,58.56,22.09,23.06,5.5,45.78,8.25,68.14,8.25,47.55,0,84.73-11.18,111.53-33.54,26.79-22.36,40.19-54.12,40.19-95.29,0-19.87-4.08-36.37-12.24-49.51-8.17-13.13-18.63-23.77-31.41-31.94-12.78-8.16-26.44-14.72-40.99-19.7-14.56-4.97-28.21-9.4-40.99-13.31-12.77-3.9-23.25-7.98-31.41-12.24-8.17-4.26-12.24-9.76-12.24-16.5,0-7.1,3.9-12.78,11.71-17.03,7.8-4.26,19.17-6.39,34.07-6.39,12.78,0,26.35,1.69,40.73,5.06,14.37,3.38,30.61,8.78,48.71,16.24l18.1-78.26c-12.07-9.22-28.13-16.59-48.18-22.09-20.06-5.5-40.55-8.25-61.49-8.25-31.23,0-58.38,5.06-81.45,15.17-23.07,10.12-40.82,24.49-53.23,43.12-12.43,18.63-18.63,40.73-18.63,66.28,0,20.23,4.07,37,12.24,50.31,8.16,13.31,18.72,23.95,31.67,31.94,12.95,7.99,26.7,14.37,41.26,19.17,14.55,4.79,28.29,8.97,41.26,12.51,12.95,3.55,23.51,7.37,31.67,11.45,8.16,4.08,12.25,9.67,12.25,16.77,0,7.81-3.65,14.02-10.91,18.63Z"/>
        <polygon class="cls-1" points="2118.71 388.18 2118.71 106.04 2201.23 106.04 2201.23 21.93 1912.16 21.93 1912.16 106.04 1994.68 106.04 1994.68 388.18 2118.71 388.18"/>
        <path class="cls-1" d="m2575.73,304.6c16.5-28.75,24.75-61.75,24.75-99.02s-8.25-71.33-24.75-100.08c-16.5-28.75-39.49-51.19-68.94-67.34-29.46-16.15-63.53-24.22-102.21-24.22s-72.76,8.17-102.21,24.49c-29.46,16.33-52.43,38.86-68.94,67.61-16.5,28.75-24.75,61.94-24.75,99.55s8.25,70.27,24.75,99.02c16.5,28.75,39.48,51.29,68.94,67.61,29.45,16.32,63.52,24.49,102.21,24.49s72.75-8.17,102.21-24.49c29.45-16.32,52.43-38.86,68.94-67.61Zm-116.05-30.88c-14.38,17.39-32.74,26.09-55.1,26.09s-41.17-8.69-55.36-26.09c-14.2-17.38-21.29-40.27-21.29-68.67s7.09-52.61,21.29-70.54c14.19-17.92,32.47-26.88,54.83-26.88,15.26,0,28.66,4.17,40.19,12.51,11.53,8.34,20.58,19.79,27.15,34.34,6.56,14.56,9.85,31.41,9.85,50.57,0,28.4-7.19,51.29-21.56,68.67Z"/>
        <polygon class="cls-1" points="238.49 492.1 182.06 720.47 125.63 492.1 0 492.1 108.6 858.35 244.35 858.35 358.8 492.1 238.49 492.1"/>
        <path class="cls-1" d="m434.39,492.1l-101.15,366.25h125.1l15.44-70.27h94.76l13.84,70.27h130.42l-105.93-366.25h-172.48Zm50.57,230.51l36.2-160.24,34.6,160.24h-70.8Z"/>
        <polygon class="cls-1" points="856.54 492.1 741.55 492.1 741.55 858.35 981.11 858.35 986.43 774.24 856.54 774.24 856.54 492.1"/>
        <polygon class="cls-1" points="1138.68 720.47 1082.25 492.1 956.62 492.1 1065.22 858.35 1200.97 858.35 1315.42 492.1 1195.11 492.1 1138.68 720.47"/>
        <polygon class="cls-1" points="1341.51 858.35 1598.63 858.35 1598.63 774.77 1470.86 774.77 1470.86 705.04 1587.45 705.04 1587.45 637.96 1470.86 637.96 1470.86 573.01 1598.63 573.01 1598.63 492.1 1341.51 492.1 1341.51 858.35"/>
        <path class="cls-1" d="m1944.12,772.64c-12.07,0-21.56-2.48-28.48-7.45-6.92-4.97-12.7-13.84-17.3-26.62-2.13-6.03-3.73-11.53-4.79-16.5-1.06-4.97-2.31-11.35-3.73-19.17,25.2-11,43.47-24.75,54.83-41.26,11.35-16.5,17.04-35.22,17.04-56.16,0-34.78-12.87-62.37-38.59-82.78-25.74-20.4-67.7-30.61-125.9-30.61h-150.65v366.25h116.58v-140.54h25.02c1.77,20.95,5.14,40.46,10.11,58.56,4.97,18.1,12.42,33.9,22.36,47.38,9.93,13.49,23.24,24.05,39.93,31.67,16.68,7.63,37.8,11.44,63.35,11.44,10.29,0,19.43-.98,27.42-2.93,7.98-1.95,15.52-4.35,22.62-7.19l-6.39-87.3c-7.81,2.13-15.62,3.19-23.42,3.19Zm-105.14-136.55c-10.83,5.86-29.37,8.78-55.63,8.78h-20.23v-73.46h36.73c19.17,0,33.18,2.75,42.06,8.25,8.86,5.51,13.31,14.29,13.31,26.35,0,14.2-5.41,24.22-16.24,30.08Z"/>
        <path class="cls-1" d="m2263.79,514.99c-33.54-15.26-76.92-22.89-130.16-22.89h-127.23v366.25h121.91c78.43,0,136.89-16.32,175.41-48.98,38.5-32.65,57.76-78.26,57.76-136.81,0-35.84-7.9-67.25-23.69-94.22-15.8-26.97-40.46-48.09-74-63.35Zm-42.32,224.38c-13.84,17.22-34.96,25.82-63.35,25.82h-34.07v-179.93h34.07c29.45,0,50.84,7.9,64.15,23.69,13.31,15.8,19.96,36.65,19.96,62.55,0,28.04-6.92,50.67-20.76,67.87Z"/>
        <path class="cls-1" d="m2639.73,822.31c-6.8,0-13.62-2.08-19.47-6.32l-.91-.66-1.36-.99c-10.63-7.71-15.72-20.92-12.97-33.75.06-.3.11-.61.16-.91.21-1.24.52-2.93.99-4.89h-72.22v-69.74h42.44c1-6.36,2.09-12.88,3.57-19.61,2.69-12.2,5.56-24.47,8.33-36.33.86-3.69,1.73-7.41,2.6-11.14h-56.94v-64.95h70.54c2.12-12.17,4.04-24.47,6.03-37.26,1.44-9.29,2.93-18.89,4.5-28.4l.51-3.12c-3.35.66-6.78,1.04-10.27,1.04-13.52,0-26.14-4.97-35.48-13.18h-165.19v366.25h257.12v-43.47c-.15-.17-.31-.32-.46-.49-6.14,5.24-13.81,7.92-21.52,7.92Z"/>
      </g>
      <g>
        <path class="cls-1" d="m2875.07,88.75c19.5,1.76,40.37,3.46,61.19,5.66,4.16.44,8.12,2.75,12.19,4.16,6.77,2.36,13.41,5.31,20.36,6.81,4.02.87,8.55-.62,12.85-1.06,1.93-.2,4.72-1.39,5.64-.54,6.82,6.31,14.84,3.87,22.12,2.7,16.69-2.68,33.12-6.99,49.82-9.6,28.31-4.42,55.65-.66,80.51,14.1,14.19,8.42,21.59,23.25,28.54,37.42,7.47,15.21,13.82,31.11,19.01,47.24,3.2,9.94,3.53,20.85,4.8,31.37,1.71,14.23,3.28,28.48,4.55,42.75.99,11.06,1.63,22.17,2.06,33.27.78,20.43,1.54,40.86,1.83,61.3.28,19.74-.16,39.49-.06,59.23.08,16.44.81,32.88.64,49.32-.16,15.02-1.39,30.03-1.69,45.06-.38,18.77-.06,37.55-.5,56.31-.33,14.18-2.38,28.39-1.78,42.51.53,12.56-3.44,22.09-13.18,29.24-4.22,3.1-9.16,5.56-14.14,7.21-22.04,7.3-43.89,15.36-67.36,17.33-8.58.72-17.01,3.12-25.58,4.2-15.46,1.95-30.96,3.63-46.47,5.12-8.8.85-17.65,1.55-26.48,1.56-16.58.02-33.21.15-49.74-1.03-13.96-1-27.75-4.23-41.7-5.63-12.6-1.26-25.37-.81-37.96-2.12-21.64-2.24-42.81-7.07-62.57-16.37-7.44-3.5-14.31-8.64-20.62-13.98-10.21-8.64-10.81-21.53-12.35-33.48-2.08-16.16-3.46-32.45-4.27-48.72-.71-14.33-.12-28.73-.32-43.1-.18-12.96-.76-25.91-.97-38.87-.16-9.79-.11-19.59.05-29.39.35-21.09.52-42.2,1.35-63.27.72-18.11,2.35-36.18,3.41-54.28.74-12.61,1.12-25.24,1.81-37.86.17-3.13,1.02-6.22,1.36-9.36.39-3.56.54-7.14.81-10.71.31-4.04.84-8.08.94-12.12.13-5.6-.17-11.21-.06-16.81.13-6.49.32-13,.8-19.47,1.54-20.79,3.15-41.58,4.87-62.36,1.56-18.84,6.72-36.37,19.76-50.73,7.98-8.79,17.98-14.53,29.56-16.87,11.67-2.36,23.51-3.94,36.95-6.14Zm247.46,367.44c9.13,2.33,11.83.42,13.53-9.63.71-4.23,2.33-8.32,2.82-12.56,1.22-10.68,3.25-21.46,2.75-32.09-.97-20.58-6.7-40.28-13.42-59.77-8.44-24.48-18.98-47.72-36.87-66.75-15.52-16.51-34.61-27.43-56.87-32.43-26.44-5.94-53.09-5.69-79.66-1.58-21.45,3.32-40.47,12.39-56.51,27.25-14.32,13.26-26.17,28.42-34.32,46.21-6.17,13.47-12.61,26.92-17.41,40.9-8.4,24.47-11,49.81-7.8,75.61.63,5.06,2.32,9.71,7.75,10.76,5.01.97,5.01,3.62,4.9,7.72-.27,10.14-.59,20.36.37,30.43.89,9.38,2.49,18.97,12.89,23.73,1.77.81,2.97,3.92,3.5,6.18.97,4.17.93,8.58,1.86,12.76,2.49,11.21,3.9,22.94,12.95,31.43,4.61,4.32,8.59,3.29,10.72-2.59.36-.99.77-1.96,1.71-4.34,1.37,4.8,2.5,8.17,3.29,11.62,3.82,16.74,10.73,32.2,19.4,46.92,2.27,3.86,5.13,7.13,10.46,5.03,5.54-2.18,4.44-6.68,3.84-10.94-.29-2.1-.91-4.16-1.38-6.24.58-.31,1.15-.63,1.73-.94,1.28,1.49,3.1,2.77,3.75,4.49,3.28,8.64,6.12,17.45,9.4,26.09,1.43,3.78,3.11,7.62,5.45,10.87,4.23,5.86,8.61,1.32,12.56-.97,2.57,5.87,3.97,12.01,7.56,16.33,2.77,3.33,8.2,5.8,12.6,6.07,5.52.33,5.7-5.32,6.07-9.68.15-1.73.2-3.48.44-5.19,1.26-9.01,2.17-18.13,7.46-26.68,1.64,5.17,2.13,10.04,4.62,13.44,1.84,2.52,6.28,4.06,9.59,4.12,1.35.02,3.29-4.9,4.06-7.82,1.02-3.9.38-8.34,1.83-12.01,5.5-13.98,11.53-27.75,17.43-41.57.26-.61,1.17-.93,1.62-1.28.95,6.56,1.62,12.83,2.83,18.99.8,4.13,1.47,8.38,7.46,8.97,5.73.56,9.4-1.59,11.4-6.45,5.84-14.15,11.68-28.31,16.97-42.67,2.52-6.85,3.78-14.18,5.69-21.62,11.57,9.1,16.25,7.44,19.08-6.31,1.76-8.56,3.01-17.23,4.51-25.98,9.43,4.6,12.23,3.42,13.88-6.86,1.63-10.15,2.35-20.45,3.5-30.96Zm-74.83-298.06c-4.81,2.59-10.38,4.37-14.28,7.96-7.1,6.54-8.77,15.49-7.72,24.93,1.14,10.3,6.74,16.66,16.81,19.88,9.18,2.93,15.8-1.69,20.82-7.92,6-7.43,8.46-16.46,5.93-26.18-2.82-10.84-10.59-17.24-21.56-18.66Zm-130.28,30.24c0,1.58-.21,3.2.04,4.74,1.37,8.5,6.03,14.42,14.14,17.46,7.97,2.99,14.72.47,20.41-5.16,9.28-9.18,10.68-26.25,3.29-36.99-5.44-7.9-14.71-10.26-23.27-5.98-10.72,5.36-14.86,14.43-14.61,25.94Zm-86.12,456.36c-12.9-8.94-25.8-17.88-39.04-27.06-3.2,6.04-2.94,9.99,2.84,13.1,6.57,3.55,12.7,7.91,19.25,11.49,5.35,2.92,10.81,7.15,16.96,2.47Zm-5.26-82.48c.05-.46.09-.93.14-1.39-8.61-6.82-17.23-13.63-26.56-21.01.17-3.81-7.69-12.46-15.32-15.1-3.05,5.63-2.25,10.46,3.15,14.08,10.68,7.14,21.42,14.18,32.24,21.1,1.85,1.18,4.22,1.57,6.35,2.32Zm-1.15-289.3l2.15-2.44c-3.9-3.8-7.73-7.67-11.73-11.37-4.28-3.95-8.84-7.6-13.05-11.62-3.65-3.48-6.98-7.28-10.46-10.94-.67.24-1.34.48-2.01.72,1.16,4.98.65,11.99,3.78,14.55,9.69,7.94,20.77,14.19,31.31,21.09Zm1.24,344.76c-6.92-3.43-13.86-6.24-20.1-10.16-6.05-3.79-8.99-12.11-18-12.36-2.01,4.53-.21,7.95,3.38,10.43,6.99,4.82,14.15,9.39,21.31,13.94,1.5.95,3.4,1.22,4.99,2.06,3.81,2.01,6.45,1.09,8.42-3.91Zm-5.57-133.36c.37-.79.74-1.58,1.11-2.38-8.97-3.98-10.51-16.89-19.74-17.25-6.1-7.58-11.07-13.76-16.05-19.94-1.01.39-2.03.79-3.04,1.18.62,4.01-.15,9.29,2.13,11.77,5.29,5.75,11.92,10.35,18.27,15.05,5.58,4.12,11.52,7.73,17.31,11.57Zm-32.4-171.72c-.44,6.62-.7,12.97,4.95,17.42,6.57,5.18,13.12,10.38,19.66,15.59,3.04,2.43,5.62,2.66,7.13-.52-10.78-11.04-21.26-21.77-31.74-32.5Zm-2.01,237.09c-.78.41-1.55.83-2.33,1.24.34,3.23-.52,8.24,1.21,9.41,9.53,6.43,19.7,11.93,29.65,17.74.65-.93,1.29-1.86,1.94-2.8-9.03-9.86-20.89-16.38-30.47-25.6Zm10.7-340.48c-1.07.24-2.14.47-3.21.71-.44,3.08-2.42,7.5-1.08,9.04,9.27,10.65,19.2,20.73,29.03,30.89.79.81,2.41.82,4.93,1.6-1.35-7.98-8.85-8.74-12.18-13.18-3.52-4.68-7.39-9.15-10.4-14.14-2.83-4.69-4.76-9.93-7.08-14.93Zm29.26,7.45c0-1.17.44-2.73-.07-3.14-4.62-3.8-9.45-7.35-14.11-11.09-1.42-1.13-3.28-2.46-3.65-4.01-1.66-6.93-7.11-9.75-12.51-13.21-2.89,11.49,10.33,24.99,30.35,31.45Zm-4.59,76.37c.67-.66,1.35-1.32,2.02-1.98-.76-1.39-1.24-3.09-2.34-4.11-7.71-7.2-15.47-14.35-23.43-21.26-1.32-1.15-3.69-1.08-5.58-1.58-.16,2.67-1.49,6.86-.29,7.78,9.61,7.4,19.69,14.19,29.63,21.16Zm-22.49-129.79c-3.3,7.22-2.07,11.47,2.56,14.94,8.73,6.54,17.4,13.16,26.46,20.02.68-1.36,1.79-2.92,1.54-3.18-9.83-10.38-19.79-20.64-30.56-31.77Zm-13.71,254.57c-.89.38-1.78.77-2.68,1.15.75,3.41.33,8.45,2.44,9.95,8.79,6.25,16.39,15.57,28.85,14.71-9.73-8.78-19.18-17.29-28.62-25.81Zm46.25-240.51c0-1.27.18-1.85-.03-2.1-8.36-9.87-21.02-15.8-26.22-28.58-1.75.79-4.81,1.4-4.96,2.42-.28,1.99.68,4.45,1.81,6.31,6.78,11.19,18.4,15.75,29.4,21.95Zm-47.82,168.72c11.42,7.27,22.49,14.31,33.57,21.35.56-.74,1.12-1.48,1.68-2.22-10.68-9.14-21.36-18.27-32.59-27.89-.97,3.18-1.66,5.47-2.65,8.75Zm2.98,226.35c-.81.4-1.62.81-2.44,1.21.77,2.71.69,6.75,2.47,7.9,8.61,5.58,17.69,10.44,26.71,15.34.79.43,2.4-.67,4.54-1.35-11.12-8.21-21.2-15.66-31.28-23.11Zm23.16-70.96c.67-.88,1.33-1.77,2-2.65-2.75-2.59-5.53-5.16-8.25-7.79-1.82-1.76-3.72-3.49-5.31-5.45-4.13-5.12-8.11-10.36-13.11-16.79-2.25,6.97-3.16,11.42,2.17,15.43,5.22,3.92,9.8,8.7,14.88,12.82,2.26,1.83,5.07,2.98,7.63,4.43Zm10.89-192.42c-9.27-7.72-19.46-16.21-29.77-24.81-3.73,8.03-.34,14.77,8.76,17.99,7.24,2.56,14.61,4.75,21.01,6.81Zm-34.42,47.56c-4.1,6.92-.96,10.87,3.67,13.91,4.51,2.97,9.38,5.4,14.11,8.03,3.58,1.99,7.19,3.92,10.79,5.87-4.1-5.58-9.06-9.56-13.79-13.81-4.95-4.45-9.68-9.15-14.78-14Zm28.29,67.77c.33-.68.66-1.37.98-2.05-11.8-6.6-18.78-19.1-32.12-24.43.23,3.71.99,7.4,3.26,9.14,7.59,5.84,15.68,11.03,23.67,16.33,1.13.75,2.79.69,4.21,1.01Zm-29.42-47.45c-3.18,6.46-3.13,9.55,2.34,11.5,3.31,1.18,6.18,3.65,9.16,5.68,4.72,3.21,9.36,6.54,15.02,10.5.23-2.7,1-4.89.37-5.43-8.62-7.37-17.44-14.51-26.88-22.25Zm10.46,140.66c3.55-8.96-1.92-18.05-11.59-19.94-2.88,10.71-1.48,13.2,11.59,19.94Zm30.5,22.11c.12-.46.24-.92.36-1.38-5.85-5.72-11.68-11.48-17.58-17.16-1.62-1.56-3.25-3.31-5.23-4.22-1.55-.71-3.64-.27-5.49-.34.52,1.75.47,4.18,1.64,5.15,7.03,5.84,14.28,11.43,21.61,16.9,1.17.88,3.11.72,4.69,1.05Zm-3.65-400.33c.7-.55,1.4-1.11,2.1-1.66-4.87-5.13-9.74-10.25-15.35-16.16-2.85,9.55-.59,12.12,13.25,17.82Zm-19.11-1.13c-.55.24-1.1.47-1.65.71,1.16,1.66,1.97,3.85,3.54,4.88,4.14,2.7,8.56,4.99,12.96,7.26,3.77,1.94,7.68,3.63,11.53,5.44.34-.66.68-1.33,1.02-1.99-9.13-5.43-18.27-10.86-27.4-16.29Zm8.77,180.23c1.21,5.61,3.14,10.41,10.49,9.1-3.5-3.03-6.99-6.06-10.49-9.1Z"/>
        <path class="cls-1" d="m2906.66,6.06c.7-1.54,1.06-4.08,2.16-4.46,11.77-4.07,21.94.04,30.53,7.75,10.63,9.53,20.5,19.92,30.87,29.76,2.25,2.14,5.24,3.49,7.89,5.2.59-.53,1.19-1.06,1.78-1.59-1.2-2.43-1.95-5.24-3.67-7.21-5.35-6.14-11.26-11.79-16.56-17.96-3.26-3.8-5.82-8.2-8.69-12.33.73-.88,1.46-1.76,2.19-2.63,3.14,1.75,6.75,2.98,9.35,5.34,8.7,7.91,17.03,16.23,25.53,24.37,2.25,2.16,4.52,4.2,7.18.36,2.18-3.14,1.36-4.66-1.8-6.96-6.34-4.61-12.1-10.06-13.87-18.58,10.37,1.98,15.57,9.47,19.34,19.57,2.43-1.47,4.6-2.46,6.38-3.92,19.89-16.27,41.89-24.92,68.2-20.99,11.25,1.68,22.99.17,34.17,2.09,14.55,2.5,28.84,6.73,43.09,10.75,3.9,1.1,7.06,5.4,10.9,5.98,11.37,1.72,18.84,10.25,27.99,15.5,9.51,5.46,17.41,14.13,25.07,22.29,7.26,7.74,13.79,16.3,19.71,25.13,4.28,6.38,7.22,13.69,10.43,20.74,3.23,7.07,6.38,14.21,8.98,21.52,3.47,9.76,6.36,19.72,9.51,29.59,2.87,8.99,6.06,17.9,8.53,27.01,1.73,6.39,2.4,13.07,3.7,19.59,1.4,7.02,2.96,14.01,4.48,21,2.09,9.56,4.3,19.1,6.29,28.68,2.77,13.34,5.49,26.69,8.01,40.08,1.2,6.37,1.82,12.85,2.82,19.25,2.49,15.84,6.01,31.61,7.16,47.55.49,6.85,4.48,14.98-1.61,21.21-13.6-1.63-10.7-13.38-12.3-21.25-3.63-17.89-5.04-36.22-8.21-54.22-3.68-20.95-8.12-41.77-12.49-62.58-3.48-16.54-7.12-33.06-11.2-49.46-1.34-5.37-4.26-10.35-6.87-16.47-1.4,1.96-2.28,3.19-3.16,4.42-.5-.15-1-.3-1.5-.45.43-2.27.86-4.54,1.29-6.8-.5,0-1,.02-1.5.02,0-1.75.54-3.74-.11-5.21-1.41-3.18-2.87-6.7-5.35-8.93-2.3-2.07-4.61-12.68-2.51-14.77-1.48-2.81-2.89-5.49-4.71-8.94-.72-.49-3.15-1.28-4.09-2.92-4.86-8.56-8.62-17.81-14.1-25.93-12.6-18.69-29.24-32.76-50.64-40.71-11.66-4.33-23.5-8.12-36.14-7.16-8.26.63-16.49,1.84-24.65,3.28-2.51.45-4.74,2.53-6.69,5.15,6.74.44,13.58,1.84,20.19,1.14,15.95-1.7,31.21.83,45.41,7.5,8.61,4.05,17.03,9.65,23.73,16.37,8.81,8.83,17.76,18.49,23.22,29.49,10.42,21.01,20.34,42.53,24.53,66,3.18,17.79,6.95,35.51,9.33,53.41,2.04,15.32,2.12,30.88,3.71,46.27,1.37,13.23,4.36,26.31,5.37,39.56,1.57,20.73,2.07,41.54,3.03,62.31.51,10.99,1.24,21.98,1.51,32.97.45,18.19.75,36.39.82,54.58.05,12.73-.65,25.47-.56,38.2.09,13.17,1.05,26.33.99,39.5-.05,10.18-1.31,20.36-1.62,30.55-.3,9.73.19,19.48-.16,29.21-.35,9.56-1.48,19.08-1.97,28.63-.82,15.91-.93,31.88-2.23,47.75-1.06,12.94-3.5,25.76-5.2,38.66-.72,5.46-1.11,10.96-1.6,15.99,6.34,12.21,7.03,25.52,8.43,40.7-10.5-9.53-5.83-22.23-10.68-31.15-1.99,3.35-3.95,6.62-6.26,10.5.36,5.38.52,12.03,1.34,18.6.65,5.25,1.69,10.52,3.29,15.55,2.06,6.5,4.3,13.07,7.51,19.04,2.24,4.17,6.23,7.41,9.57,11.21-2.19,3.04-6.81,2.46-12.23-1.39-9.84-6.98-14.44-17.27-17.46-28.16-3.75-13.53-7.65-27.24-9.08-41.12-1.16-11.21-.37-22.86,5.04-33.77,3.02-6.1,4.01-13.31,5.32-20.13,3.38-17.63,7.53-35.21,9.37-53.02,3.22-31.17,5.6-62.47,7.06-93.77,1.14-24.32.78-48.74.28-73.09-.59-29.03-1.79-58.06-3.22-87.06-.78-15.76-2.57-31.46-3.99-47.18-.11-1.26-.93-2.45-2.65-3.64-.37,7.21-1.16,14.42-1.03,21.62.39,20.45,1.33,40.89,1.71,61.35.31,16.37-.06,32.75.2,49.12.29,18.58,1.89,37.19,1.2,55.72-1.09,29.3-3.38,58.57-5.61,87.82-1.21,15.87-2.42,31.83-5.27,47.45-3.5,19.22-8.66,38.14-13.22,57.16-1.1,4.58-1.31,4.52-6.74,3.61-1.35-15.99,1.21-31.41,4.94-46.95,3.72-15.52,5.24-31.55,8.11-47.28,4.69-25.63,4.55-51.59,5.54-77.45.65-16.91-.23-33.86-.11-50.8.14-21.05.82-42.1.84-63.15.02-15.9-.44-31.81-1.02-47.71-.92-25.27-1.75-50.56-3.32-75.79-1.16-18.69-2.91-37.38-5.36-55.94-2.61-19.77-5.51-39.57-9.82-59.02-4.92-22.22-11.51-43.98-22.92-64.11-7.83-13.81-16.27-27.04-27.38-38.35-11.73-11.94-26.24-19.13-42.45-22.96-18.5-4.38-37.11-5.44-55.9-1.9-7.45,1.4-14.96,2.43-23.06,3.72,14.8-12.19,31.54-18.43,49.58-22.28,8.2-1.75,16.31-4.61,23.94-8.09,12.22-5.58,24.68-5.86,37.63-4.31,10.45,1.25,20.98,1.73,33.54,2.72-2.55-2.08-3.47-3.45-4.61-3.66-15.75-2.95-31.06-9.51-47.47-7.11-7.93,1.16-15.67,3.74-23.45,5.87-16.83,4.61-34,8.31-50.31,14.32-14.48,5.34-27.35,14.13-37.55,26.27-2.21,2.63-5.42,4.42-8.17,6.59-.6-.42-1.21-.84-1.81-1.25.79-1.99,1.31-4.14,2.4-5.96,8.46-14.13,22.49-22.02,35.32-31.25,2.5-1.8,5.04-3.55,7.56-5.32-.31-.66-.62-1.32-.93-1.98-4.66,1.68-9.7,2.71-13.91,5.16-15.88,9.25-29.07,21.42-39.42,36.81-2.85,4.24-7.78,7.34-12.28,10.1-1.51.93-5.51-.02-6.93-1.5-7.17-7.46-16.01-11.59-25.66-14.53-23.49-7.16-47.54-11.4-72.04-11.51-13.87-.06-27.83,1.8-41.61,3.76-23.87,3.39-42.3,16.11-56.11,35.5-10.57,14.84-15.99,31.9-20.34,49.45-5.45,21.98-11.91,43.72-17.33,65.71-5.45,22.09-10.69,44.25-15.03,66.57-3.51,18.07-6,36.36-8.14,54.65-3.42,29.18-6.18,58.44-9.22,87.66-1.19,11.48-2.92,22.94-3.46,34.46-1.33,28.45-2.27,56.92-3.07,85.39-.53,18.9-.54,37.81-.76,56.71-.22,18.72-.48,37.44-.58,56.15-.05,9.17.36,18.34.3,27.51-.02,2.32-1.07,4.64-1.82,7.64.86.6,2.21,1.55,2.91,2.03-1.96,9.96.1,17.85,6.19,25.48,1.98,2.49,1.44,7.88.57,11.6-3.98,16.99-5.83,33.99-2.3,51.27.54,2.63,1.85,5.1,2.3,7.74.24,1.41-.59,3.01-.94,4.53-1.46-.68-4-1.13-4.21-2.09-3.75-16.99-11.53-33-8.63-51.58,1.44-9.2-2.62-19.26-4.19-28.93-.59.04-1.17.08-1.76.12-.26.77-.9,1.63-.74,2.3,4.71,19.69-2.85,38.97-2.16,58.55.1,2.87,1.06,9.04-6,8.55-4.96-10.73-2.85-22.12-2.82-33.18.04-16.93,1.21-33.86,1.61-50.8.41-17.37-.22-34.79.86-52.11,1.27-20.33,4-40.57,5.89-60.86,1.26-13.58,1.92-27.21,3.26-40.78,1.98-20.07,4.33-40.11,6.5-60.16.23-2.15.31-4.32.47-6.48-.68-.17-1.35-.34-2.03-.52-1.66,5.51-4.08,10.92-4.85,16.55-2.95,21.46-5.29,43.01-8.01,64.5-2.13,16.84-4.97,33.6-6.56,50.49-1.37,14.51-1.03,29.18-2.2,43.71-.88,10.89-2.62,21.74-4.59,32.49-1.86,10.11-3.92,20.26-6.97,30.06-5.65,18.15-11.78,36.16-18.43,53.96-1.38,3.7-5.88,6.23-8.94,9.3-.76-.55-1.52-1.1-2.27-1.65.49-2.27.69-4.65,1.5-6.8,11.42-30.37,18.06-61.94,22.75-93.9,1.95-13.24,1.44-26.82,2.85-40.16,1.41-13.35,4.08-26.55,5.71-39.88,1.78-14.53,2.67-29.16,4.52-43.68,2.45-19.19,5.27-38.33,8.3-57.44,3.81-24,8.64-47.85,11.84-71.93,4.24-31.95,7.36-64.05,10.9-96.1,2.55-23.13,4.23-46.4,7.73-69.39,3.5-23.01,7.84-45.99,13.61-68.51,4.1-15.97,10.69-31.39,17.11-46.66,5.46-12.99,10.93-26.34,18.87-37.83,7.67-11.11,17.17-21.05,28.42-29.51,9.42-7.09,19.18-12.77,30.15-15.66,11.26-2.96,23.11-3.59,34.65-5.54,33.21-5.61,64.06,3.86,94.78,14.47,3.8,1.31,7.79,2.19,11.76,2.8,1.17.18,3.02-.97,3.74-2.05.46-.7-.16-2.83-.98-3.56-9.54-8.5-18.24-18.56-29.11-24.79-12.32-7.06-26.48-11.08-40.11-15.64-10.2-3.41-20.91-5.3-31.22-8.41-4.16-1.26-7.69-4.61-11.85-5.88-10.58-3.23-19.02,2.98-27.82,7.96,6-.51,11.99-1.27,18-1.45,5.74-.17,12.44-1.62,14.51,7.46-11.92,1.06-23.36,2.1-34.79,3.09-18.3,1.59-33.85,9.45-47.31,21.47-10.23,9.14-20.73,18.22-29.5,28.67-7.74,9.22-14.35,19.78-19.54,30.66-8.83,18.55-16.64,37.63-23.93,56.84-4.87,12.83-8.37,26.21-11.98,39.49-4.36,16.06-9.14,32.11-11.97,48.47-3.3,19.08-4.77,38.48-6.9,57.76-1.32,11.99-2.41,24.01-3.53,36.02-.12,1.27.22,2.58.29,3.87.32,5.47-2.39,8.2-9.94,8.17,0-11.55-.52-23.17.13-34.72.88-15.93,2.16-31.87,4.17-47.69,1.56-12.28,4.23-24.44,6.9-36.55,2.92-13.23,6-26.45,9.74-39.47,7.36-25.57,14.13-51.4,26.92-75,8.55-15.78,16.5-32.05,26.62-46.78,7.58-11.02,17.97-20.18,27.56-29.72,6.63-6.59,13.7-12.86,21.2-18.42,6.5-4.81,13.66-8.89,20.94-12.44,8.65-4.21,18.73-6.11,26.37-11.56,7.79-5.55,15.6-8.56,24.76-9.59,7.86-.88,15.62-2.69,23.49-3.3,7.39-.57,14.85-.12,22.64-.12-.04.26.11-.7.21-1.4,2.12.92,4.17,1.8,6.22,2.69,1.37,1.54,2.52,3.36,4.13,4.57,8.62,6.48,18.04,12.08,25.89,19.38,9.87,9.18,18.27,19.93,27.8,29.51,2.87,2.89,7.38,4.15,11.15,6.15.54-.62,1.09-1.25,1.63-1.87-1.24-2.45-2.09-5.22-3.78-7.3-13.83-17.05-28.24-33.58-48.29-43.65-5.87-2.95-12.48-4.43-18.74-6.58Zm218.62,14.01c.05-.71.09-1.42.14-2.13-1.03-.22-2.05-.56-3.09-.65-24.06-2.21-47.54-.48-70.5,8.09-28.12,10.5-49.36,28.63-64.02,54.62-.71,1.25.25,3.44.42,5.19,1.91-.49,4.5-.37,5.63-1.59,4.91-5.31,9.3-11.11,14.07-16.55,19.44-22.18,44.76-34.23,72.86-40.55,14.57-3.28,29.64-4.36,44.49-6.43Zm-62.42-8.32c-31.63,1.65-55.62,15.66-72.48,41.85,4.7,4.24,6.86.49,9.03-2.17,14.16-17.39,32.79-27.76,53.7-34.71,3.42-1.14,6.51-3.28,9.75-4.96Zm-128.44,28.06c-3.42-10.63-46.29-28.08-58.75-24.55,19.92,8.32,38.54,16.11,58.75,24.55Zm290.57,178.58c-.6.07-1.19.13-1.79.2,3.3,25.35,6.59,50.7,9.89,76.05,2.25-26.03-4.23-50.98-8.1-76.25Zm-489.44-18.66c1.21.36,2.43.72,3.64,1.08,3.26-11.65,6.52-23.3,9.78-34.95-.87-.27-1.73-.53-2.6-.8-3.61,11.56-7.22,23.11-10.83,34.67Zm3.17,4.44c-5.12-.85-7.54,6.86-4.77,18.63,1.9-7.43,3.33-13.02,4.77-18.63Z"/>
        <path class="cls-1" d="m2745.96,807.02c-3.29-4.6-7.1-8.93-9.75-13.88-3.16-5.92-6.32-12.17-7.67-18.66-1.63-7.82-3.61-16.72-1.41-23.91,3.39-11.06-.58-20.63-2.06-30.7-1.36-9.27-5.16-18.27-5.83-27.53-1.4-19.44-1.78-38.98-1.92-58.48-.08-9.92,1.69-19.84,1.84-29.78.17-11.54-.94-23.11-.72-34.65.28-14.88,1.44-29.74,2.02-44.61.8-20.53,1.25-41.07,2.17-61.6.39-8.78,1.68-17.51,2.41-26.27.73-8.63.91-17.31,1.96-25.9,3.96-32.48,8.07-64.95,12.34-97.39,1.63-12.41,3.57-24.8,5.83-37.11,2.46-13.42,5.4-26.74,8.24-40.09.4-1.88,1.43-3.63,3.81-5.26-.2,4.06-.3,8.13-.63,12.17-2.87,35.41-5.84,70.8-8.67,106.21-1.88,23.45-4.02,46.89-5.23,70.37-1.02,19.74-.84,39.54-1.24,59.31-.49,23.69-1.26,47.38-1.49,71.07-.18,17.97.63,35.95.37,53.92-.27,19.04-1.87,38.06-1.78,57.09.1,20.7,1.48,41.4,2.28,62.1.41,10.63.93,21.25,1,31.88.01,1.89-2.35,3.68-2.91,5.71-.88,3.23-2.33,6.95-1.49,9.88,2.91,10.26,6.71,20.26,10.12,30.38.46,1.38.64,2.85.94,4.28-.84.48-1.69.97-2.53,1.45Z"/>
        <path class="cls-1" d="m3320.66,819.07c-11.37,4.34-18.5-1.42-24.75-6.82-19.42-16.8-25.69-40.35-30.24-64.19-2.81-14.75-4.75-29.86-5.02-44.84-.28-15.57,2.2-31.17,2.96-46.79.77-15.78.67-31.59,1.38-47.37.68-15.04,2.2-30.05,2.82-45.09.47-11.31,0-22.66.11-33.99.16-17.11.39-34.23.73-51.34.22-10.78.66-21.55,1.12-32.32.05-1.2.86-2.36,2.12-5.64,1.89,3.75,3.8,5.84,3.92,8.03,1.18,20.86,2.03,41.74,3.02,62.61.38,8,1.11,15.99,1.33,23.99.68,24.24,1.32,48.48,1.72,72.72.25,15.19.9,30.46-.33,45.56-.52,6.49-1.64,13.13-2.16,19.72-.67,8.48-1.71,17.04-1.14,25.47,1.17,17.11,2.72,34.24,5.21,51.2,2.85,19.38,7.3,38.53,18.93,54.86,2.84,3.99,7.82,6.46,11.85,9.6,1.67,1.3,3.42,2.49,6.39,4.64Z"/>
        <path class="cls-1" d="m3094.8,751.85c0,19.77-.45,39.55.17,59.3.36,11.34,2.27,22.66,3.93,33.93.46,3.13,3.48,5.99,3.6,9.04.18,4.5.24,10.34-2.34,13.21-2.2,2.45-8.54,2.87-12.4,1.82-11.11-3.02-17.55-11.25-20.42-22.21-3.02-11.55-3.04-23.18-2.23-35.13.94-13.78-.6-27.7-.33-41.54.41-21.22,1.25-42.44,2.32-63.64.35-7.03,3.2-8.33,13.3-7.91,6.29.26,10.12,3.73,10.5,9.37.98,14.57,2.01,29.13,3.02,43.7.29.02.58.05.87.07Z"/>
        <path class="cls-1" d="m2921.92,736.25c0,29.67.31,59.34-.19,89-.15,8.66-2.01,17.43-4.15,25.88-2.57,10.2-19.03,16.59-27.89,11.48-4.31-2.49-5.04-8.3-2.73-12.83,1.63-3.19,2.03-7.14,2.38-10.81.89-9.35,1.79-18.73,2.03-28.11.21-7.78-.82-15.59-.74-23.38.12-10.69.5-21.39,1.25-32.06,1.09-15.49,2.42-30.98,4.03-46.43,1.07-10.28,3.33-10.57,13.4-8.56,8.59,1.71,10.81,5.59,10.46,13.65-.32,7.36.94,14.78,1.5,22.18h.65Z"/>
        <path class="cls-1" d="m3270.28,421.36c-1.05-9.54-2.26-19.51-3.03-29.5-.06-.72,3.56-2.83,4.71-2.37,18.23,7.19,36.32,14.73,54.48,22.1,10.14,4.12,20.34,8.09,30.53,12.09,10.83,4.26,21.78,8.25,32.49,12.78,8.3,3.51,11.88,12.69,9.05,21.54-2.46,7.69-11.44,12.38-20.03,10.86-10.17-1.8-18.21-7.96-26.99-12.62-5.23-2.78-10.57-5.35-15.84-8.04-5.66-2.89-11.2-6.03-16.97-8.68-13.45-6.17-26.96-12.2-40.55-18.05-1.73-.74-4.05-.1-7.84-.1Z"/>
        <path class="cls-1" d="m3397.44,725.02c-4.36.72-8.7,1.86-13.08,2.07-14.26.69-26.41-5.01-38.05-12.67-24.62-16.19-31.62-42.66-40.31-68.15-2.61-7.66-5.38-15.4-6.75-23.33-2.34-13.59-4.43-27.32-5.19-41.07-1.1-19.78-1.34-39.64-1.12-59.46.14-13.27,1.7-26.52,2.65-39.78.34-4.71.54-9.44,1.19-14.11.27-1.94,1.53-3.75,2.88-6.85,1.35,2.63,2.31,3.72,2.47,4.92,1.88,14.16,5.78,27.95,5.37,42.56-.46,16.23.83,32.54,1.83,48.78.96,15.64,1.95,31.31,3.94,46.84,2.74,21.36,6.77,42.55,16.54,62.05,5.5,10.97,10.37,22.56,17.71,32.22,10.53,13.86,25.62,21.12,43.3,22.17,1.32.08,2.66.02,3.94.27.84.17,1.6.78,2.39,1.19.09.78.19,1.56.28,2.35Z"/>
        <path class="cls-1" d="m2940.22,65.1c-7.89-1.94-15.92-3.44-23.65-5.9-20.29-6.45-40.85-6.96-61.65-3.62-11.81,1.89-23.66,3.62-35.34,6.13-19.79,4.25-35.75,15.5-49.27,29.93-12.84,13.69-23.02,29.02-30.58,46.71-6.62,15.5-13.43,30.6-18.44,46.86-5.68,18.45-9.59,37.06-13.02,55.91-2.88,15.79-6.18,31.51-8.51,47.38-2.66,18.18-4.34,36.5-6.68,54.73-.59,4.56-2.1,9-3.19,13.49-.86-.04-1.73-.08-2.59-.12,0-4.05-.4-8.14.07-12.14,2.12-18.32,3.8-36.72,6.92-54.87,5.15-30.01,10.38-60.07,17.35-89.7,4.48-19.04,11.64-37.51,18.52-55.9,4.48-11.99,9.71-23.9,16.18-34.92,12.64-21.56,30.06-39.07,51.53-51.77,7.84-4.64,17.66-6.25,26.78-8.33,14.08-3.22,28.24-6.94,42.54-8.02,10.57-.79,21.8,1,32.06,3.97,12.27,3.55,23.84,9.54,35.66,14.59,2.04.87,3.84,2.31,5.74,3.49-.14.7-.29,1.4-.43,2.1Z"/>
        <path class="cls-1" d="m3062.25,922.16c1.93-2.35,2.93-3.56,4.61-5.6-26.86,4.39-50.79,17.21-77.43,16.92-2.25-5.47-.17-8.48,3.84-9.87,29.12-10.02,58.67-18.49,89.17-23.24,1.93-.3,4.43-.41,5.91.56,7.16,4.66,14.41,2.38,21.66.83,13.33-2.87,26.63-5.88,39.94-8.84,3.91-.87,7.78-2.38,11.71-2.54,7.05-.3,14.16.67,21.2.26,10.75-.62,21.46-1.96,32.19-2.99,2.68-.26,5.46-1.02,8.03-.57,2.08.37,3.91,2.2,5.85,3.39-1.45,1.6-2.66,4.26-4.37,4.64-11.62,2.58-23.29,4.99-35.04,6.87-14.75,2.37-29.63,3.98-44.39,6.3-9.79,1.54-19.55,3.45-29.19,5.78-8.64,2.09-17.01,5.31-25.65,7.4-6.27,1.52-12.78,2.27-19.22,2.8-2.46.2-5.06-1.15-8.82-2.1Z"/>
        <path class="cls-1" d="m2686.37,387.36c-.24,12.55-.69,24.63-12.48,33.63-14.88,11.36-29.02,23.69-43.45,35.62-4.8,3.96-9.48,8.07-14.31,11.99-8.67,7.03-25.25,2.94-28.4-7.09-2.14-6.8,1.91-12.41,6.21-15.98,11.24-9.35,23.19-17.92,35.32-26.1,12.52-8.45,25.55-16.13,38.43-24.04,5.51-3.38,11.19-6.49,16.79-9.73.63.57,1.27,1.14,1.9,1.71Z"/>
        <path class="cls-1" d="m2606.94,724.11c1.77-10.52,3.11-21.13,5.4-31.54,6.95-31.5,14.95-62.78,21.23-94.4,5.62-28.29,9.46-56.93,14.16-85.41,1.85-11.21,3.58-22.47,6.05-33.55,1.51-6.74,4.34-13.19,7.13-21.39,5.43,10.66,3.52,20.01,2.35,28.83-2.98,22.29-7.05,44.44-10.6,66.65-2.2,13.79-3.7,27.72-6.51,41.38-4.11,19.99-9.02,39.82-13.74,59.68-3.44,14.47-6.71,29.01-10.88,43.27-2.55,8.74-6.63,17.04-10.11,25.5-.29.7-1.24,1.14-1.89,1.69-.87-.24-1.74-.48-2.61-.72Z"/>
        <path class="cls-1" d="m2894.22,902.09c16.18-4.76,31.83-9.63,47.64-13.93,12.13-3.3,24.42-6.06,36.72-8.66,3.66-.77,7.7-.7,11.39-.05,1.99.35,3.61,2.74,5.4,4.21-1.52,1.51-2.78,3.84-4.59,4.39-11.6,3.51-23.32,6.64-35.01,9.87-10.52,2.91-21.05,5.82-31.59,8.66-8.05,2.17-16.18,4.04-24.17,6.38-7.17,2.1-14.49,4.07-21.22,7.21-5.43,2.53-9.12,2.18-12.8-4.07,3.94-2.76,8.15-5.71,12.36-8.65-.18-.61-.36-1.22-.53-1.83-5.16,1.4-10.41,2.56-15.48,4.26-11.04,3.71-21.91,7.96-33.04,11.39-2.39.74-5.57-1.08-8.39-1.72,1.7-2.23,2.93-5.55,5.17-6.51,12.29-5.27,24.72-10.27,37.33-14.73,6.05-2.14,12.56-3.06,18.91-4.24,8.67-1.61,9.17-1.18,11.88,8.02Z"/>
        <path class="cls-1" d="m3295.66,909.51c-10.14,1.31-20.24,3-30.42,3.79-8.34.65-17.13,1.77-25.06-.1-12.55-2.97-23.64,1.73-35.11,4.03-18.47,3.69-36.67,8.68-55.07,12.79-3.61.81-7.65.57-11.32-.12-1.56-.3-3.3-2.88-3.71-4.7-.22-.99,1.95-3.32,3.42-3.75,6.44-1.89,12.99-3.44,19.55-4.88,27.2-5.95,54.33-12.37,81.72-17.31,6.44-1.16,13.69-3.11,21.37,1.6,4.94,3.03,13.55.2,20.5-.23,7.6-.47,15.17-1.46,22.77-1.65,2.37-.06,5.45,1.09,7.04,2.79,3.4,3.63,2.2,6.45-2.76,7.47-3.54.72-7.15,1.1-10.73,1.6-.66.09-1.35.01-2.02.01-.05-.45-.1-.89-.16-1.34Z"/>
        <path class="cls-1" d="m3210.36,841.71c-12.11-6.48-16.69-16.42-18.32-27.33-2.79-18.72-5.86-37.6-6.04-56.44-.18-17.92,3.04-35.89,5.06-53.81.71-6.29,2.18-12.5,3.56-18.69.75-3.36,2.02-6.6,3.05-9.89.84,0,1.69,0,2.53.01.67,2.54,2.04,5.12,1.9,7.62-.69,12.16-2.14,24.28-2.65,36.44-.65,15.39-1.04,30.81-.82,46.21.16,11.5,1.02,23.04,2.38,34.46,1.44,12.05,3.79,24,5.92,35.96.25,1.38,1.57,2.57,3.44,5.46Z"/>
        <path class="cls-1" d="m3350.59,765.16c-18.28-2.89-31.51-13.74-41.12-27.84-11.48-16.85-20.12-35.63-23.01-56.08-1.14-8.02,1.17-16.56,2.21-24.82.14-1.11,2.21-2.97,3.03-2.79,1.4.3,3.14,1.71,3.61,3.05.8,2.3,1.11,4.92.97,7.37-.66,11.47,3.28,21.87,7.37,32.2,4.27,10.78,8.37,21.68,13.51,32.05,5.33,10.73,12.7,20.08,22.78,27.11,3.92,2.73,7.12,6.48,10.65,9.77Z"/>
        <path class="cls-1" d="m3043.94,894.85c-3.52,2.49-5.33,4.63-7.53,5.19-22.43,5.71-44.95,11.1-67.41,16.74-6.3,1.58-12.39,4.06-18.74,5.36-2.5.51-5.43-1.08-8.17-1.71,1.62-2.69,2.61-6.65,4.98-7.84,7.4-3.71,15.12-7.15,23.09-9.27,18.77-5.01,37.74-9.27,56.67-13.66,3.04-.7,6.44-1.15,9.4-.48,2.3.52,4.16,2.95,7.69,5.67Z"/>
        <path class="cls-1" d="m3249.73,193.2c.75.95,2.01,1.81,2.13,2.82.96,7.78,1.37,15.64,2.6,23.38,2.03,12.72,4.72,25.34,6.83,38.05,1.83,10.99,3.13,22.07,4.87,33.07,1.29,8.17,3.5,16.23,4.25,24.43.95,10.38,1.08,20.85,1.13,31.29.04,8.61-.4,17.24-.98,25.84-.14,2.12-1.63,4.15-3.84,5.82-5.65-61.45-11.31-122.9-16.99-184.69Z"/>
        <path class="cls-1" d="m2754.56,653.22c2.9,44.71,5.79,89.43,8.69,134.14-.42.41-.84.81-1.26,1.22-4.26-5.76-8.53-11.52-11.82-15.96.34-7.3.99-13.45.84-19.58-.64-24.64-1.78-49.26-2.19-73.9-.13-7.79,1.36-15.62,2.3-23.41.13-1.11,1.3-2.09,1.99-3.13.49.21.97.42,1.46.63Z"/>
        <path class="cls-1" d="m2778.05,676.5c4.47,39.1,1.1,79.13,13.75,117.25-.85.44-1.7.87-2.55,1.31-2.01-1.95-4.55-3.58-5.95-5.9-7.9-13.07-11.2-27.66-11.68-42.64-.64-19.67-.27-39.37,0-59.06.05-3.74,1.7-7.46,2.61-11.18,1.27.08,2.54.15,3.81.23Z"/>
        <path class="cls-1" d="m2815.39,876.17c3.49,2.14,9.58,3.91,9.95,6.5.86,5.9-5.58,5.32-9.46,5.94-21.64,3.43-42.8,8.63-63.42,16.05-3.15,1.13-6.51,1.98-9.82,2.17-1.61.09-4.19-1.28-4.75-2.63-.51-1.24.64-4.15,1.91-4.92,2.99-1.81,6.45-2.88,9.78-4.08,21.15-7.63,42.01-16.33,65.81-19.03Z"/>
        <path class="cls-1" d="m2851.1,887.05c1.54,1.31,3.85,3.27,6.16,5.23-2.29,1.59-4.36,3.86-6.9,4.65-15.1,4.68-30.29,9.06-45.48,13.45-6.4,1.85-12.81,3.8-19.34,5.02-1.92.36-4.28-1.61-6.44-2.51,1.1-1.8,1.79-4.63,3.35-5.24,12.72-4.93,25.51-9.72,38.47-13.99,6.82-2.24,14.01-3.37,21.04-4.94,2.43-.54,4.9-.91,9.13-1.67Z"/>
        <path class="cls-1" d="m3169.57,695.21c-1.44,29.51-2.88,59.02-4.32,88.41-6.32-1.43-8.35-4.23-9.15-15.5-1.58-22.21.22-44.15,6.42-65.61.81-2.81,2.52-5.37,3.81-8.04,1.08.25,2.16.5,3.24.74Z"/>
        <path class="cls-1" d="m2755.58,886.49c-2.67.93-4.91,1.98-7.27,2.5-12.43,2.77-24.93,5.19-37.3,8.17-7.4,1.78-14.51,4.8-21.93,6.39-2.31.5-5.23-1.86-7.88-2.91,1.94-2.22,3.46-5.45,5.9-6.44,5.38-2.2,11.19-3.37,16.87-4.79,12.48-3.13,24.94-6.4,37.51-9.1,5.24-1.12,11.6-3.16,14.1,6.18Z"/>
        <path class="cls-1" d="m2800.64,687.99c4.37,27.4,8.75,54.8,13.2,82.69-5.55-.58-7.39-6.42-9.33-10.67-9.52-20.84-10.49-42.88-7.57-65.25.32-2.48,1.6-4.84,2.43-7.26.43.16.85.32,1.28.48Z"/>
        <path class="cls-1" d="m2828.71,752.84c-10.35-10.75-13.52-46.92-5.21-56.01,1.29,18.69,7.81,36.08,5.21,56.01Z"/>
        <path class="cls-1" d="m3355.1,911.08c-10.47,6.25-21.39,4.74-33.14,6.26,4.07-9.47,12.05-9.74,18.78-11.64,5.13-1.45,10.24-.99,14.36,5.38Z"/>
        <path class="cls-1" d="m3108.23,429.09c.02,8.95-.23,17.9.15,26.83.25,6.04,1.39,12.04,2.13,18.05-.56.11-1.12.21-1.67.32-.37-1.39-.38-3.05-1.18-4.12-1.12-1.5-2.82-3.52-4.29-3.52-1.31,0-3.45,2.2-3.83,3.77-2.05,8.36-3.63,16.83-5.44,25.24-.85,3.93-1.86,7.83-3.18,13.32-1.68-2.84-2.24-4.51-3.37-5.55-3.14-2.87-6.56-3.92-8.61,1.05-2.85,6.91-5.34,13.98-7.92,21.01-5.81,15.85-11.57,31.72-18.74,47.28,0-6.76.3-13.54-.16-20.27-.17-2.45-1.57-5.67-3.46-6.85-1.19-.74-5,1.05-6.49,2.72-8.04,9-16.04,18.08-23.38,27.64-2.77,3.61-3.78,8.58-5.55,12.96-1.9,4.7-3.75,9.41-6.08,15.26-7.09-14.41-6.19-14.11.46-33.79,7.79-23.03,14.57-46.47,20.31-70.1,3.59-14.78,5.87-30.2,6.18-45.38.34-16.73,2.72-33.81-2.63-50.32-.59-1.82-1.31-3.6-1.97-5.39-.74.09-1.48.18-2.22.27,0,16.75.53,33.52-.19,50.24-.47,10.98-2.32,21.97-4.28,32.82-2.69,14.91-5.62,29.81-9.25,44.52-3.94,16-8.94,31.73-13.15,47.67-1.28,4.85-1.25,10.04-2.26,14.98-.66,3.21-2.08,6.28-3.24,9.38-4.81,12.81-9.64,25.6-14.69,38.98-.93-1.73-2.28-3.48-2.85-5.46-4.57-15.8-12.92-30.55-11.48-48,.9-10.86-.04-21.9-.41-32.85-.39-11.42-2.17-22.9-1.43-34.23,1.2-18.22,3.78-36.37,6.14-54.5,2.18-16.76,4.92-33.44,7.19-50.19.36-2.67-.49-5.5-.78-8.25-.81-.1-1.62-.19-2.43-.29-1.55,6.13-3.51,12.2-4.56,18.41-3.76,22.16-8.26,44.27-10.43,66.6-1.54,15.93.08,32.19.53,48.29.41,14.76,1.29,29.5,1.69,44.26.27,9.94.09,19.88.05,29.83,0,2.14-.27,4.29-.41,6.43-.63.15-1.26.3-1.89.45-9.47-24.49-18.94-48.99-28.56-73.88-16.11,5.94-7.58,21.55-12.52,33.27-4.18-16.32-8.15-32.7-12.64-48.94-2.45-8.84-5.7-17.47-8.85-26.11-.43-1.18-2.83-2.82-3.52-2.5-1.86.86-4.35,2.43-4.7,4.11-1.37,6.45-2,13.06-3.16,21.49-3.76-13.15-4.18-24.81-3.02-36.97,1.18-12.31.07-24.83,1.18-37.15,1.07-11.83,3.19-23.63,5.76-35.24,2.68-12.11,5.97-24.14,9.84-35.92,3.84-11.69,8.72-23.04,12.37-34.87-12.6,9.23-17.24,23.38-21.11,36.88-5.89,20.57-9.02,41.93-13.57,62.9-1.91,8.78-4.48,17.41-6.71,26.12-.82,3.22-1.53,6.46-2.35,9.92-7.22-10.29,5.06-85.01,14.65-106.5,15.04-33.71,34.61-64,59.39-91.74-2.43,1.28-5.04,2.31-7.25,3.89-15.13,10.83-24.44,26.5-34.67,41.5-12.24,17.94-21.82,37.13-28.33,57.75-2.76,8.73-3.77,18-5.65,27.02-.31,1.49-.98,2.91-2.17,6.34-1.61-3.22-2.64-5.27-4.5-8.97-4.04,5.45-6.67,9-9.92,13.39.37-4.84.34-9.04,1.06-13.11,3.14-17.73,5.33-35.75,10.17-53.02,3.82-13.64,10.34-26.68,16.83-39.38,9.53-18.63,21.43-35.51,39.06-47.8,18.33-12.77,38.88-18.65,60.7-19.22,16.92-.44,34.15-.06,50.79,2.68,17.58,2.9,34.25,9.91,47.24,23.09,6.64,6.75,13.27,13.64,18.93,21.19,4.03,5.38,6.8,11.82,9.47,18.07,4.11,9.61,8.35,19.26,11.25,29.27,4.12,14.21,7.73,28.63,10.33,43.19,1.93,10.85,2.15,22.03,2.62,33.09.19,4.32-1.01,8.7-3.18,13.03-1.54-5.71-3.09-11.42-5.02-18.57-4.42,4.85-7.82,8.58-11.21,12.3.48-5.89,1.04-11.76,1.4-17.64,2.24-36.57-7.64-70.05-26.6-100.95-8.19-13.35-17.51-26.08-31-34.78-9.01-5.81-18.74-9.97-29.8-10.17,1.76,1.92,3.92,2.96,5.95,4.2,8.24,5.05,17.78,8.85,24.33,15.56,9.37,9.6,16.71,21.22,24.59,32.21,12.08,16.85,18.91,35.98,22.58,56.16,3.33,18.35,5.77,36.86,8.6,55.3Zm-81.64-135.46c8.69,3.12,13.91,7.44,18.32,17.55,6.14,14.09,11.34,28.58,17.21,42.79.97,2.34,3.32,4.1,5.04,6.13.99-2.35,2.79-4.67,2.85-7.04.56-19.96-5.4-38.26-15.59-55.13-7.1-11.74-17.88-19.16-31.1-22.74-14.82-4.01-29.74-6.05-44.87-1.29-3.02.95-6.19,1.42-9.28,2.15-13.61,3.2-24.33,11.16-32.75,21.76-11.62,14.65-14.88,32.39-16.39,52.31,2.84-1.21,5.9-1.53,6.89-3.13,3.57-5.76,7.62-11.63,9.33-18.04,4.47-16.69,15.45-27.19,29.82-35.07,22.6,16.52,50.98,16.52,60.52-.26Zm-15.11,119.61c-.81.04-1.62.09-2.44.13-.97,9.25-1.5,18.57-2.98,27.74-3.99,24.81-7.87,49.67-12.76,74.31-5.03,25.34-11.34,50.43-16.72,75.7-.73,3.44.62,7.33,1.01,11.01,4.44-11.44,7.76-22.52,10.49-33.75,5.54-22.78,11.53-45.49,15.88-68.5,4.23-22.38,6.99-45.07,9.63-67.71.72-6.14-1.33-12.61-2.11-18.93Zm48.67-33.16c-.54.32-1.09.65-1.63.97-.14.85-.53,1.74-.39,2.54,2.53,14.1,5.87,28.1,7.48,42.29,1.4,12.34,1.54,24.92.97,37.34-.42,9.08-2.82,18.07-4.5,27.07-2.11,11.26-4.41,22.49-6.56,33.74-.67,3.52-1.13,7.08-1.69,10.63.6.23,1.19.45,1.79.68,1.1-1.21,2.78-2.25,3.22-3.67,4.89-15.95,11.27-31.68,13.88-48.01,2.68-16.78,3.11-34.28,1.78-51.24-1.21-15.32-5.98-30.39-9.57-45.47-.6-2.52-3.13-4.58-4.77-6.86Zm-198.45,7.29c.67.24,1.34.48,2.01.73,3.53-9.25,6.95-18.53,10.6-27.73,11.46-28.92,28.15-54.21,52.33-74.13,16.12-13.28,35.77-18.07,55.57-22.41,2.32-.51,4.6-1.23,8.56-2.3-2.53-.73-3.16-.98-3.8-1.07-1.12-.16-2.27-.38-3.38-.3-24.45,1.67-47.38,7.97-66.03,24.65-30.79,27.54-48.71,62.22-55.84,102.56Zm41.5,125.67c1.06-.18,2.11-.36,3.17-.55-12.44-53.23-2.78-103.59,18.35-152.85-3.21,1.12-5.46,2.57-6.58,4.63-10.93,20.01-16.11,42.03-20.94,63.98-5.84,26.59-2.48,53.22,2.75,79.6.37,1.87,2.13,3.47,3.25,5.2Zm145.9-116.9c-.99,26.54-.27,53.02-3.43,79.02-3.13,25.77-10.17,51.07-15.61,77.12,18.84-20.16,33.95-139.58,19.05-156.14Zm-98.87,169.89c0-2.57.2-4.49-.03-6.35-3.09-25.29-6.05-50.56-1.43-76.02,4.75-26.21,9.29-52.46,13.84-78.71.37-2.12.05-4.36.05-6.55-19.33,33.25-29.12,145.48-12.42,167.62Zm-16.31-189.14c-20.22,20.4-31.9,113.76-15.62,147.17.23-23.03-1.38-48.27,1.23-73.06,2.64-25.05,9.47-49.66,14.39-74.11Zm140.97-47.84c8.01,53.44,21.4,106.45,9.35,162.37,20.7-16.59,5.67-129.72-9.35-162.37Zm-80.93,77.55c-.98-.03-1.96-.06-2.94-.09-3.93,42.4-15.01,83.8-16.34,126.69,2.35-3.43,4.12-7.03,4.84-10.84,2.11-11.1,3.99-22.25,5.62-33.44,3.4-23.29,6.71-46.6,9.73-69.94.52-4.02-.57-8.25-.92-12.39Zm-47.74-15.21c-2.46,1.48-3.07,1.63-3.19,1.95-9.44,26.65-14.75,54.15-15.68,82.37-.48,14.63.05,29.32.72,43.95.29,6.35-1.67,13.49,2.5,17.57,1.04-23.24.99-47.7,3.56-71.89,2.58-24.3,7.78-48.33,12.09-73.96Zm30.46-6.06c7.15-6.15,17.62-44.99,15.04-54.62-9.15,3.53-19.56,40.48-15.04,54.62Zm4.86-58.1c-13.34,5.86-25.24,48.18-17.11,56.49,6.56-18.28,12.88-36.16,17.11-56.49Zm21.95,4.59c-.96-.23-1.92-.46-2.88-.69-1.2,3.13-2.52,6.22-3.58,9.4-4.36,13.07-1.04,25.95,1.08,38.85.44,2.66,1.13,5.28,1.71,7.91,7.36-18.48,5.5-36.97,3.68-55.47Zm37.67,50.9c9.12-11.17,1.15-50.42-11.35-54.68,3.81,18.34,7.48,36.07,11.35,54.68Zm-71.38-57.42c-1.47,0-2.01-.17-2.34.02-10.9,6.64-22.42,33.11-19.74,45.5.19.89,1.11,1.85,1.94,2.28.42.22,1.69-.49,2.1-1.1.87-1.3,1.51-2.77,2.11-4.23,4.84-11.62,9.72-23.22,14.4-34.9.91-2.28,1.01-4.88,1.53-7.58Zm44.42,62.23c7.34-13.82,5.52-46.35-3.14-55.8-3.34,19.68,1.75,37.65,3.14,55.8Zm6.82-55.69c-.5,17.84,4.77,33.83,5.95,50.82,9.45-5.12,5.03-41.67-5.95-50.82Zm32.1,38.59c7.65-11.04.23-37.49-12.3-40.92,4.23,14.06,8.16,27.13,12.3,40.92Zm-117.86-10.55c.61.3,1.22.61,1.83.91,5.73-10.32,11.58-20.58,17.02-31.05.56-1.08-1.29-3.41-2.02-5.16-1.33.61-3.28.85-3.88,1.87-6.12,10.42-14.39,20.05-12.95,33.42Zm56.3,21.1c.93-5.04,1.86-10.08,2.79-15.12-.8-.15-1.6-.3-2.4-.44-3.07,4.64-1.41,10.16-.39,15.57Z"/>
      </g>
    </g>
  </g>
</svg>