<?xml version="1.0" encoding="UTF-8"?>
<svg id="Layer_2" data-name="Layer 2" xmlns="http://www.w3.org/2000/svg" viewBox="0 0 776.45 778.9">
  <defs>
    <style>
      .cls-1 {
        fill: #f0f8ff;
        stroke-width: 0px;
      }
    </style>
  </defs>
  <g id="Layer_1-2" data-name="Layer 1">
    <g>
      <g>
        <path class="cls-1" d="m225.51,80.34c16.3.72,33.73,1.34,51.13,2.37,3.48.21,6.86,1.97,10.3,3,5.72,1.71,11.36,3.91,17.2,4.89,3.38.57,7.09-.84,10.65-1.38,1.6-.24,3.88-1.34,4.68-.66,5.92,4.99,12.49,2.65,18.51,1.4,13.79-2.86,27.3-7.08,41.09-9.89,23.39-4.76,46.28-2.67,67.53,8.66,12.13,6.47,18.85,18.53,25.18,30.05,6.8,12.37,12.69,25.36,17.62,38.59,3.04,8.15,3.74,17.22,5.19,25.92,1.97,11.77,3.82,23.57,5.42,35.4,1.24,9.17,2.21,18.39,2.98,27.61,1.43,16.97,2.84,33.94,3.86,50.94.99,16.41,1.38,32.86,2.21,49.29.7,13.68,1.93,27.33,2.42,41.01.44,12.51,0,25.04.31,37.56.4,15.63,1.38,31.25,1.74,46.88.27,11.81-.9,23.72.14,35.44.92,10.43-2.02,18.52-9.85,24.84-3.39,2.74-7.41,4.98-11.49,6.54-18.06,6.92-35.93,14.46-55.39,16.99-7.11.93-14.04,3.25-21.12,4.47-12.79,2.21-25.62,4.2-38.47,6.04-7.29,1.04-14.63,1.96-21.98,2.31-13.8.65-27.63,1.39-41.43,1.04-11.66-.3-23.25-2.46-34.91-3.09-10.53-.57-21.14.29-31.67-.31-18.09-1.04-35.89-4.25-52.69-11.23-6.32-2.63-12.23-6.64-17.7-10.85-8.82-6.8-9.82-17.5-11.55-27.39-2.35-13.37-4.12-26.87-5.41-40.38-1.14-11.9-1.19-23.9-1.91-35.85-.65-10.78-1.63-21.53-2.29-32.31-.5-8.14-.84-16.3-1.08-24.45-.52-17.57-1.18-35.13-1.29-52.7-.09-15.1.58-30.2.77-45.3.13-10.52-.03-21.05.06-31.57.02-2.61.61-5.22.77-7.84.19-2.98.17-5.96.27-8.95.11-3.37.39-6.75.32-10.12-.1-4.67-.57-9.32-.69-13.99-.14-5.41-.23-10.83-.08-16.23.49-17.36,1.04-34.72,1.67-52.08.58-15.74,4.2-30.52,14.5-42.97,6.31-7.62,14.4-12.77,23.95-15.17,9.62-2.41,19.41-4.18,30.51-6.52Zm219.95,296.31c7.69,1.59,9.86-.1,10.89-8.53.43-3.54,1.62-7.01,1.86-10.56.61-8.93,1.88-17.98,1.06-26.81-1.59-17.09-7.11-33.26-13.45-49.23-7.96-20.05-17.62-38.99-33.23-54.14-13.55-13.14-29.84-21.51-48.56-24.82-22.23-3.93-44.4-2.71-66.35,1.73-17.72,3.58-33.2,11.86-45.99,24.84-11.41,11.58-20.7,24.65-26.8,39.76-4.62,11.45-9.46,22.88-12.92,34.7-6.06,20.68-7.25,41.86-3.6,63.22.72,4.19,2.3,7.99,6.86,8.66,4.21.62,4.31,2.82,4.38,6.24.16,8.45.29,16.97,1.47,25.31,1.1,7.77,2.8,15.69,11.63,19.25,1.51.61,2.62,3.15,3.15,5.01.96,3.44,1.1,7.1,2.03,10.55,2.5,9.23,4.13,18.94,11.98,25.66,4,3.42,7.27,2.41,8.83-2.56.26-.84.57-1.66,1.26-3.68,1.32,3.94,2.39,6.7,3.18,9.55,3.82,13.78,10.16,26.39,17.94,38.3,2.04,3.12,4.54,5.73,8.9,3.79,4.52-2.02,3.44-5.73,2.78-9.25-.32-1.74-.92-3.43-1.39-5.14.47-.28.93-.57,1.4-.85,1.12,1.19,2.68,2.19,3.29,3.6,3.06,7.07,5.76,14.29,8.81,21.35,1.34,3.09,2.88,6.22,4.95,8.84,3.74,4.71,7.21.77,10.42-1.29,2.36,4.79,3.76,9.84,6.91,13.3,2.43,2.66,7.04,4.52,10.71,4.57,4.6.06,4.54-4.65,4.68-8.29.06-1.45.03-2.9.17-4.34.7-7.54,1.11-15.17,5.19-22.49,1.57,4.24,2.16,8.27,4.36,11.01,1.63,2.02,5.38,3.14,8.14,3.06,1.12-.03,2.55-4.21,3.08-6.66.7-3.28,0-6.95,1.06-10.06,4.04-11.84,8.54-23.53,12.92-35.26.19-.51.94-.82,1.3-1.12,1.04,5.42,1.84,10.61,3.08,15.7.83,3.41,1.54,6.92,6.55,7.18,4.79.25,7.76-1.68,9.24-5.81,4.32-12,8.64-24,12.49-36.16,1.84-5.8,2.6-11.94,3.91-18.21,9.97,7.13,13.81,5.57,15.64-5.98,1.14-7.19,1.85-14.46,2.76-21.79,8.02,3.47,10.3,2.38,11.29-6.24.97-8.51,1.18-17.1,1.73-25.89Zm-73.65-245.17c-3.91,2.34-8.47,4.03-11.58,7.17-5.65,5.71-6.71,13.23-5.48,21.04,1.34,8.53,6.24,13.61,14.75,15.9,7.75,2.09,13.08-2.01,17.03-7.39,4.71-6.41,6.41-14.02,3.93-22.01-2.76-8.91-9.47-13.94-18.66-14.71Zm-107.25,30.14c.06,1.32-.06,2.67.21,3.94,1.46,7.02,5.57,11.77,12.44,13.99,6.74,2.18,12.27-.17,16.79-5.07,7.37-7.99,7.88-22.25,1.33-30.9-4.83-6.37-12.63-7.97-19.59-4.09-8.72,4.87-11.82,12.58-11.17,22.14Zm-54.23,383.04c-11.07-6.94-22.15-13.89-33.52-21.03-2.43,5.15-2.06,8.42,2.86,10.8,5.6,2.7,10.87,6.09,16.46,8.82,4.56,2.23,9.27,5.54,14.21,1.41Zm-7.52-68.44c.02-.39.04-.78.06-1.16-7.43-5.34-14.86-10.69-22.9-16.47,0-3.18-6.88-10.07-13.32-11.98-2.32,4.8-1.47,8.79,3.16,11.6,9.16,5.53,18.37,10.98,27.63,16.33,1.59.92,3.57,1.14,5.37,1.69Zm-12.01-240.69c.57-.71,1.13-1.41,1.7-2.12-3.39-3.01-6.73-6.09-10.19-9.01-3.71-3.12-7.64-5.99-11.3-9.17-3.17-2.75-6.09-5.79-9.12-8.7-.55.23-1.1.45-1.65.67,1.15,4.1,1,9.95,3.7,11.97,8.37,6.24,17.83,11.01,26.86,16.36Zm14.2,286.84c-5.89-2.59-11.77-4.66-17.11-7.68-5.18-2.92-7.94-9.73-15.45-9.6-1.5,3.85.13,6.62,3.21,8.55,6,3.74,12.13,7.27,18.27,10.78,1.28.73,2.88.89,4.23,1.52,3.25,1.52,5.41.66,6.86-3.57Zm-9.73-110.76c.28-.67.56-1.35.84-2.02-7.61-2.97-9.39-13.66-17.08-13.6-5.36-6.07-9.74-11.02-14.12-15.98-.83.37-1.66.73-2.49,1.1.67,3.31.23,7.74,2.22,9.72,4.63,4.59,10.31,8.16,15.78,11.82,4.8,3.21,9.88,5.99,14.84,8.96Zm-33.52-141.66c-.12,5.53-.09,10.82,4.78,14.31,5.66,4.06,11.31,8.13,16.95,12.23,2.62,1.9,4.77,2,5.92-.7-9.39-8.78-18.52-17.3-27.65-25.83Zm7.38,197.37c-.63.37-1.26.75-1.89,1.12.4,2.68-.12,6.88,1.37,7.78,8.18,4.99,16.85,9.17,25.35,13.63.5-.8,1-1.6,1.51-2.4-7.89-7.86-18.01-12.83-26.34-20.14Zm-4.1-283.73c-.88.24-1.77.48-2.65.71-.25,2.58-1.73,6.34-.55,7.56,8.12,8.51,16.77,16.52,25.34,24.6.69.65,2.04.59,4.16,1.15-1.43-6.59-7.7-6.93-10.64-10.5-3.1-3.76-6.5-7.33-9.2-11.37-2.54-3.79-4.34-8.08-6.46-12.15Zm24.64,5.08c-.04-.97.26-2.28-.18-2.61-3.99-2.99-8.14-5.75-12.17-8.69-1.22-.89-2.83-1.92-3.19-3.2-1.65-5.71-6.29-7.84-10.92-10.51-1.96,9.67,9.55,20.4,26.46,25.01Zm-.91,63.73c.54-.58,1.07-1.15,1.61-1.73-.69-1.13-1.15-2.52-2.11-3.33-6.69-5.69-13.42-11.35-20.31-16.8-1.14-.9-3.11-.76-4.7-1.1-.03,2.23-.97,5.76.05,6.48,8.28,5.79,16.93,11.05,25.46,16.48Zm-23.67-107.14c-2.47,6.14-1.29,9.62,2.7,12.33,7.51,5.11,14.98,10.29,22.78,15.65.51-1.15,1.38-2.5,1.16-2.71-8.58-8.26-17.26-16.42-26.64-25.27Zm-1.69,212.36c-.73.35-1.46.71-2.18,1.06.75,2.81.6,7.02,2.41,8.19,7.55,4.86,14.23,12.33,24.57,11.14-8.43-6.93-16.62-13.66-24.8-20.38Zm29.3-201.91c-.05-1.06.08-1.55-.1-1.74-7.34-7.89-18.09-12.35-22.91-22.78-1.42.73-3.95,1.35-4.03,2.2-.16,1.67.74,3.68,1.74,5.18,6.07,9.05,15.91,12.4,25.3,17.15Zm-33.35,142.22c9.78,5.61,19.27,11.05,28.75,16.49.44-.64.88-1.27,1.31-1.91-9.23-7.19-18.47-14.39-28.19-21.96-.68,2.69-1.17,4.61-1.87,7.38Zm11.12,188.24c-.66.37-1.32.74-1.98,1.1.75,2.23.83,5.59,2.36,6.48,7.38,4.31,15.12,8.01,22.81,11.74.67.33,1.97-.65,3.72-1.29-9.57-6.41-18.24-12.22-26.91-18.04Zm16.56-59.93c.52-.76,1.04-1.52,1.56-2.28-2.39-2.05-4.8-4.08-7.17-6.17-1.59-1.4-3.23-2.76-4.63-4.34-3.63-4.1-7.14-8.31-11.55-13.47-1.61,5.89-2.2,9.62,2.39,12.75,4.5,3.07,8.49,6.87,12.87,10.1,1.95,1.44,4.33,2.28,6.51,3.4Zm1.71-160.54c-8.01-6.07-16.81-12.75-25.72-19.5-2.8,6.82.29,12.31,7.98,14.64,6.12,1.86,12.34,3.39,17.74,4.87Zm-26.83,40.89c-3.14,5.92-.38,9.08,3.58,11.43,3.87,2.3,8.01,4.13,12.05,6.14,3.05,1.52,6.13,2.98,9.2,4.47-3.62-4.49-7.9-7.61-12-10.96-4.29-3.51-8.41-7.24-12.83-11.08Zm26.13,55.31c.25-.58.49-1.16.74-1.75-10.07-5.04-16.35-15.18-27.66-19.1.33,3.08,1.11,6.12,3.06,7.49,6.54,4.57,13.47,8.58,20.32,12.68.97.58,2.35.47,3.54.68Zm-26.3-38.36c-2.4,5.49-2.24,8.07,2.38,9.48,2.8.85,5.29,2.8,7.84,4.37,4.05,2.49,8.04,5.08,12.9,8.17.08-2.25.64-4.1.1-4.53-7.46-5.8-15.07-11.4-23.22-17.49Zm14.08,116.65c2.61-7.59-2.28-14.95-10.4-16.15-1.99,9.02-.72,11.04,10.4,16.15Zm26.23,17.24c.08-.39.16-.78.25-1.17-5.09-4.54-10.16-9.1-15.29-13.6-1.41-1.23-2.83-2.63-4.51-3.31-1.32-.54-3.04-.09-4.58-.07.5,1.44.55,3.46,1.56,4.22,6.07,4.59,12.32,8.97,18.63,13.24,1.01.68,2.62.48,3.95.69Zm-18.32-332.99c.56-.49,1.12-.98,1.68-1.47-4.25-4.08-8.49-8.16-13.39-12.86-2.01,8.05-.03,10.11,11.71,14.32Zm-15.94-.21c-.45.22-.9.43-1.34.65,1.03,1.34,1.78,3.13,3.13,3.92,3.55,2.09,7.31,3.82,11.06,5.54,3.22,1.47,6.53,2.73,9.8,4.08.26-.56.52-1.13.77-1.69-7.81-4.17-15.62-8.34-23.43-12.51Zm14.18,149.64c1.22,4.62,3.01,8.54,9.07,7.17-3.02-2.39-6.05-4.78-9.07-7.17Z"/>
        <path class="cls-1" d="m248.64,10.32c.53-1.31.72-3.43,1.63-3.79,9.64-3.84,18.26-.8,25.7,5.28,9.21,7.53,17.82,15.8,26.83,23.58,1.96,1.69,4.5,2.7,6.77,4.03.47-.46.95-.93,1.42-1.39-1.09-1.97-1.83-4.28-3.33-5.86-4.69-4.9-9.82-9.38-14.47-14.31-2.86-3.03-5.15-6.6-7.7-9.93.58-.76,1.15-1.52,1.73-2.27,2.68,1.33,5.73,2.22,7.98,4.08,7.54,6.25,14.79,12.85,22.17,19.3,1.96,1.71,3.92,3.32,5.99.02,1.69-2.7.96-3.93-1.76-5.72-5.45-3.59-10.46-7.91-12.25-14.93,8.71,1.25,13.32,7.28,16.84,15.54,1.96-1.32,3.73-2.22,5.16-3.5,15.93-14.3,33.91-22.34,55.95-20.07,9.42.97,19.14-.73,28.51.44,12.21,1.52,24.25,4.5,36.27,7.3,3.28.77,6.08,4.22,9.3,4.56,9.52,1,16.07,7.81,23.88,11.83,8.12,4.18,15.03,11.09,21.71,17.59,6.34,6.16,12.09,13.04,17.36,20.16,3.81,5.14,6.53,11.12,9.47,16.86,2.95,5.76,5.85,11.58,8.29,17.56,3.26,7.99,6.05,16.16,9.05,24.26,2.73,7.38,5.73,14.67,8.13,22.15,1.69,5.25,2.5,10.78,3.83,16.16,1.43,5.79,3,11.54,4.53,17.31,2.1,7.88,4.31,15.73,6.33,23.63,2.81,10.99,5.59,22,8.2,33.04,1.24,5.25,2,10.62,3.09,15.91,2.68,13.09,6.21,26.07,7.77,39.29.67,5.68,4.3,12.3-.53,17.71-11.38-.84-9.42-10.72-11.04-17.22-3.7-14.75-5.58-29.95-8.9-44.81-3.86-17.29-8.35-34.45-12.79-51.6-3.53-13.63-7.19-27.24-11.21-40.73-1.32-4.42-3.94-8.45-6.35-13.44-1.09,1.69-1.78,2.74-2.46,3.8-.42-.1-.84-.21-1.26-.31.27-1.9.54-3.81.82-5.71-.42.03-.83.05-1.25.08-.07-1.46.31-3.14-.29-4.33-1.29-2.59-2.65-5.46-4.79-7.22-1.99-1.63-4.32-10.38-2.65-12.19-1.34-2.28-2.62-4.46-4.26-7.26-.62-.38-2.67-.95-3.51-2.28-4.37-6.94-7.86-14.49-12.72-21.04-11.2-15.07-25.59-26.14-43.69-31.94-9.87-3.16-19.87-5.86-30.34-4.57-6.85.84-13.65,2.16-20.38,3.67-2.07.47-3.84,2.28-5.37,4.54,5.62.11,11.37,1.01,16.85.18,13.21-2.02,26-.5,38.07,4.51,7.32,3.04,14.54,7.38,20.37,12.71,7.67,7.01,15.48,14.7,20.44,23.65,9.48,17.09,18.55,34.61,22.94,53.98,3.32,14.69,7.14,29.28,9.8,44.09,2.28,12.67,2.94,25.62,4.86,38.36,1.64,10.96,4.63,21.73,5.98,32.71,2.1,17.19,3.31,34.49,4.9,51.74.84,9.13,1.87,18.24,2.51,27.38,1.07,15.12,2.02,30.25,2.77,45.39.53,10.59.43,21.22.99,31.81.57,10.95,1.88,21.87,2.33,32.83.35,8.48-.31,16.99-.18,25.48.12,8.11.9,16.21.98,24.31.08,7.96-.5,15.93-.55,23.9-.07,13.27.44,26.56-.04,39.82-.39,10.81-1.93,21.57-2.85,32.37-.39,4.57-.5,9.16-.72,13.37,5.74,9.92,6.82,20.97,8.57,33.54-9.1-7.53-5.7-18.28-10.07-25.51-1.53,2.86-3.03,5.66-4.81,8.98.51,4.46.9,9.99,1.83,15.43.74,4.34,1.81,8.69,3.33,12.82,1.96,5.33,4.08,10.71,6.98,15.56,2.02,3.39,5.47,5.93,8.39,8.97-1.7,2.61-5.57,2.3-10.23-.69-8.46-5.43-12.67-13.82-15.6-22.77-3.64-11.11-7.41-22.37-9.13-33.87-1.39-9.28-1.18-19.01,2.9-28.29,2.28-5.19,2.83-11.23,3.65-16.96,2.14-14.8,4.92-29.59,5.77-44.47,1.49-26.06,2.28-52.2,2.3-78.3.02-20.28-1.22-40.59-2.56-60.83-1.6-24.14-3.71-48.24-6.01-72.32-1.25-13.08-3.34-26.08-5.12-39.11-.14-1.04-.87-2.01-2.35-2.92-.03,6.01-.42,12.05-.03,18.03,1.1,17,2.67,33.98,3.77,50.98.88,13.61,1.2,27.25,2.04,40.86.95,15.45,2.99,30.87,3.13,46.32.21,24.43-.58,48.87-1.31,73.29-.4,13.25-.8,26.58-2.57,39.69-2.18,16.13-5.75,32.07-8.81,48.07-.74,3.85-.92,3.81-5.47,3.26-1.73-13.25-.19-26.18,2.32-39.26,2.5-13.05,3.15-26.45,4.94-39.66,2.92-21.5,1.81-43.1,1.65-64.66-.11-14.09-1.48-28.17-2.04-42.26-.69-17.52-.93-35.06-1.71-52.58-.59-13.23-1.58-26.46-2.67-39.66-1.73-20.99-3.39-42-5.66-62.94-1.68-15.51-3.85-30.99-6.59-46.35-2.93-16.35-6.1-32.72-10.43-48.73-4.94-18.3-11.26-36.16-21.52-52.47-7.05-11.2-14.57-21.88-24.25-30.87-10.22-9.49-22.57-14.91-36.2-17.48-15.56-2.94-31.09-3.11-46.59.55-6.14,1.45-12.36,2.59-19.05,3.98,11.85-10.71,25.54-16.54,40.41-20.43,6.75-1.77,13.4-4.46,19.62-7.65,9.96-5.11,20.31-5.82,31.14-5.03,8.74.64,17.53.64,28.01.98-2.2-1.63-3.02-2.73-3.98-2.87-13.22-1.85-26.21-6.73-39.78-4.1-6.56,1.27-12.9,3.71-19.29,5.78-13.83,4.48-27.97,8.21-41.32,13.84-11.84,4.99-22.22,12.81-30.25,23.29-1.74,2.27-4.34,3.88-6.55,5.8-.52-.32-1.04-.65-1.56-.97.58-1.69.94-3.5,1.77-5.05,6.5-12.08,17.88-19.18,28.2-27.35,2.01-1.59,4.06-3.15,6.08-4.72-.28-.54-.56-1.07-.85-1.61-3.81,1.58-7.96,2.63-11.37,4.83-12.86,8.3-23.37,18.93-31.4,32.14-2.21,3.64-6.19,6.41-9.83,8.87-1.22.83-4.59.19-5.83-.99-6.25-5.94-13.77-9.03-21.91-11.11-19.82-5.06-40-7.67-60.39-6.82-11.54.48-23.09,2.56-34.48,4.72-19.73,3.74-34.59,15.02-45.33,31.69-8.22,12.76-12.09,27.16-15.04,41.92-3.7,18.5-8.24,36.84-11.91,55.34-3.69,18.59-7.21,37.23-9.97,55.97-2.23,15.17-3.6,30.49-4.69,45.79-1.73,24.41-2.91,48.86-4.32,73.3-.55,9.6-1.55,19.2-1.56,28.81-.02,23.72.28,47.45.71,71.17.28,15.74,1,31.48,1.53,47.22.53,15.58,1.03,31.17,1.66,46.75.31,7.63,1,15.25,1.3,22.88.07,1.94-.71,3.9-1.22,6.42.74.47,1.9,1.2,2.5,1.58-1.25,8.36.77,14.85,6.13,20.96,1.75,1.99,1.5,6.5.92,9.63-2.66,14.29-3.55,28.51.04,42.75.55,2.17,1.73,4.18,2.21,6.35.25,1.17-.38,2.53-.61,3.8-1.24-.51-3.37-.79-3.58-1.58-3.77-14-10.85-27.02-9.15-42.59.84-7.71-2.91-15.93-4.59-23.92-.49.05-.97.11-1.46.16-.19.65-.68,1.39-.53,1.94,4.67,16.21-.89,32.53.44,48.8.19,2.39,1.23,7.48-4.67,7.34-4.54-8.74-3.21-18.3-3.61-27.5-.61-14.09-.29-28.22-.6-42.33-.32-14.47-1.51-28.94-1.28-43.39.28-16.97,1.78-33.91,2.57-50.87.53-11.35.56-22.72,1.15-34.06.88-16.78,2.07-33.54,3.11-50.31.11-1.8.1-3.61.14-5.41-.57-.12-1.14-.23-1.71-.35-1.17,4.65-2.98,9.24-3.4,13.96-1.63,17.97-2.76,35.99-4.2,53.98-1.13,14.09-2.85,28.15-3.53,42.27-.59,12.13.26,24.32-.16,36.46-.31,9.09-1.35,18.19-2.58,27.21-1.16,8.48-2.49,17.01-4.65,25.28-4.01,15.32-8.42,30.54-13.27,45.61-1.01,3.13-4.66,5.41-7.09,8.08-.65-.43-1.3-.86-1.95-1.29.32-1.91.4-3.89.99-5.71,8.35-25.71,12.66-52.24,15.35-79.01,1.11-11.09.17-22.37.84-33.52.66-11.16,2.38-22.25,3.23-33.4.92-12.16,1.11-24.37,2.1-36.52,1.31-16.06,2.92-32.1,4.71-48.11,2.25-20.12,5.36-40.15,7.1-60.31,2.31-26.75,3.68-53.58,5.4-80.38,1.24-19.35,1.75-38.77,3.78-58.03,2.04-19.28,4.76-38.57,8.71-57.53,2.8-13.45,7.7-26.53,12.45-39.48,4.05-11.02,8.09-22.34,14.26-32.2,5.96-9.53,13.48-18.17,22.52-25.64,7.57-6.26,15.47-11.36,24.49-14.18,9.25-2.9,19.1-3.87,28.63-5.93,27.42-5.94,53.46.76,79.43,8.42,3.21.95,6.57,1.53,9.9,1.88.98.1,2.48-.92,3.03-1.85.36-.6-.24-2.35-.95-2.93-8.27-6.71-15.89-14.75-25.17-19.52-10.52-5.41-22.46-8.21-33.97-11.48-8.62-2.45-17.6-3.61-26.3-5.81-3.51-.89-6.57-3.54-10.09-4.44-8.93-2.29-15.71,3.21-22.84,7.68,4.97-.65,9.93-1.52,14.92-1.89,4.77-.36,10.29-1.82,12.36,5.65-9.88,1.34-19.35,2.64-28.83,3.9-15.17,2.02-27.81,9.16-38.55,19.67-8.17,7.99-16.55,15.95-23.46,24.98-6.09,7.97-11.19,17.01-15.08,26.26-6.64,15.77-12.41,31.95-17.74,48.22-3.56,10.86-5.97,22.13-8.46,33.31-3.01,13.53-6.38,27.07-8.11,40.79-2.02,16-2.5,32.2-3.53,48.33-.64,10.03-1.09,20.07-1.56,30.11-.05,1.06.28,2.14.39,3.21.47,4.54-1.68,6.91-7.96,7.18-.44-9.61-1.31-19.26-1.22-28.9.13-13.29.58-26.6,1.65-39.84.83-10.28,2.58-20.5,4.35-30.68,1.92-11.12,3.98-22.24,6.6-33.22,5.15-21.55,9.79-43.31,19.54-63.44,6.52-13.46,12.5-27.3,20.37-39.95,5.88-9.46,14.18-17.48,21.8-25.78,5.27-5.74,10.91-11.23,16.94-16.14,5.22-4.25,11.02-7.92,16.95-11.15,7.04-3.83,15.35-5.8,21.5-10.63,6.27-4.92,12.65-7.72,20.23-8.93,6.5-1.04,12.9-2.83,19.42-3.64,6.12-.76,12.35-.67,18.83-.97-.02.21.06-.58.12-1.17,1.8.68,3.54,1.34,5.28,2,1.2,1.23,2.23,2.7,3.61,3.65,7.42,5.06,15.47,9.37,22.28,15.14,8.57,7.26,15.97,15.89,24.26,23.5,2.5,2.29,6.3,3.17,9.51,4.69.43-.54.86-1.08,1.29-1.62-1.12-1.99-1.94-4.26-3.42-5.93-12.16-13.66-24.78-26.87-41.85-34.48-5-2.23-10.55-3.21-15.85-4.76Zm182.46,3.31c.01-.59.02-1.18.03-1.77-.86-.15-1.73-.38-2.6-.42-20.11-.92-39.58,1.42-58.36,9.43-23,9.81-39.98,25.71-51.18,47.9-.54,1.07.34,2.85.55,4.3,1.57-.48,3.73-.48,4.62-1.54,3.89-4.61,7.31-9.6,11.08-14.31,15.33-19.2,35.94-30.19,59.08-36.52,12-3.29,24.5-4.76,36.77-7.05Zm-52.26-4.54c-26.26,2.58-45.69,15.15-58.71,37.59,4.07,3.35,5.73.15,7.43-2.15,11.12-15.01,26.22-24.35,43.36-30.94,2.8-1.08,5.29-2.98,7.92-4.5Zm-105.81,28.26c-3.25-8.71-39.59-21.6-49.82-18.19,16.89,6.17,32.69,11.93,49.82,18.19Zm248.62,137.51c-.49.08-.99.16-1.48.23,3.71,20.97,7.42,41.94,11.13,62.91.88-21.75-5.47-42.26-9.65-63.14Zm-407.99,3.17c1.02.25,2.05.51,3.07.76,2.27-9.82,4.54-19.64,6.81-29.46-.73-.19-1.46-.38-2.19-.57-2.56,9.75-5.13,19.51-7.69,29.26Zm2.81,3.57c-4.3-.52-6.01,6-3.26,15.69,1.3-6.26,2.27-10.96,3.26-15.69Z"/>
        <path class="cls-1" d="m145.51,682.97c-2.92-3.7-6.25-7.16-8.64-11.18-2.86-4.81-5.72-9.89-7.1-15.23-1.66-6.44-3.65-13.77-2.09-19.84,2.4-9.33-1.27-17.14-2.88-25.47-1.48-7.66-4.99-15-5.9-22.69-1.91-16.12-2.97-32.37-3.83-48.59-.44-8.25.65-16.58.39-24.85-.3-9.61-1.66-19.19-1.92-28.8-.33-12.39.06-24.8-.02-37.2-.12-17.11-.53-34.23-.54-51.34,0-7.32.73-14.63,1-21.95.27-7.21.1-14.44.64-21.62,2.05-27.18,4.24-54.35,6.55-81.51.88-10.39,2.03-20.77,3.43-31.11,1.53-11.26,3.47-22.46,5.32-33.67.26-1.58,1.05-3.08,2.97-4.53-.02,3.38.06,6.77-.06,10.15-1.04,29.57-2.15,59.14-3.16,88.71-.67,19.58-1.55,39.17-1.66,58.76-.09,16.46.82,32.93,1.23,49.4.5,19.73.76,39.47,1.47,59.19.54,14.96,1.89,29.89,2.37,44.86.51,15.85-.1,31.75.7,47.58.87,17.22,2.81,34.39,4.27,51.59.75,8.83,1.59,17.65,2.05,26.49.08,1.57-1.82,3.15-2.2,4.86-.61,2.72-1.67,5.87-.87,8.28,2.81,8.43,6.36,16.61,9.58,24.9.44,1.13.64,2.35.95,3.52-.68.43-1.37.87-2.05,1.3Z"/>
        <path class="cls-1" d="m624.2,671.05c-9.29,4.05-15.45-.47-20.86-4.73-16.8-13.23-22.92-32.59-27.61-52.26-2.9-12.16-5.09-24.66-5.89-37.12-.83-12.95.64-26.02.67-39.05.04-13.16-.65-26.32-.66-39.48,0-12.54.68-25.09.62-37.63-.04-9.43-.86-18.86-1.2-28.29-.52-14.25-.99-28.5-1.35-42.75-.23-8.98-.27-17.96-.3-26.94,0-1,.62-2,1.55-4.78,1.72,3.05,3.38,4.71,3.57,6.53,1.78,17.31,3.28,34.66,4.91,51.98.62,6.64,1.53,13.26,2.02,19.91,1.49,20.14,2.95,40.29,4.21,60.45.79,12.63,1.91,25.31,1.47,37.92-.19,5.42-.87,10.99-1.04,16.49-.23,7.08-.78,14.25.02,21.24,1.62,14.19,3.57,28.39,6.29,42.41,3.11,16.01,7.55,31.78,17.85,44.93,2.52,3.21,6.76,5.08,10.23,7.53,1.44,1.01,2.94,1.94,5.5,3.61Z"/>
        <path class="cls-1" d="m433.68,623.74c.76,16.45,1.13,32.93,2.41,49.34.73,9.43,2.75,18.77,4.56,28.08.5,2.59,3.13,4.85,3.34,7.38.32,3.74.59,8.6-1.44,11.08-1.74,2.12-7,2.71-10.25,1.99-9.36-2.08-15.03-8.69-17.84-17.7-2.95-9.49-3.42-19.18-3.2-29.15.25-11.5-1.56-23.03-1.86-34.56-.47-17.68-.58-35.37-.5-53.05.03-5.86,2.34-7.06,10.77-7.09,5.25-.02,8.56,2.72,9.09,7.39,1.37,12.08,2.79,24.16,4.18,36.25.24,0,.48.02.73.02Z"/>
        <path class="cls-1" d="m289.23,617.36c1.13,24.69,2.52,49.37,3.24,74.07.21,7.21-1.01,14.58-2.46,21.69-1.75,8.59-15.2,14.53-22.77,10.61-3.68-1.91-4.51-6.72-2.76-10.57,1.23-2.71,1.41-6.02,1.57-9.09.38-7.82.77-15.65.62-23.47-.13-6.48-1.28-12.94-1.51-19.43-.31-8.9-.4-17.82-.18-26.73.32-12.94.83-25.87,1.58-38.79.5-8.59,2.37-8.92,10.82-7.64,7.21,1.1,9.21,4.24,9.23,10.96.02,6.13,1.34,12.27,2.09,18.4l.54-.02Z"/>
        <path class="cls-1" d="m684.5,589.85c-3.6.76-7.17,1.88-10.81,2.22-11.84,1.12-22.17-3.16-32.15-9.09-21.1-12.53-27.94-34.29-36.14-55.17-2.47-6.28-5.07-12.61-6.51-19.16-2.47-11.22-4.73-22.57-5.89-33.98-1.67-16.42-2.63-32.93-3.2-49.43-.39-11.05.4-22.14.69-33.21.1-3.93.09-7.88.45-11.79.15-1.63,1.13-3.18,2.14-5.81,1.23,2.14,2.07,3.01,2.25,4,2.11,11.71,5.88,23.03,6.09,35.21.24,13.53,1.94,27.04,3.39,40.52,1.4,12.98,2.82,25.98,5.07,38.83,3.09,17.67,7.26,35.15,16.14,51,4.99,8.92,9.49,18.38,15.97,26.13,9.29,11.13,22.12,16.59,36.88,16.8,1.1.01,2.22-.09,3.29.07.71.11,1.36.59,2.03.9.11.65.22,1.29.33,1.94Z"/>
        <path class="cls-1" d="m278.82,58.17c-6.64-1.31-13.38-2.26-19.9-4.01-17.13-4.6-34.26-4.23-51.44-.66-9.75,2.03-19.55,3.92-29.18,6.45-16.31,4.3-29.16,14.27-39.86,26.78-10.16,11.88-18.05,25.03-23.66,40.04-4.92,13.15-10.01,25.98-13.55,39.7-4.02,15.57-6.56,31.21-8.7,47.02-1.79,13.25-3.94,26.46-5.27,39.75-1.52,15.23-2.21,30.54-3.47,45.8-.31,3.82-1.4,7.57-2.14,11.35-.72,0-1.44,0-2.16,0-.15-3.37-.64-6.76-.41-10.1,1.07-15.32,1.76-30.7,3.66-45.93,3.14-25.17,6.34-50.38,11.01-75.3,3-16.02,8.26-31.66,13.27-47.22,3.27-10.15,7.17-20.26,12.13-29.68,9.69-18.43,23.52-33.66,40.9-45.04,6.35-4.16,14.45-5.87,21.96-7.96,11.59-3.22,23.23-6.85,35.1-8.3,8.76-1.06,18.18,0,26.83,2.08,10.34,2.49,20.2,7.03,30.23,10.78,1.73.65,3.28,1.78,4.91,2.68-.09.59-.19,1.18-.28,1.76Z"/>
        <path class="cls-1" d="m413.1,766.7c1.52-2.03,2.31-3.08,3.62-4.84-22.18,4.68-41.6,16.26-63.79,17.04-2.08-4.46-.47-7.05,2.82-8.36,23.85-9.45,48.12-17.63,73.31-22.75,1.59-.32,3.67-.51,4.94.24,6.13,3.61,12.09,1.43,18.05-.14,10.98-2.9,21.94-5.91,32.9-8.88,3.22-.87,6.38-2.27,9.65-2.56,5.86-.52,11.81.02,17.65-.59,8.92-.93,17.79-2.45,26.67-3.71,2.22-.32,4.51-1.06,6.66-.78,1.75.23,3.34,1.68,5,2.59-1.14,1.39-2.05,3.65-3.46,4.03-9.57,2.59-19.19,5.04-28.9,7.06-12.19,2.53-24.5,4.44-36.7,6.94-8.09,1.66-16.14,3.62-24.07,5.92-7.11,2.07-13.95,5.07-21.06,7.14-5.16,1.5-10.55,2.37-15.89,3.07-2.04.26-4.25-.76-7.42-1.41Z"/>
        <path class="cls-1" d="m79.9,336.03c.28,10.45.37,20.52-9.1,28.46-11.95,10.02-23.24,20.82-34.8,31.3-3.84,3.48-7.58,7.08-11.45,10.52-6.95,6.18-20.9,3.41-23.9-4.81-2.04-5.58,1.12-10.4,4.55-13.54,9-8.21,18.61-15.8,28.39-23.07,10.09-7.51,20.65-14.4,31.06-21.47,4.45-3.03,9.06-5.83,13.6-8.74.55.45,1.1.9,1.65,1.35Z"/>
        <path class="cls-1" d="m26.66,619.29c1.07-8.82,1.78-17.7,3.29-26.45,4.58-26.48,10.04-52.81,14.06-79.36,3.59-23.76,5.69-47.74,8.52-71.61,1.11-9.4,2.12-18.83,3.76-28.15,1-5.67,3.11-11.14,5.12-18.07,4.92,8.67,3.7,16.52,3.05,23.9-1.63,18.66-4.17,37.25-6.28,55.87-1.31,11.56-2.02,23.2-3.83,34.68-2.65,16.79-5.98,33.48-9.15,50.19-2.31,12.17-4.48,24.39-7.4,36.42-1.79,7.37-4.86,14.43-7.44,21.6-.21.6-.99.99-1.51,1.48-.73-.17-1.46-.33-2.2-.5Z"/>
        <path class="cls-1" d="m272.51,756.42c13.28-4.58,26.12-9.23,39.11-13.41,9.97-3.21,20.09-5.98,30.22-8.61,3.02-.78,6.38-.88,9.48-.48,1.67.21,3.11,2.14,4.66,3.29-1.2,1.31-2.17,3.3-3.65,3.83-9.52,3.36-19.15,6.42-28.75,9.55-8.65,2.82-17.29,5.65-25.96,8.41-6.61,2.11-13.31,3.98-19.87,6.24-5.89,2.02-11.9,3.94-17.39,6.81-4.42,2.31-7.51,2.16-10.8-2.9,3.18-2.45,6.57-5.06,9.96-7.67-.17-.5-.34-1-.51-1.5-4.24,1.37-8.57,2.53-12.72,4.14-9.05,3.51-17.93,7.46-27.06,10.74-1.96.7-4.68-.68-7.05-1.11,1.33-1.92,2.23-4.73,4.06-5.61,10.03-4.86,20.18-9.49,30.5-13.69,4.95-2.01,10.33-3.02,15.58-4.25,7.15-1.67,7.59-1.33,10.19,6.22Z"/>
        <path class="cls-1" d="m606.85,747.26c-8.39,1.47-16.73,3.27-25.17,4.32-6.91.86-14.19,2.13-20.86.87-10.56-1.99-19.6,2.35-29.07,4.69-15.23,3.78-30.19,8.62-45.33,12.74-2.98.81-6.35.77-9.42.33-1.31-.19-2.85-2.27-3.27-3.77-.22-.81,1.49-2.84,2.7-3.25,5.29-1.82,10.68-3.36,16.08-4.81,22.41-5.99,44.74-12.36,67.34-17.52,5.32-1.21,11.27-3.11,17.85.51,4.23,2.33,11.28-.35,17.05-.98,6.3-.68,12.57-1.79,18.88-2.24,1.97-.14,4.58.7,5.96,2.05,2.97,2.89,2.08,5.29-2.02,6.32-2.92.74-5.9,1.19-8.87,1.74-.55.1-1.12.06-1.68.09-.06-.37-.12-.74-.18-1.11Z"/>
        <path class="cls-1" d="m533.27,694.1c-10.32-4.93-14.52-13.03-16.29-22.05-3.04-15.47-6.31-31.06-7.19-46.74-.83-14.91,1.16-29.98,2.16-44.97.35-5.26,1.34-10.49,2.25-15.69.49-2.82,1.43-5.56,2.16-8.34.7-.03,1.41-.06,2.11-.09.66,2.09,1.89,4.18,1.87,6.26-.11,10.14-.85,20.29-.82,30.43.05,12.83.31,25.68,1.08,38.49.57,9.56,1.73,19.13,3.3,28.58,1.66,9.97,4.07,19.82,6.3,29.69.26,1.14,1.41,2.08,3.07,4.41Z"/>
        <path class="cls-1" d="m647.04,625.04c-15.32-1.7-26.75-10.23-35.28-21.6-10.19-13.58-18.1-28.88-21.29-45.79-1.25-6.63.34-13.82.89-20.74.07-.93,1.73-2.55,2.41-2.44,1.18.2,2.68,1.31,3.12,2.4.76,1.88,1.11,4.05,1.09,6.09-.11,9.57,3.57,18.07,7.36,26.51,3.97,8.81,7.79,17.72,12.47,26.15,4.85,8.73,11.33,16.22,19.99,21.69,3.36,2.12,6.17,5.12,9.24,7.72Z"/>
        <path class="cls-1" d="m396.82,744.67c-2.83,2.2-4.25,4.05-6.07,4.6-18.45,5.61-36.98,10.95-55.45,16.5-5.18,1.56-10.16,3.85-15.39,5.18-2.06.52-4.56-.69-6.86-1.11,1.25-2.3,1.92-5.63,3.85-6.71,6.02-3.37,12.31-6.52,18.86-8.6,15.43-4.89,31.05-9.16,46.64-13.53,2.5-.7,5.32-1.2,7.8-.76,1.93.34,3.57,2.3,6.62,4.43Z"/>
        <path class="cls-1" d="m541.27,152.95c.66.76,1.74,1.43,1.88,2.26,1.1,6.44,1.73,12.97,3.06,19.35,2.18,10.51,4.89,20.9,7.13,31.4,1.94,9.08,3.45,18.24,5.31,27.33,1.39,6.75,3.53,13.37,4.47,20.17,1.19,8.6,1.7,17.31,2.13,25.99.36,7.17.32,14.36.17,21.54-.04,1.77-1.19,3.51-2.98,4.99-7.05-50.92-14.1-101.84-21.19-153.04Z"/>
        <path class="cls-1" d="m146.79,554.66c4.12,37.1,8.23,74.19,12.35,111.29-.33.35-.67.71-1,1.06-3.77-4.63-7.54-9.26-10.44-12.83,0-6.09.31-11.23-.05-16.32-1.47-20.48-3.36-40.93-4.65-61.41-.41-6.48.54-13.05,1.02-19.57.07-.93,1-1.79,1.54-2.68.41.16.82.31,1.24.47Z"/>
        <path class="cls-1" d="m167.23,573.13c5.21,32.36,3.94,65.8,15.92,97.05-.69.4-1.38.79-2.07,1.19-1.75-1.55-3.92-2.81-5.18-4.69-7.08-10.58-10.37-22.59-11.35-35.04-1.28-16.34-1.73-32.75-2.25-49.15-.1-3.11,1.13-6.27,1.75-9.41,1.06.01,2.12.03,3.18.04Z"/>
        <path class="cls-1" d="m205.92,737.86c2.99,1.65,8.12,2.88,8.53,5.03.94,4.88-4.44,4.64-7.65,5.3-17.88,3.68-35.28,8.82-52.16,15.78-2.57,1.06-5.34,1.9-8.09,2.18-1.34.14-3.54-.9-4.05-2.01-.47-1.01.37-3.48,1.4-4.17,2.42-1.62,5.25-2.64,7.98-3.77,17.31-7.16,34.34-15.2,54.04-18.35Z"/>
        <path class="cls-1" d="m236.06,745.55c1.33,1.03,3.33,2.57,5.32,4.12-1.84,1.41-3.48,3.38-5.56,4.13-12.38,4.47-24.86,8.69-37.33,12.93-5.26,1.78-10.51,3.65-15.9,4.92-1.59.37-3.62-1.17-5.46-1.84.84-1.54,1.31-3.92,2.59-4.49,10.4-4.59,20.86-9.07,31.48-13.11,5.59-2.13,11.53-3.34,17.32-4.92,2-.54,4.04-.94,7.54-1.74Z"/>
        <path class="cls-1" d="m493.73,573.75c-.07,24.61-.14,49.22-.22,73.73-5.31-.95-7.11-3.2-8.21-12.55-2.16-18.42-1.5-36.75,2.84-54.84.57-2.37,1.89-4.56,2.86-6.84.91.16,1.82.33,2.72.49Z"/>
        <path class="cls-1" d="m156.55,748.74c-2.19.88-4.01,1.83-5.95,2.36-10.23,2.78-20.55,5.27-30.73,8.22-6.09,1.77-11.89,4.54-18.01,6.15-1.91.5-4.43-1.35-6.67-2.12,1.53-1.92,2.67-4.66,4.66-5.59,4.39-2.04,9.19-3.23,13.86-4.63,10.27-3.08,20.51-6.28,30.87-9,4.32-1.14,9.53-3.07,11.97,4.61Z"/>
        <path class="cls-1" d="m186.46,581.83c4.69,22.63,9.37,45.27,14.14,68.31-4.64-.27-6.4-5.06-8.17-8.52-8.72-16.97-10.37-35.28-8.79-54,.17-2.08,1.14-4.09,1.74-6.13.36.12.72.24,1.08.35Z"/>
        <path class="cls-1" d="m212.3,634.72c-9.02-8.55-13.04-38.53-6.47-46.41,1.79,15.51,7.88,29.72,6.47,46.41Z"/>
        <path class="cls-1" d="m656.37,746.29c-8.47,5.6-17.61,4.76-27.34,6.47,3.03-8.04,9.66-8.57,15.18-10.4,4.22-1.4,8.48-1.22,12.15,3.93Z"/>
        <path class="cls-1" d="m432.53,354.65c.36,7.44.49,14.91,1.15,22.32.44,5.01,1.62,9.96,2.46,14.94-.46.11-.92.22-1.38.33-.36-1.15-.43-2.52-1.14-3.38-.99-1.2-2.48-2.82-3.7-2.77-1.09.04-2.78,1.96-3.04,3.28-1.39,7.03-2.37,14.14-3.56,21.21-.56,3.31-1.25,6.59-2.14,11.2-1.51-2.3-2.03-3.67-3.02-4.49-2.72-2.27-5.61-3.02-7.12,1.2-2.11,5.86-3.91,11.84-5.78,17.78-4.23,13.41-8.42,26.83-13.79,40.06-.26-5.63-.27-11.28-.9-16.86-.23-2.03-1.52-4.66-3.14-5.57-1.02-.57-4.12,1.06-5.3,2.51-6.35,7.8-12.65,15.66-18.4,23.9-2.17,3.11-2.82,7.29-4.13,10.99-1.4,3.98-2.76,7.98-4.47,12.93-6.45-11.72-5.69-11.51-.91-28.13,5.6-19.46,10.35-39.23,14.22-59.11,2.43-12.44,3.73-25.35,3.41-38-.35-13.93.98-28.24-4.11-41.77-.56-1.49-1.23-2.94-1.85-4.41-.61.1-1.22.2-1.84.31.64,13.94,1.72,27.87,1.76,41.81.03,9.16-1.09,18.37-2.3,27.47-1.67,12.51-3.54,25.02-5.99,37.4-2.67,13.46-6.22,26.75-9.12,40.17-.88,4.09-.65,8.4-1.31,12.55-.43,2.7-1.49,5.31-2.34,7.93-3.51,10.84-7.05,21.67-10.73,33-.84-1.41-2.03-2.81-2.58-4.43-4.4-12.97-11.92-24.92-11.38-39.5.33-9.07-.87-18.22-1.6-27.32-.76-9.49-2.68-18.97-2.5-28.43.3-15.21,1.76-30.41,3.03-45.59,1.17-14.03,2.82-28.01,4.06-42.04.2-2.23-.62-4.56-.96-6.84-.68-.05-1.35-.1-2.03-.14-1.05,5.16-2.45,10.28-3.09,15.5-2.28,18.58-5.18,37.16-6.13,55.82-.68,13.32,1.29,26.78,2.28,40.17.91,12.26,2.2,24.5,3.1,36.77.6,8.26.83,16.54,1.18,24.82.07,1.78-.06,3.58-.1,5.37l-1.56.45c-8.82-20.02-17.63-40.04-26.59-60.38-13.18,5.56-5.49,18.22-9.15,28.16-4.1-13.42-8.03-26.9-12.39-40.24-2.37-7.27-5.41-14.32-8.36-21.39-.4-.97-2.46-2.24-3.02-1.95-1.52.78-3.52,2.19-3.76,3.6-.89,5.42-1.16,10.94-1.81,18-3.63-10.8-4.43-20.49-3.92-30.65.51-10.29-.89-20.67-.43-30.96.43-9.89,1.76-19.79,3.45-29.55,1.76-10.18,4.05-20.31,6.82-30.27,2.75-9.88,6.38-19.51,8.96-29.49-10.13,8.16-13.45,20.11-16.15,31.5-4.12,17.34-5.9,35.23-8.89,52.86-1.25,7.38-3.06,14.66-4.59,21.99-.56,2.71-1.03,5.44-1.57,8.34-6.4-8.29.97-70.93,8.13-89.18,11.23-28.63,26.36-54.57,45.91-78.61-1.97,1.16-4.11,2.11-5.89,3.51-12.18,9.59-19.32,22.99-27.26,35.86-9.5,15.39-16.74,31.73-21.37,49.14-1.96,7.37-2.45,15.13-3.67,22.7-.2,1.25-.71,2.46-1.57,5.36-1.47-2.62-2.4-4.28-4.08-7.29-3.15,4.69-5.21,7.74-7.75,11.52.12-4.04-.07-7.54.38-10.95,1.94-14.87,3.07-29.95,6.44-44.51,2.66-11.5,7.58-22.59,12.5-33.41,7.22-15.87,16.47-30.37,30.68-41.27,14.76-11.33,31.64-17.01,49.78-18.31,14.06-1.01,28.41-1.36,42.37.29,14.74,1.74,28.88,6.93,40.19,17.41,5.79,5.36,11.56,10.84,16.56,16.91,3.56,4.32,6.11,9.58,8.57,14.68,3.78,7.84,7.68,15.71,10.48,23.92,3.97,11.66,7.53,23.53,10.24,35.54,2.02,8.95,2.63,18.25,3.45,27.43.32,3.59-.51,7.28-2.15,10.97-1.5-4.69-3-9.38-4.89-15.26-3.49,4.2-6.18,7.44-8.86,10.66.17-4.92.42-9.83.49-14.74.47-30.52-9.04-58-25.99-82.99-7.33-10.8-15.56-21.04-27.12-27.76-7.72-4.49-15.97-7.58-25.18-7.33,1.54,1.53,3.37,2.31,5.11,3.27,7.05,3.89,15.14,6.68,20.84,12.02,8.16,7.63,14.72,17.02,21.69,25.86,10.7,13.56,17.11,29.22,20.93,45.87,3.47,15.14,6.21,30.45,9.27,45.69Zm-81.11-9.49c-.67.07-1.35.14-2.02.2-.45,7.74-.54,15.51-1.42,23.2-2.38,20.8-4.65,41.63-7.78,62.33-3.22,21.28-7.51,42.39-11.02,63.63-.48,2.89.8,6.07,1.26,9.12,3.26-9.69,5.6-19.04,7.44-28.49,3.74-19.17,7.85-38.29,10.6-57.61,2.67-18.79,4.1-37.77,5.43-56.71.36-5.14-1.59-10.44-2.48-15.67Zm39.23-29.45c-.44.29-.88.58-1.32.87-.09.71-.38,1.47-.23,2.12,2.64,11.63,5.96,23.16,7.84,34.91,1.64,10.21,2.24,20.68,2.23,31.03,0,7.57-1.66,15.15-2.71,22.7-1.32,9.45-2.81,18.88-4.17,28.33-.43,2.96-.67,5.94-1,8.91.5.16,1.01.33,1.51.49.87-1.05,2.23-1.98,2.54-3.18,3.46-13.46,8.17-26.79,9.72-40.48,1.59-14.07,1.28-28.64-.48-42.71-1.59-12.7-6.14-25.06-9.7-37.47-.59-2.08-2.78-3.69-4.23-5.52Zm-164.85,13.64c.57.18,1.13.35,1.7.53,2.58-7.83,5.08-15.69,7.76-23.48,8.43-24.5,21.36-46.19,40.71-63.68,12.9-11.66,29.08-16.4,45.38-20.77,1.92-.51,3.78-1.2,7.03-2.24-2.14-.51-2.66-.7-3.2-.75-.94-.09-1.9-.23-2.83-.12-20.28,2.32-39.12,8.44-54,23.04-24.57,24.09-38.16,53.63-42.55,87.48Zm39.33,102.99c.87-.19,1.74-.38,2.62-.58-12.39-43.82-6.27-86.1,9.43-127.9-2.63,1.06-4.44,2.35-5.3,4.1-8.33,17.07-11.8,35.59-14.98,54.04-3.85,22.35-.03,44.38,5.33,66.13.38,1.54,1.91,2.81,2.9,4.2Zm116.95-102.85c.19,22.13,1.8,44.13.16,65.89-1.62,21.57-6.51,42.89-10.04,64.77,14.9-17.49,22.92-117.45,9.88-130.66Zm-75.78,145.15c-.1-2.14,0-3.74-.27-5.28-3.54-20.93-6.97-41.84-4.1-63.2,2.96-21.99,5.73-44.01,8.51-66.02.22-1.78-.13-3.63-.21-5.45-14.81,28.41-18.67,122.17-3.94,139.96Zm-20.8-156.76c-16.05,17.74-22.2,95.88-7.38,123.06-.69-19.17-2.99-40.11-1.76-60.85,1.24-20.95,5.98-41.69,9.14-62.22Zm115.48-45.19c8.7,44.17,21.88,87.76,13.98,134.76,16.59-14.59-.23-108.16-13.98-134.76Zm-64.39,67.62c-.82.01-1.63.03-2.45.04-1.65,35.43-9.29,70.31-8.76,106.05,1.82-2.94,3.16-6.01,3.62-9.21,1.33-9.32,2.47-18.67,3.4-28.04,1.94-19.51,3.81-39.03,5.43-58.57.28-3.37-.79-6.85-1.24-10.27Zm-40.31-10.83c-1.99,1.33-2.49,1.47-2.58,1.75-6.84,22.54-10.2,45.63-9.9,69.14.16,12.19,1.16,24.39,2.28,36.55.49,5.28-.87,11.29,2.75,14.53-.02-19.38-1-39.73.21-59.96,1.22-20.32,4.63-40.51,7.23-62.01Zm41.58-88.08c0,.1,0,.19,0,.29-3.91.18-7.81.37-11.72.53-6.49.27-12.88,1.04-19.09,3.09-6.97,2.3-11.95,6.6-13.47,13.93-1.02,4.93-1.75,10-1.89,15.03-.24,8.68.32,17.32,4.32,25.34,2.89,5.79,6.9,10.49,12.86,13.29,6.84,3.22,14.14,4.47,21.63,4.98,9.92.67,19.51-.32,28.82-4.12,11.93-4.87,18.78-13.65,21.11-26.16,1.82-9.76,2.15-19.57.31-29.35-.8-4.23-2.3-8.21-5.82-11.2-4.15-3.53-9.09-4.99-14.24-5.29-7.59-.45-15.21-.27-22.82-.36Z"/>
        <path class="cls-1" d="m312.26,303.59c4.02-4.74,9.32-6.44,14.98-7.26,6.95-1,13.9-.97,20.64,1.24,4.26,1.4,8.41,3.16,11.82,6.24,1.69,1.53,1.68,2.05-.12,3.43-3.82,2.94-8.24,4.42-12.87,5.46-6.28,1.4-12.61,1.75-18.91.53-6.31-1.22-12.18-3.41-15.54-9.65Z"/>
        <path class="cls-1" d="m564.1,316.38c.96,6.2,1.71,12.45,3.02,18.58.36,1.7,2.2,3.27,3.67,4.52,10.87,9.25,22.43,17.44,36.45,21.17,11.36,3.02,22.47,2.24,33.38-2.65,13.82-6.2,22.35-17.3,28.27-30.46,4.44-9.89,7.5-20.4,11.14-30.65.26-.73.11-1.61.34-2.35.61-1.9.8-3.35,3.94-3.47,3.07-.11,5.66-1.03,7.88-2.53.58-.39,1.67-1.3,1.67-1.3l-28.59-40.6s-.8.81-1.17,1.25c-.72.84-1.37,1.75-1.92,2.64-1.22,1.98-2.67,2.04-4.15,1.76-9.01-1.72-15.1,2.44-16.08,11.44-.88,8.18,1.44,16.03,9.11,19.03,7.09,2.77,5.36,7.38,4.89,11.77-1.21,11.25-4.49,21.93-10.35,31.74-7.27,12.17-21.13,17.9-34.98,14.59-10.77-2.57-20.11-7.89-29.09-14.08-5.39-3.72-10.85-7.34-16.28-11.01-.38.2-.77.39-1.15.59Z"/>
      </g>
      <path class="cls-1" d="m666.28,126.8c-17.84,13.73-35.67,27.46-53.51,41.19-7.76,5.97-8.63,12.79-2.63,20.6,14.27,18.54,28.54,37.08,42.81,55.61,14.43,18.75,28.86,37.5,43.3,56.24,5.68,7.37,12.69,8.28,20.02,2.64,17.98-13.83,35.96-27.67,53.93-41.52,7.33-5.64,8.23-12.66,2.55-20.04-28.75-37.36-57.51-74.71-86.27-112.07-5.78-7.52-12.73-8.42-20.21-2.66m.13,8.63c1.63-1.25,3.97-.95,5.22.68,1.26,1.63.95,3.96-.68,5.22-1.63,1.25-3.97.95-5.22-.68-1.26-1.63-.95-3.96.68-5.22m-34.28,29.26c8.62-6.63,17.21-13.25,25.88-19.93.71.92,1.33,1.73,2.05,2.66-8.63,6.65-17.17,13.22-25.88,19.93-.66-.86-1.31-1.71-2.05-2.66m114.68,97.99c-7.84,6.03-15.65,12.04-23.58,18.15-1.83-2.39-3.58-4.66-5.44-7.06,7.87-6.06,15.63-12.03,23.57-18.15,1.77,2.29,3.56,4.61,5.44,7.07m7.28-29.79c-20.44,15.74-40.83,31.43-61.34,47.23-23.66-30.73-47.31-61.46-71.1-92.36,20.36-15.68,40.75-31.37,61.34-47.22,23.74,30.84,47.36,61.52,71.1,92.36"/>
    </g>
  </g>
</svg>