<?xml version="1.0" encoding="UTF-8"?>
<svg id="Layer_2" data-name="Layer 2" xmlns="http://www.w3.org/2000/svg" xmlns:xlink="http://www.w3.org/1999/xlink" viewBox="0 0 127.27 127.27">
  <defs>
    <style>
      .cls-1 {
        fill: #00205b;
      }

      .cls-1, .cls-2, .cls-3, .cls-4, .cls-5 {
        stroke-width: 0px;
      }

      .cls-2 {
        fill: #393939;
      }

      .cls-3 {
        fill: none;
      }

      .cls-6 {
        clip-path: url(#clippath-1);
      }

      .cls-4 {
        fill: #fff;
      }

      .cls-7 {
        clip-path: url(#clippath);
      }

      .cls-5 {
        fill: #bf0a30;
      }
    </style>
    <clipPath id="clippath">
      <circle class="cls-3" cx="60.09" cy="57.86" r="54.59"/>
    </clipPath>
    <clipPath id="clippath-1">
      <circle class="cls-3" cx="60.66" cy="52.74" r="70.22"/>
    </clipPath>
  </defs>
  <g id="Layer_1-2" data-name="Layer 1">
    <g>
      <circle class="cls-2" cx="63.63" cy="63.63" r="63.63"/>
      <g class="cls-7">
        <g>
          <circle class="cls-5" cx="60.66" cy="52.74" r="70.22"/>
          <g>
            <path class="cls-4" d="m9.99,4.13h101.33c-3.95-4.11-8.4-7.75-13.24-10.81H23.23C18.39-3.62,13.94.01,9.99,4.13Z"/>
            <path class="cls-4" d="m1.48,14.93c-2.18,3.41-4.08,7.03-5.66,10.81H125.49c-1.58-3.78-3.47-7.39-5.66-10.81H1.48Z"/>
            <path class="cls-4" d="m130.67,47.34c-.28-3.69-.85-7.3-1.68-10.81H-7.67c-.83,3.51-1.4,7.12-1.68,10.81h140.03Z"/>
            <path class="cls-4" d="m-4.18,79.74c1.58,3.78,3.47,7.39,5.65,10.81h118.36c2.18-3.41,4.08-7.03,5.65-10.81H-4.18Z"/>
            <path class="cls-4" d="m-9.35,58.14c.28,3.69.85,7.3,1.68,10.81h136.67c.83-3.51,1.4-7.12,1.68-10.81H-9.35Z"/>
            <path class="cls-4" d="m9.99,101.35c3.95,4.11,8.39,7.75,13.24,10.81h74.87c4.84-3.06,9.29-6.69,13.24-10.81H9.99Z"/>
          </g>
          <path class="cls-1" d="m60.66,58.14V-17.48C21.88-17.48-9.56,13.96-9.56,52.74c0,1.82.07,3.61.2,5.4H60.66Z"/>
          <g class="cls-6">
            <g>
              <polygon class="cls-4" points=".62 -2.92 -.35 .07 -3.5 .07 -.95 1.92 -1.92 4.91 .62 3.06 3.16 4.91 2.19 1.92 4.74 .07 1.59 .07 .62 -2.92"/>
              <polygon class="cls-4" points="13.97 -2.92 13 .07 9.85 .07 12.4 1.92 11.43 4.91 13.97 3.06 16.51 4.91 15.54 1.92 18.09 .07 14.94 .07 13.97 -2.92"/>
              <polygon class="cls-4" points="27.31 -2.92 26.34 .07 23.19 .07 25.74 1.92 24.77 4.91 27.31 3.06 29.85 4.91 28.88 1.92 31.43 .07 28.28 .07 27.31 -2.92"/>
              <polygon class="cls-4" points="40.64 -2.92 39.67 .07 36.53 .07 39.07 1.92 38.1 4.91 40.64 3.06 43.19 4.91 42.22 1.92 44.76 .07 41.62 .07 40.64 -2.92"/>
              <polygon class="cls-4" points="53.99 -2.92 53.01 .07 49.87 .07 52.41 1.92 51.44 4.91 53.99 3.06 56.53 4.91 55.56 1.92 58.1 .07 54.96 .07 53.99 -2.92"/>
              <polygon class="cls-4" points=".62 9.68 -.35 12.67 -3.5 12.67 -.95 14.52 -1.92 17.51 .62 15.66 3.16 17.51 2.19 14.52 4.74 12.67 1.59 12.67 .62 9.68"/>
              <polygon class="cls-4" points="13.97 9.68 13 12.67 9.85 12.67 12.4 14.52 11.43 17.51 13.97 15.66 16.51 17.51 15.54 14.52 18.09 12.67 14.94 12.67 13.97 9.68"/>
              <polygon class="cls-4" points="27.31 9.68 26.34 12.67 23.19 12.67 25.74 14.52 24.77 17.51 27.31 15.66 29.85 17.51 28.88 14.52 31.43 12.67 28.28 12.67 27.31 9.68"/>
              <polygon class="cls-4" points="40.64 9.68 39.67 12.67 36.53 12.67 39.07 14.52 38.1 17.51 40.64 15.66 43.19 17.51 42.22 14.52 44.76 12.67 41.62 12.67 40.64 9.68"/>
              <polygon class="cls-4" points="53.99 9.68 53.01 12.67 49.87 12.67 52.41 14.52 51.44 17.51 53.99 15.66 56.53 17.51 55.56 14.52 58.1 12.67 54.96 12.67 53.99 9.68"/>
              <polygon class="cls-4" points=".62 22.29 -.35 25.28 -3.5 25.28 -.95 27.12 -1.92 30.11 .62 28.26 3.16 30.11 2.19 27.12 4.74 25.28 1.59 25.28 .62 22.29"/>
              <polygon class="cls-4" points="13.97 22.29 13 25.28 9.85 25.28 12.4 27.12 11.43 30.11 13.97 28.26 16.51 30.11 15.54 27.12 18.09 25.28 14.94 25.28 13.97 22.29"/>
              <polygon class="cls-4" points="27.31 22.29 26.34 25.28 23.19 25.28 25.74 27.12 24.77 30.11 27.31 28.26 29.85 30.11 28.88 27.12 31.43 25.28 28.28 25.28 27.31 22.29"/>
              <polygon class="cls-4" points="40.64 22.29 39.67 25.28 36.53 25.28 39.07 27.12 38.1 30.11 40.64 28.26 43.19 30.11 42.22 27.12 44.76 25.28 41.62 25.28 40.64 22.29"/>
              <polygon class="cls-4" points="53.99 22.29 53.01 25.28 49.87 25.28 52.41 27.12 51.44 30.11 53.99 28.26 56.53 30.11 55.56 27.12 58.1 25.28 54.96 25.28 53.99 22.29"/>
              <polygon class="cls-4" points=".62 34.89 -.35 37.88 -3.5 37.88 -.95 39.73 -1.92 42.71 .62 40.87 3.16 42.71 2.19 39.73 4.74 37.88 1.59 37.88 .62 34.89"/>
              <polygon class="cls-4" points="13.97 34.89 13 37.88 9.85 37.88 12.4 39.73 11.43 42.71 13.97 40.87 16.51 42.71 15.54 39.73 18.09 37.88 14.94 37.88 13.97 34.89"/>
              <polygon class="cls-4" points="27.31 34.89 26.34 37.88 23.19 37.88 25.74 39.73 24.77 42.71 27.31 40.87 29.85 42.71 28.88 39.73 31.43 37.88 28.28 37.88 27.31 34.89"/>
              <polygon class="cls-4" points="40.64 34.89 39.67 37.88 36.53 37.88 39.07 39.73 38.1 42.71 40.64 40.87 43.19 42.71 42.22 39.73 44.76 37.88 41.62 37.88 40.64 34.89"/>
              <polygon class="cls-4" points="53.99 34.89 53.01 37.88 49.87 37.88 52.41 39.73 51.44 42.71 53.99 40.87 56.53 42.71 55.56 39.73 58.1 37.88 54.96 37.88 53.99 34.89"/>
              <polygon class="cls-4" points="1.59 50.48 .62 47.49 -.35 50.48 -3.5 50.48 -.95 52.33 -1.92 55.32 .62 53.47 3.16 55.32 2.19 52.33 4.74 50.48 1.59 50.48"/>
              <polygon class="cls-4" points="14.94 50.48 13.97 47.49 13 50.48 9.85 50.48 12.4 52.33 11.43 55.32 13.97 53.47 16.51 55.32 15.54 52.33 18.09 50.48 14.94 50.48"/>
              <polygon class="cls-4" points="28.28 50.48 27.31 47.49 26.34 50.48 23.19 50.48 25.74 52.33 24.77 55.32 27.31 53.47 29.85 55.32 28.88 52.33 31.43 50.48 28.28 50.48"/>
              <polygon class="cls-4" points="41.62 50.48 40.64 47.49 39.67 50.48 36.53 50.48 39.07 52.33 38.1 55.32 40.64 53.47 43.19 55.32 42.22 52.33 44.76 50.48 41.62 50.48"/>
              <polygon class="cls-4" points="54.96 50.48 53.99 47.49 53.01 50.48 49.87 50.48 52.41 52.33 51.44 55.32 53.99 53.47 56.53 55.32 55.56 52.33 58.1 50.48 54.96 50.48"/>
            </g>
          </g>
        </g>
      </g>
    </g>
  </g>
</svg>